<mxfile host="embed.diagrams.net" agent="Mozilla/5.0 (Windows NT 10.0; Win64; x64; rv:140.0) Gecko/20100101 Firefox/140.0" version="28.0.6">
  <diagram name="Page-1" id="vRSd1WDB8JmajxrZqY6_">
    <mxGraphModel grid="1" page="1" gridSize="10" guides="1" tooltips="1" connect="1" arrows="1" fold="1" pageScale="1" pageWidth="850" pageHeight="1100" background="#FFFFFF" math="0" shadow="0" adaptiveColors="none">
      <root>
        <mxCell id="0" />
        <mxCell id="1" parent="0" />
        <mxCell id="TyROdobQLk16wcPHEc8l-6" value="&lt;font style=&quot;font-size: 14px;&quot;&gt;&lt;b&gt;meta XML&lt;/b&gt;&lt;/font&gt;" style="edgeLabel;html=1;align=center;verticalAlign=middle;resizable=0;points=[];fontSize=21;fontColor=default;rotation=0;" connectable="0" vertex="1" parent="1">
          <mxGeometry x="1859.0002497902906" y="2426.003742782816" as="geometry" />
        </mxCell>
        <mxCell id="TyROdobQLk16wcPHEc8l-5" value="&lt;font style=&quot;font-size: 14px;&quot;&gt;&lt;b&gt;motion XML&lt;/b&gt;&lt;/font&gt;" style="edgeLabel;html=1;align=center;verticalAlign=middle;resizable=0;points=[];fontSize=21;fontColor=default;rotation=0;" connectable="0" vertex="1" parent="1">
          <mxGeometry x="1838.0002497902906" y="2385.003742782816" as="geometry">
            <mxPoint x="25" y="1" as="offset" />
          </mxGeometry>
        </mxCell>
        <mxCell id="j-AlwjU4qzb6VtaVWcLo-144" value="" style="shape=image;aspect=fixed;image=data:image/png,iVBORw0KGgoAAAANSUhEUgAAAZAAAAEECAYAAAAGSGKZAAAABGdBTUEAALGPC/xhBQAAACBjSFJNAAB6JgAAgIQAAPoAAACA6AAAdTAAAOpgAAA6mAAAF3CculE8AAAABmJLR0QA/wD/AP+gvaeTAAAACXBIWXMAAAsTAAALEwEAmpwYAAAAB3RJTUUH3AgHBSQjUctXswAAgABJREFUeNrsvXeUHOd1JX67qjrnnu7JETkTIAmSYBBJ0SRIkCApiRJliTq2tUqWbaU9stdra+W1tVqt7V1513vWtuwVtfopMEAScyYIAgQBEkMM8iBPns45h6r+/dF4H6t7ZoBOMxgIdc/BAQlguit+73vv3Xev6o477ihCgQIFChQoqBHc5T4ABQoUKFBwZUIJIAoUKFCgoC4oAUSBAgUKFNQFJYAoUKBAgYK6oAQQBQoUKFBQF5QAokCBAgUK6oISQBQoUKBAQV1QAogCBQoUKKgLSgBRoECBAgV1QQkgChQoUKCgLigBRIECBQoU1AUlgChQoECBgrqgBBAFChQoUFAXlACiQIECBQrqghJAFChQoEBBXVACiAIFChQoqAtKAFGgQIECBXVBCSAKFChQoKAuKAFEgQIFChTUBSWAKFCgQIGCuqAEEAUKFChQUBeUAKJAgQIFCuqCEkAUKFCgQEFdUAKIAgUKFCioC0oAUaBAgQIFdUEJIAoUKFCgoC4oAUSBAgUKFNQFJYAoUKBAgYK6oAQQBQoUKFBQF5QAokCBAgUK6oISQBQoUKBAQV1QAogCBQoUKKgLSgBRoECBAgV1QQkgChQoUKCgLigBRIECBQoU1AUlgChQoECBgrqgBBAFChQoUFAXlACiQIECBQrqghJAFChQoEBBXVACiAIFChQoqAtKAFGgQIECBXVBCSAKFChQoKAuKAFEgQIFChTUBSWAKFCgQIGCuqAEEAUKFChQUBeUAKJAgQIFCuqCEkAUKFCgQEFdUAKIAgUKFCioC0oAUaBAgQIFdUEJIAoUKFCgoC4oAUSBAgUKFNQFJYAoUKBAgYK6oAQQBQoUKFBQF5QAokCBAgUK6oISQBQoUKBAQV0QLvcBKFBwNaBYLM74/2KxCEmSyv5OFEVIkgRRFMHzPDiOgyAI4DgOKpWK/VKgYDFACSAKFMwj8vk8MpkMcrkccrkcCxyFQgEtLS0QBAGSJLF/z3Ecrr32WhSLRahUKhw+fBiiKCIejyOZTEKr1YLjOGg0GvA8D0EQWKBRgouChYYSQBQomCfQwv/xj38c119/PVwuFwRBgCCUXrulS5fCaDSW/YwkSeA4ruwzeJ6Hx+PB1NQUzp49i8HBQQDAiRMnEI/HIYoiYrEYNBoNDAZD2c8rUDCfUN1xxx3Fhj9FgQIFM5BOp7F06VL85V/+JQqFAjiOQ7FYhFarhVqthlqthtFohCRJsNlsdS/8kiTh+PHj+Iu/+AtEIhHwPH+5T13BVQIlA1GgYB5QLBaRTqexdu1acByHZDLJ+h2V/Q9JkqBWq5HP5+F0OrFmzRqWpVQDjuNgNBoxPj4Oi8VyuU9dwVUEJYBcADUy6YWmRqYoiigUCuxXsVgEz/PsF8dxZf8NACqVChzHzdhRXmn1aboO8hp9sVhk14X+nP5Mfo3k50xlG61Wy2r38mv12whJksDzPNatW4d0Os16GnOdL/VFzGZzTcGD8PTTT0MURaV8pWBBcdUEEFrU5CwXeWDI5/PgOA65XA4OhwM6nQ6FQgHr16+H0WiE0+nEpk2b4HK5cP78eQwNDSGbzYLjOESjUQwPD7OXl+d5jI+PQ61WQ6VSged5SJLE2DQUdOj/AbA/p2YocPkWVwqi2WwWLpcL+Xwe2WyWXTuz2Yx169aVBRCTyYRNmzahq6trRgDx+/04cuQIjhw5Aq/Xi8nJSej1egCATqeDRqOBWq0uO/crHblcDj09Pejp6UE+n6/qZ1QqFVwuV83flU6n8eKLL7J+SuX1V6BgvnBVBBBiwkiShFQqheXLlyObzcLhcODaa69FPp/HypUrsX79euRyOQwMDMBkMs35eVu2bMFnP/vZi37n+fPnkUqlwHEc4vE4jh49Co/HwwLKmTNncO7cubJ69ejoKNRqNQRBQD6fZwsr/c7z/IItCDzPY82aNXj00Udx4403wm63N/R5Dz/8MPvvM2fOwOPx4OjRozhw4ADcbje8Xi+0Wi0LLFcyisUiUqkUbrrpJmi1WmSz2Uv+jCRJMJlMF33u5sI777yDqakptLS0IBQKgeM4tgGgZ4eeKzljS4GCRnHVBJB77rkHn/70p5HNZrFu3ToIggC1Wj1v37lkyZKy/7/xxhsv+TPnz5+HWq1GMBjE0aNH2e/RaBQnTpxAoVCAwWCAXq9nAWW+kMvlkE6n8f7772PXrl0QBAFdXV1wuVxYvXo1Ojs76w4qy5cvx/Lly3HbbbexP3vllVfwzW9+ky10VzKoFHXjjTcim83OmAGZ62fa2trq+r7nn38eyWQSy5cvx0c+8hF85CMfgcViweHDhxEMBnHkyBEkEgmcPXsW2WwWuVwOHMexwELXXBAEVn5VoKAaXBUsrFgshkceeQRf/vKX4fV6USgUIIoigA/r/MViEWazmZVleJ6H0WhkL5MgCDAajeB5HsVicd4DUCXcbjc++OADvPXWWzh69CjOnz8Po9EIg8EAjUbT9JdeFEWo1Wq2i87lcqzUl8vlIAgCTCYT1q1bh0cffbQp3/nxj38ck5OTM6itVxqSySTWrVuHP/uzP0M0GmXP2lygZ3Dz5s3Q6XQ1fVc4HMbNN9+Mb33rW/jc5z530Z9PJBLI5XI4deoURkZGEIlEcPToUaTTaRw/fhyCICAUCsFisUCv1ytsLgWXxJW91asSHMfh7NmziMViEEURxWKxrPcAlMoOmUyG/UyxWEQymSxrrqtUKsagoWEu+nuNRsMCDi3qOp2uaS9hR0cHHnjgATzwwAMAgP379+O5557Dzp074fF4YLFY2Pc1ozxBzKGJiQmsXr2aBU2dTseuQT6fx969e3HXXXfB6XQ2/J333nsvfvjDH0Kv11+xu2BJkpBOp7F+/XpGNqjmZ6xWa83BAwDeeOMNfO1rX8MXv/jFS/5bKo9t2bIFW7ZsKfu7bDaLbDaLN954A08++SROnDgBq9W6oJskBVce+P7+/r+63Acx36CgsW3bNjYNXAm5TIScRSVnXNEvan7LKZn5fB7JZBKJRAKhUAg+nw+BQAB+vx+pVAr5fL5siKxRdHd346677sKjjz4Kp9OJYDCI0dFRxnpqNIjQdchms+jq6mLnK/87nueRz+dhsVhmlOzqQWdnJ55++ml2Dlci8vk8dDodPvWpT0Gr1aJQKFT1M11dXTVTcOPxOBKJBD7xiU8AKN/k1Hr/iSW3evVq3HLLLZiamsKJEyfY5LsCBbPhqgkgJpMJ27ZtQz6fr6omfSlcKuDQIk7zAJFIBIFAAJFIBJlMBjqdrimLpFarxcaNG/HII4/AZrPh6NGj8Pv9ZfpJjZxjMpmEyWSCw+GYsZumcx8fH8fNN9/c8PmYzWaMj4/jxIkT0Ol0V1yjl+71DTfcgLvuuovRdy8GKl8tW7as5t2+Vqtl1zydTjNmIZVhK3W2gOpYWWazGbfeeiuGh4cxPj4OjUZzxd0LBQuDqyqA3H///cjlcmVzDfMJeXCh0lKhUEAikUAwGEQqlQLP84zu2yg2bNiAj33sY1CpVDhy5AjS6TQLaPUeP1Bq8HZ3d7NsSw6O45BIJNDe3o7Ozs6Gz0Gj0eBXv/rVFSnJQeyrRx55BO3t7WUl0blQKBTQ2tpa17ULBAIIBoNMZyudTiOTyTDadaFQYPTrfD7P5kSq0czSarUwmUzYsWMHDAaD0g9RMCuuigBCO8M777wTarW6qrr0fEBe+gFKu0bKStRqdVMorDqdDlu2bMHGjRvh8/lw8uTJhphNKpUKiUQCNpsNZrN51iykWCwiGo1WxTS7FPr6+rBnzx4EAgFoNJomXPWFQy6Xg9lsxu/+7u+WDVrOBRoe7O/vr4s4cObMGYTDYRQKBaTTaeTzeaRSKWSzWWQyGWQyGfbf2WwW6XQaJpOp6mAwMDCAI0eOYHJyElqt9nJfXgWLEFdFAAGAaDSKO++8ExaLpaq69HxDXvYqFArw+/3IZDJsWrtRdHV14Xd+53eQTCbx7rvvshmAejIdKrN0dnbOuihyHIdAIIDly5c3PC8ClFhMb7zxBkwm0xVTOqHs44YbbsAdd9yBRCJR1c9wHIcVK1bUnG1Fo1G8//77EEURmUyGBZB0Oo1cLodsNssYc5lMBolEAhaLBVartabviUQieOutt2A0Gq+Ye6Fg4XBl1QjqhHyxXmwvAWUkWq0W0WgUZ86cwfT0dFP6NHq9Hn/xF3+Bv/zLvwTP80y5tdbjEwQBXq8XsVhs1t0rXdd33nmnKdfkd3/3d9Ha2opcLteci7wAoCC7YcMGpFKpqu6fKIpoaWmpqzx0/PhxTE9PIxgMIhQKIRQKwe/3IxwOIxgMIhgMMhJHMBiE2+2ua0hxw4YNjISiQEElrooAApQ3vRcj5Myj6elpnDlzpqpdbDX4vd/7PfzjP/4jOjo66g4ioihiYmJiVoaXSqWCVqvFiRMnEAqFGj5erVaLe++9F4lE4opZuHK5HHp7e7FmzZqqAh/ph9U7PPjss88imUzC7/fD6/XC7/cz5l8wGCwLJn6/H9lsti6hxbVr18JoNF4x90HBwuKqCCC0yyeZh8UMmhBOJBKsxt0MXHfddfirv/ortLe31xxEVCoV1Go1pqenmTxLJQRBQDabxb59+5pyvA8++CAymcyiKDdeCjRDdNNNN8Fms1V1zJIkwWg0wuFw1Px9R48exeDgIAqFApLJJGKxGOLxOGKxWFk24vP54Pf74fF46n7uqZejBBAFs2Fxr6ZNRDqdnqE9tVghz0ZGRkYwOTnZlM/dvHkz/uZv/gZdXV01BxGO45BOp+HxeGalm6pUKuj1ehw4cKApLLcNGzbgpptuqorJdLkhSRJUKhVWr16NbDZb1fmLoliXcCIAvPbaa6zsCZQCGPU6UqkU4vE4UqkUCyzBYLBu4kgqlWoaS1DBbx+uigBCGYh8Av1KAAnfud1uTE1NNeUzr7/+enz3u99FW1sb0ul01T9HWcj4+DgymcycWUg4HMaBAweacqz3338/YrHYgtGu6wUNAvb399dUvqp3ev/1119nMx+zzSHRvRFFkdF76+0n7d+/H+Fw+Ip6bxQsHK6ap0L+ol1JIMmU6enppgWRzZs346tf/SpCoVBVSrEEnucRiUTYoOJsx6rT6ZrWTH/ooYcWfTOd2FfXXXcdNBpN1dIlRqMRZrO55u87fvw4zp8/z5hWc2XUlTNI9T73Bw4cUBhYCubElbWaNgCe5xEMBhdUEr1ZUKlUTQ8iDz74IP7gD/4A4XC4Jr8KQRDg8XjmzOY0Gg0mJiZw7ty5ho9Rr9dj27Zti7qZTsq7t95665wyObP9TL3lq+eeew4ajQb5fJ6RGi4VHMifph4cPnz4t0JiX8H84KoKIOfOnatpx72YIA8izeqJfOtb38Ktt95aUz+E53lMTU0hEAjMSekVBAG7d+9uyjFu3bqVlWsWI3K5HJYvX47e3t6qMiVJksBxHDo6Omr+rnw+jxdeeAEmkwkajQbnz5+Hx+O5pNSIIAgIBAKIx+M1fd8LL7yA48ePX3EDnQoWDldNACGTnSsxAyFQH8Lr9SIYDDb8eQaDAd/61rfQ0dFRdWClWrvP57sopffUqVNNYZBdd9112LJlS039moWC3PecXC4vBUmSYLPZ6trVv/POO4hGo0y+XxRFnDp1Cl6vFwaDYU5XR3LaPHjwYNXfFY1G8X//7/+FxWK5IognCi4PrpoA0kjQIIvXxUBppAV8amoKqVSq4c9bvXo1Pv7xjzNJjGogCAImJiYQCoVmXVyI0tusLOS+++5DIpG4bBI0c6FQKMBoNGL9+vVVs8VEUayLuguUTLfkjoKCICAej2NoaAhHjhxBKBRCsViERqOBXq9nYouCIMBgMODdd9+teuPxox/9CKdPn1bKVwouiqsqgMhVcqsF1frJZIfqz2RKRQ5vJFa3EAGG53kUCgW43e6mfN7nP/95bNmypeoJao7jkM/n4Xa7L0rpPXLkSFOO75FHHkFvb++iKj8Wi0Xmbtnd3V1VH4nYZPUGkL1798JgMLDnl4KIJEk4d+4c9u/fj127duHdd9/F4cOHcf78eUQiERQKBWi1WqTTabzwwguIRCIX/Z6//du/xb/+67/CarUq2YeCi+LKNF2oAxzH4dy5c8zxrtrdbLFYhNFoLPO7KBQKrIRAdWXi4JMGUaFQQLFYnDcPap7nEQ6HMTk5ie7u7oY+SxAEfPKTn8S+ffug0+kuWfOWy5ssXboUPM/PuJ6CIMDn82HPnj1l1rX1Yvv27fiXf/kX6PX6RVGCJCruDTfcAAA1zX4YDIaav2/Pnj3wer0zVHtpYySn7tIEOs2nkFCn2WzG6dOnEQwG8ZnPfAbt7e1ln3Xy5En86Ec/wksvvQSn06kIKCq4JK6qAFJPD4QWCjmIwspx3Jy7yWw2i2g0ilgshnQ6DUmSWPbTDG0hWsQDgQBsNltdOkdyPPDAA9i/fz+ef/552O32S14jovS63W709fXNuEbkzDg0NNS0APJP//RPyOfzi6KpWygUYLVaWfnqUveTyqD1sq9efPHFMovlStD9qpTvJwn+VCrFLG2PHTuGX/7ylxgYGEBfXx8AYGxsDKdPnwYAOJ1OxYlQQVW4qkpYC7lz1Wq1aG1txbJly7B+/Xo4HA68//770Ov1zFu9UVBQbFYp65FHHoEkSVX1QmhneylK79mzZzE8PNzwsQ0MDOCOO+5YFM10efnK5XJVdb3IErilpaXm7/N4PNi5c2ddmQvNggiCAI1GA5PJhJaWFmi1WoyNjWHnzp3YuXMnxsbGYDabYbPZlOChoGpcVQGEFu1aFu9mBZ6enh785Cc/wQ9+8AOcP38edru9Ka57PM8jGo1esq5dDTZu3Ihrrrmm6kWa53l4vV643e45Bws1Gg0GBwcbPjagNLuyGJrpZGFM2Ue15SuHw1HXxuHVV19FNBpt2sJOemsGgwEWiwUWiwUGg6EpVsgKri5cVQEkHA7j5MmTNb/EzRpkE0URe/bswfe//338y7/8C+uvNJKNUGB0u91NWVg/85nPIBaLVfVZxAibnp6+KKX38OHDTcmS7rvvPvT19V32Zno+n4fT6cS6deuqOhYyjqpXumTPnj0wmUxXnIpCM0AlOColk8siaX5FIhGEw2FEo1Ekk0nkcjlWIl6sw6e/TbhqeiBy2mOtGUixWGzKzkyj0cBisSCTyWDHjh3w+/148MEHsWbNmrpk1glkK+v3+2c0RmvFtm3b8D/+x/9AIpGoisJJzXSfzzerEq0gCEilUjh06FBdw3OzHd+//du/XbZmOs1+3H777XA4HIhGo5f8GZIuqaf/EY1GceTIEeh0ugU/14UALfLUIyK6fKFQQKFQYOw2suXt7OyESqWCy+XC8uXLUSgUYLfbIUkShoaGEIvFmOAnbWA0Gg0zVAMao/QrKMdVE0CAxeEJwnEctFotHA4H9u3bB5/Phy9+8YtYvXo1EolEXRPXFByj0WjDAQQoLdI//vGPqyqxESnA6/XC5XLNIAioVCrodDocOHAAd9xxR8NzBffeey9++tOfIpfLXRaWEJWrbrrpppqUd9vb2+t67l544QUkEom6m++XG5UZBAUH+j2fz0OtVjMa/JIlS5DL5dDZ2YkNGzYgm81i/fr1WLVqFXK5HFavXn1JEsX4+DiOHz+O48eP49y5czh9+jQmJiaYnbVOp4Ner4darVZoyg3iqgogPM8zJVnKLBYScp9sQRBgNptx/vx5/OQnP8Fjjz2GdevW1V3j5ziOpfQ2m62h4/zoRz+KH//4xygUCpesu8u9QgYGBmb1nFer1fD7/Th8+DBuuummho5t9erVuO+++/DSSy9dUsJjPkC74L6+vqqVdyVJqts46tVXX4XBYFi05Suae6LMQZ49FAoF5HI5GI1GFigoEPT392PVqlUoFApYv349BgYGIAhCU7LU3t5e9Pb24r777mN/5vF44Pf7cezYMZw+fRonTpzA6OhoXcQEBR/iqgsg586dq2uBLhQKszaKa8GyZctw+PDhsuMxmUw4deoUfvrTn+IP//AP0dvbi2QyWXNwI7ZNKBRqOIBs3LgRa9aswejoaFWNW47jkEwmMTExgZUrV16U0ttoAAFKWciOHTtgNpsbvie1gIyj1q9fD61WW9X0uSRJbAajVhw7dgz79u2rO/g0eq50/PLsQZ45UIBobW1lU/mrVq1CPp/HypUrsWLFCkiShHXr1qGzsxMajaau69AMtLe3o729HevXrwcA/PSnP8U//uM/XpZj+W3CVRdAwuFwzT2QbDaLdDrd8MPf39+PDz74YMYxURDZsWMH/uRP/gQajaauRjHP82zupNFS0TXXXIPh4eGyyeeLXSO1Wg23241ly5YxerEcGo0GR48exfDwMFavXt3QsX3kIx/BNddcg9HR0YbnX2qBKIpQq9XYvHlz1cq7oiiiq6urru/bvXs31Gr1ggfJXC7HDKrS6TQ6OzshSRIcDgeWL1+OXC6HtWvXYs2aNcjn89i4cSNcLtcVUw5KJpP42c9+dsUc72LGVRVA6u2BNKtvQk3CSlAQefPNN9Hf349HH32U1YlrPc5CoYBQKFT3okW4+eab8Ytf/IINX14KZBk8OTmJnp6eGeUdnudhMBhw+PDhhgMIUBos/P73v7+gXhXyhbMav3oq7bS2ttb1fW+//XZd5ydnIMnldWjI8GLPsyiKMJlM+MQnPoE77rgDgiBg6dKlC3J9Fwo///nPMTY2dlkyu982LM7C6jxBbrKz2JgYarUaVqsVb7/9NiYmJupuENOEeKO488470dLSUnVTn+TmPR7PnAZGWq0Wg4OD8Hq9DR/ffffdB61Wu2BmU8S+WrduHQBUFdxp9sNoNNb8fYcOHcLRo0fnZF9RWYkcB8kP3ev1Ympqihl/eTweuFwudHR0IJFIIBwOw+v1IhqNIpPJzCA9UMaUTqfxxhtvYHBwELt27YLX673s9OlmIBaL4emnn4bNZlMykCbgqspAOI5DIBBAKpW6LAFkrgyEoNFoMDY2hmeffRZf+9rXqh5Sk0OlUiGTySCbzTbMUlqyZAmOHj1a9efwPA+fzwePxwOn0znj2InSOzQ0hHvvvbehY3O5XLj33nvx6quvLkgzXRRFaLVarF27tirpEvqZeibPgVL2QW6ClaBJeKvVikQigXXr1iGXy2HJkiVYvnw56zt0dXWhUCgw/ax4PI6RkRHs27cPx44dw6FDhxAKhZDP55l6LxEn4vE40uk0xsbGkMvl8Pzzz6NYLKKvrw/d3d1YsmQJuru7rzh22C9/+UtMTEzUnRUqKMdVFUB4noff70cqlYIgCFWXiGjOotF6+8DAABNZnG3Bo1LW/v378elPfxpGo7FqmXACsctisVjDL/d1112HAwcOwGw2V7VA03d7PB60tbWxc5X/vU6nw/vvv99wAAFKlrfPPvssRFGc9z5BNpvF6tWr2e78UqB7XG8Aeemll+YsXxWLRdjtdjzyyCNYsWIFbr311qo+02w2Y8OGDdiwYQP7nJMnT+LAgQM4ffo0Dhw4gOnpaYiiiEwmA57nmTQ8UAqIbrcb4+Pj2LVrFziOQ0tLC3p7e/H7v//783r9m4FoNIqnn35aURluIq6qAELlq1opkSqVCslksuHv37hx4yX/jVqtRiAQwLvvvovt27cjm83WzMiiMlajAWT9+vU1ZUByld5EIgGdTjejBKZWqxEKhTA0NIRNmzY1dHw333wzVq5cienp6XltpkuShHQ6jU2bNoHn+apnP8gCoFbs2bMHZ86cmVNlmTKQyclJnDlzBjt27IDVakVbWxvWrFmDtWvXVnXvVSoVVq9eXdaTmpychNfrxenTp3Hw4MEyEgV5i+h0OtZnicfjddvlLjSeeuopTE5OKtlHE3FV9UCA+hrpzWqiV5P1EOV1cHCQ2Z/WCpoJaVTapLu7u+YyGsdxSKVSGB8fn9PyVqPRNM1s6jOf+Qyi0WjNpb5aUCgU4HA4cP3119ekvFspvV4tdu7cCZPJdNFdMgVrrVYLi8WCQqGA0dFRPPvss/jrv/5rfOc738FPfvITvPbaa5ienq66V9Td3Y3rrrsO99xzz0WvKW3GeJ6/IsQXQ6EQfvaznynZR5NxVQUQjuOQyWTg9/svy0NUbSah1Wpx5MgRJslQK1QqFSRJatixcNmyZejs7KwpEMkpvYVCYdbrrNVqMT4+jrGxsQavaEmG3ul0zmsznZR329vbqzKOIsZTI/2Pagbc5KQQuTgiSXucOHECL774Iv7u7/4O//AP/1BTkM1kMlWdqyiKTBJ+MePpp5+G1+v9rZWEuVy4qgKISqVCOp2G3++veWe/kFPrgiAgl8thZGQEWq227uynGZa3nZ2dVS0kctA8ysTExJwqvUDJ47tRGI1GbNu2rWmCl5WQJAm5XI7JalRbvrLb7XX1ZXbv3o3x8fG6PU8qA4rNZoNOp0MsFpuXaXZRFBseXJ1vxGIxPPnkk7BarYt2ov9KxVV3NakHUmsJqxk9EJrivdRCR+WJd999t+7SDGVbjaKjo6OueRTyCqFjqfx7nU6H4eFh5ujYCLZu3coUb5sNUt5du3ZtTcq79WYfb731VtP8YoD6+37V4kpQvX3iiScwPT2tOCzOA666AFJvD6QZL8nKlSvR0dFRVVDQarUIBALQaDR1vfzNCnqXoh7PBRos9Hq9sy6GgiAgkUg0pReyefNmXH/99U03myLpkhtuuKHqmRhS3q1nSC0SieDll19W9JmaCJr7UHof84OrLoAQlXch5SEIer1+VpmPuY5zYmKirnIbUNr153K5hpvLBoOhrmY8Bd2xsbFZA7ZKpYJery/TBmsEDz74IFKpVFOb6XLl3Xw+X1P5qp6y465duxCJRJpu2VtPlpDL5X4rFlya+1Cyj/nBVRVAaCE7efIk+/+FRrUvMs/zyOVyZU6KtZ5rPp+vuX9RiU2bNtX1GXTcwWBwTg8WUvF97733GjpGALj77rthtVqb2kzP5/NobW1Ff39/1eWrRqRLnn/++aqUd+UeGtVAkqSaddzGxsbmldm2EIjFYozi/NsQDBcjrqoAApR25ul0uq4HaiFrvVSCGh0drfvh5ziuYfmJzs7OunsLHMchn89jfHx8VsdCjuNgNBpx8ODBhq+X2WxmlrfNuE80a7F+/Xro9fqqsjBJkqDVautqKsfjcQwNDVU1N0L+6tVmFpIkobe3t6bjicVizC9jro3WQvY/stlszX45Tz75pJJ9zDOuygBSTw8kl8s1hdVUbU9BPtVdbwAh/aZGj7feRULeTCcflkpoNBqcPHkSZ86caeg4gZIRVrOa6aIogud5bN68uephTlEU67at3blzJ+LxeFWl1WKxCKvVWjXFm7w6akE0GmUEB41GA61WO+cmoNbgNNc55fN5JJNJRKNR+Hw+uN1ujI6OYmxsDOPj4/B4PFXf2/HxcTzxxBNK9jHPuKom0YEPB93oZah2cWzWMGFbWxump6er+r56GGOVn3G5GTJ0vaenp7FkyZJZvULUajUGBwexfPnyhr5r48aN2LhxI4aHhxsebiNtqWXLllVdvioWi3UrvO7cuRNms7mqfpc8A5kvjI2NYc+ePejo6IDdbofL5YLNZoPFYgHHccwbRJKkql0w/X4//H4/+vr6IEkSMpkMM56SqwbLiS7yKXiLxVL1HMfjjz8Or9dbNxtOQXW46gIImUr5/f7L0gPp6+vDxMTE5b4MCwaiJI+Pj6Ozs3MGiYB8qw8dOoS777677h084bOf/Sy+9rWvNUSFJfbV5s2bYTAYqlI3JukSq9Va8/edOXMG77zzTsMeLs0ECVTm83m43W5MTk6C4zhYrVaYzWa0trbCYrFAq9WWyaYkk0lEIhGcPXsWZ86cgdvtxvHjx1EoFPD+++/juuuuw3/9r/+VyaHIA8Vc2RcFSovFUtWxHz9+HL/61a9YsFMwf7jqAgjt6Hmerzmtb8aOr1I+ez5Bg5OXGxzHIRqNIhAIoLOzc0ajWxAEJJNJDA0N4e67727ou+677z709vYikUjUTYcl46halXfrzT5efPFFpNPpBTXHuhRoUScPEcqwEokEotEoJiYm2KL/ve99D2fOnIHX64XX60U6nQbHcSgWi9BoNBAEARzHQRAEPPzww+jq6kIkEqmJBGCxWKrOKp966in23QrmF1dleK4381gMi3Gt57kYjplKcdPT0ygWi7MOFur1egwODjalf/HAAw801Eyn8lW1U/i0uDocjrq+b8+ePTAajYtutyx/T6ikSvpbWq0WarUahUIBzz33HE6cOIFoNMpmYFpbW9HW1gaHwwGLxQKVSoWbbroJDzzwAFKpVNX3hp6XWrKPF198sWoFaQWNYXE9sQsAuQhcLS9ssxZjonou1Lk2ilqv01wgld5QKDQnpXdqagpDQ0MNf9fWrVuhVqvroh8T8WDLli3QarVVG0fZbLa6SlCjo6M4d+7comQKXUrMkeM4aLVaGI1GmEwm6HQ6qNXqGUSVQqGAWCyGe++9t2YTMEmSYDKZqs4+fvnLXyKXy10RAo+/DbgqA4jf78f4+Phl2fF1d3dXvcteDDIRx44da8rLKGeVzcXmIcvbRrFmzRrceuutNe10CYVCgRlHpdPpqn6+UCjUXb567rnnkMvlLstg68Vw8ODBphwT9ZOuv/563HvvvUgmk/OWfRw9ehTPP/88TCbTosvmfltx1V1lerDmopXOhWalwxs3bqxqV0uWpRqN5rIOdB0/frxpAUQQBExMTMyZhWg0Ghw+fLgplN6HHnqorkn8bDaLzZs3o7+/v6oMRpIkaDSaur1Xdu3aBZPJdMlZC6LiytlPtSzEtQZSr9fblAAiiiJSqRTuu+8+GAyGec0+nnjiCaX3scC46gIIUN8sCICmLOTVSoNIkgS73Y7ly5c37OtRKwqFAnvRm1kOoMFCr9c762fyPA+tVtuULOQjH/kIOjs7axqkJGrphg0bkM/naypf1XON9uzZgyNHjkCr1ZYFCbr+FABJX8tsNsPlcqGtrQ1Go7HqoCCKIjo6Omo6tkbo4wTKPq655hrcddddNWcfQPXMq+HhYTz33HMXDcYKmo/FlTcvEGghqzUDaYZyLFAdm4t2mlqttm45kloWGOLik1qwWq1GNpvF8PBw08orlIVMTU2hr69vhsEWUXoPHDiAO++8syEOv1arxfbt2/Ev//Iv0Ov1VS0qpKJbrfIuXbt6m+dvvvlm2TyHRqOBTqeDwWCAVqtlE/AURLLZLPPpqJaiTJ89MDBQ97WsF5R9bN++HSaTCeFwuOqfrZV59eSTT0KlUinZxwLjqgwgoiji3LlzVVnMEsikaaGQz+excuVKtLe3IxqN1vUZF0vnZxvgovOk5iiAi0pZ1AOe5xGPx+H1etHX1zdjl0+U3kOHDuGuu+5q6Lu2bduGxx9/HLlc7pJNavlu2el0IhaLXfLzJUmCIAh1B7rx8XFs2rQJRqMRQKl8ls/nkcvlEIlEoFKpEIvFyrJlUkWw2WxV3xdJki7LNHYmk8HGjRvxO7/zO/OafdDch8K8WnhcdQFELvJ3OV4qWrRpiGo2kA7TypUrGw5cNFtAEh+kKiuKYtnCRFRbqpdT9uH1eutuEM8GykI8Hg+6u7tnHSzU6/XYt28fbr311obYScuWLcM999yDV199lQ3GzQW58i4F1UuBZj/q2fXu3bsXx48fZ+cnvx/yYDHbcRcKhZoWystBxCgUCojH49i2bRv0ev28Zh9PP/20kn1cJlyVPRC5FWitP9MoVq9eDZvNdtEFilha11xzTdWDbBf7rFwuh1gshlQqxUpUNCBGgUMURcTjcfj9fjYMtnfv3lkZU42C53l4vV643e5Zy2NqtRqBQAAnTpxo+Lu2b9+OdDp9yX5GoVCA0+nEunXrqjLiokBbb/P81VdfRSKRYM+hRqOBWq2GIAhl92a2a18sFmvqgVwOZLNZXHvttXUxr4Dqs48jR47gN7/5jdL7uEy4KgMI7bRrbRRWuzO9GFpaWpBKpRAOh5FIJJDL5VhGQr8ymQy2bNmCtWvXNiRPTi9joVBgsy+0MJF4XSwWg9frhd/vRzQaZT7mOp0Ohw4dqrp/UOv15zgOPp9vTkqvRqPB/v37G/6uW2+9FatXr57R05CzmwqFApLJJNatWwez2Vy1cZRGo6m7/3HmzBkYjcayHkc1i6yc2jqfJdVG5n/y+Tyi0Si2bt1a19xHrdmHwry6fLjqSlhA6eU4e/Ys4vF41YKDKpWK1agbKavwPI+vfOUr8Pl8OH78OGKxGNxud5loXDabxR133AGO4xqazKbZCloIKBvJZrNlMw7yKWNJksBxHE6dOoXh4eF5G3DjeR5utxs+nw82m23GeWq1Wpw8eRLnzp3D0qVLG/qurVu34oc//CHUanXZ/dZoNCgWi2htbYVarcbGjRurnv0QRbFu349nn30WExMTWLp0KZPcDwaDjNhxqY0NlT/nKwMJhUKYnJysKzgWi0WkUik8/PDD+OQnP4lYLDZvcx/Hjh3DCy+8oGQflxFXbQAJh8N1eaM3CkEQ8I1vfKPszzweD86fP49z585heHgYyWQSmzdvrnoxmwvUX0gmk0gmk8hmsyxAyH8R+4pYPlqtFrt370Yikah7h13NsZFQn8vlmqERRiq9Bw8ebDiAbNu2DS+88AIEQYDJZIJWq2VBNZ1Ow2azYfXq1di0aVNVagONKu++/fbbiMVimJiYgMFgQFtbG3p6eiCKIhKJBAKBwIx+iDxDJYrxfAWQeDyOTCbDemW1vCfUY7v77ruRy+VqYhDWmn38/Oc/Z7NSCi4PrsoAUo8v+nyivb0d7e3tuPnmmwGUpLRJ6roRFItFRKNRVuqgLAMovayUjaRSKfai08t45MgRZsE7HyCvEJ/Ph2QyCbVaPSuld9++fbj99tvr3u0DJQXkm2++Ga+++irLvkhptlgsIhQK4dOf/jQAVD2jYzab61LeDQQC2LNnD0wmEwRBQCaTwcjICERRhMlkgtPpRG9vLxMuJGtZg8EAo9EIQRBQKBTmLbADgMPhwNKlS9HS0oJ4PI5oNMqyg4sFE8o+7r77btxyyy01CSbW2vug7OO3mXlVSS5ZjOd51QaQerw25vsG5vN5jI2NzWkBWwvIM4J6H7R7TaVSLNMgNg/1HGiROHv2LE6dOjXvOzuO4xCPxzE+Po5Vq1bNSuktFos4evRow5Te22+/Hb/4xS+Y0i4AFrSMRiNuuOEGRjC4FAqFQt3N87feeguBQAAdHR1snoPneWYQVSgUYDAYYLfbYTabIUkSEokEIzfEYjE2r1JtEKlVfy0YDGJ0dBR6vR52ux12ux0cxyEWiyEYDEKSJPbcyBc2yoy2bt3K5lWqRT2Ku7/NzCvKNHt6ejA6OsrOdbGZY12VAYRehnA4XLVBDfDhMOF89AVCoRBjPzXjIaEdPA1zUf+GFi0qEQElxgw10DUaDd58801kMpmafbQvBbmXt1xeY3JyEkuXLp1R11epVNDpdNizZ0/DAYSa6aOjo2WLTj6fx8DAALq6uqpq9jbKvjpx4gRWr16N9vZ2FthpoY1Go0gkEkgkEjh9+jT7PofDAZvNhtbWVrhcLkxNTbHrU83xCoJQU7ZEsz/BYBDBYBAqlYp5nXR1dUGr1SKZTDKHQHqeUqkUPvrRj+LWW2+tibZba/Zx4sQJ/OY3v7liso/KZ7qaf099ro997GOIRqPYvXs3zpw5M69VgXpwVQYQlUqFSCSCYDCInp6eqn+O53lmranVamEwGNjkcL1mQMTI8ng8ZSWmRs9PFEVEIpEZfQ/KNNLpNDKZDLLZLMtEDAYDpqamcPz48YbYV/IAURksDAYDisUi9Ho9dDodk/FIJBKwWCwzdq1qtRqhUAhDQ0PYtGlTQ9flsccew5//+Z8z6XS5cZRara6q/0GyIvXc76mpKezZswcajQYTExMsI6x04KPgTwE1kUiwZrTT6WQS6dXeC5PJVFPJS36/aA4pGAwyccqOjg709vZi6dKlrMTl9XoRDodx7733znv2cWXNfZQ2CDqdDqlUqkyteDaQAoUgCFCr1YjFYlizZg1aWlrwb//2b02x1W4mrtoAUk8Ji36GBvJisRhbnHmeh1qtZsHEYDCwITBaJDOZDJskTiQSiMfjSCQSAJonm06gYUCe51ndPJPJsMAhb47K50B2796NVCp1UTOm2TIJ+aJDNXvyjaDFVi7bkU6nGfuIrsXNN988o4zEcRz0ej12797dcAC58847YbVakcvloNPpUCgUoNPpsGHDhqp9zwuFQk2bDjlefvlljI+Po62tjV37Sw04Vpo6hcNhpNNp9PX1VRUU6rUPMJvNsNvtzNWPjjOZTKJQKGB4eJjNsZAz4Wc/+1ncfvvtVTk4yo8PqG3uY8eOHVdE9sHzpUqHzd6Cbfdtxd69exEKBpHL5cDxPFQqrowkIYoicrkcVq5cCbPZjHPnziESiSCfz8PhcCwKde5KXJUBBKhvmJBAPyMvNVEpIhwOs7SfXl6y78zlcjOmv5s9qEefTwyadDqNdDrN5k2oPEG0ZOqHcByHM2fOlFF358okeJ5njWQALJvQ6XTQ6/VscI++O51OMzkW6nPIrz+VS/x+PxwOx4zdq0ajwejoKEZGRhrSdLJardi2bRuefvppaLVaNuy2bNmyqkouJF1SqzAh4cUXX4TVaq07y5TTreezjGEymRi1ORaLIZFIsJ3xbH7lfr8f6XSaMQeV7AMAiijk8zh/fhxrNrRgycAAzpw9C4PJgnA0ASntQyKZRVGlhlT80EZg2bJluPPOOyGKIs6cOYNIJIKjR4/C4XAsyoB5VQYQehE9Hg/6+/ub9plzBSTaNSyEaRCVr9xuN6MBy4cHKQOhRZ4W8EAggKGhIRZ85JpYZBpEhkEk8mi1WhGJRDA5OYlkMsl0nCqvify6zNbfIZmViYkJOJ3OGb0QyvDeeeedhkUBH3jgAfzyl79EKpVCKpXCmjVrWHC9FCRJgs1mq2vxGh0dxalTpxoSiFwoHD16FKOjo2hpaSnLUue6d9lsFvfccw9uuOEGllFXg1rnPo4cOXLFzH2IogiDwYC+ldeis38NeF6FdCoNf1KH07F1cOqicNpPQZVzIxiOoaOzD6tWr0WhUMCrr74KQRDQ3t4Op9MJv9+PqampppBrmo2rMoAApebpyMgIbrnllnn/roV62KncQVPuGo2GNdEpcFBwoGtAk9gejwdmsxnt7e2s5CTPUtLpNMLhMBP4KxaL0Ol0cLlcMBgMyGaz7AGnUl8tx02OhclkkpWX5H+v1WqZbWo99FnCtddei/vuuw8jIyMwGAzYsmVLVdIlwIdyJ/Vgz549TBGgUcx3GWN4eJhlW5d6dokKvXXrVjZPVC1qzT6IRbfYsw9JkpDP5bFs8xacfukVrOxzoa2tHe7pKehMLgiqAo77lsKi70S3xYv23kk8vHUd1m/ajLFxN375xBgA4IYbbsDmzZsRj8fxzjvvwGg01mRPsBC4KgNIvT2QxQ5anAKBALLZLGKxGAsa1OfI5/PIZrOsHFEsFjExMYF4PA5BEBAOh+F2u9nCMJfAH1B6UdxuNzQaDTo7O2E2m5HNZjE9PX1RLae5jj2TyWB8fBxr1qyZsRAJgoBoNIp33nkH999/f0PX6aabbsKTTz6Jbdu2wWAwIJlMXvJn6BrWO39x8OBB9PX1IZVKlT17l5o4r/xFpclaDKVqBfVcLnXviARw77331jX3UUv2cfjwYbzwwgvMX32xolgsIpvJwO6wIZfLw+Ew49OPfgwdbS60trYim45hpfEduLQD8KR7cMLXg+GCE8FXsrjVfQJ9tiiSiThWr1mLeDyOoaEhnDp1CqdPn1502QdwlQYQORbzw1jreajVapw7dw6nT5+GRqNhk+gUNCgoUGNdFEUMDw/j/Pnz7N/L6+yXuja0ABYKBUaP7ezsRH9/PzKZDLxeb9WBmo7f7XZjxYoVc6r0Dg0NNRxA7r77btjtdqxatQpAdUZhpLxbTxly//792L17NzuvYrEIr9fLek8U+OVBgq4X7dCpz0R/7nK56vaJaRYog61n7kMURTb7Ug2eeuop8Dy/6LOPXC4HvV6PRx99DBmYcO89d2LViqWIJ1Lo6OxCLGpCPpdGS34avflJeExtmEj04LS3G1OvTuBTdwi49tprIag18Hg8+OCDDzAxMQGtVjsvwqaN4qoNIDzPI5FIsJ3WYmM31ApBEJBOpzE1NQWe59nMB7nayaVLqDl67tw5jI+Pl+ll1Qp5hkKBRK1Wo729HT09Pchms/D5fLMGEjmbiwQFg8EgJiYm0NvbO2NhV6vV8Hg8ePfdd9nUfj2w2+343Oc+h/Xr11dVEqDjq3f247XXXkM6ncbExARUKhVaWlrQ3t4OtVrNSBdarZZRwq1WK8sYJUlCNBpFMplEJBJBIpGAIAhN693NdU/JL2auTImyj9/5nd/BzTffjGAwWPXnkxCl3W6v6t8fP34cO3bsgNVqLaMXL0ZkMhls3/4AbtpyA/z+EPp62hGLJ2AyldwkJyYmSvfZ3ApNPgOe86HLFECBG0E0NIlstAdqSwvOnz6F6Wk3MpkMo50vRlzVAeTcuXNV178XM2hnduDAAYyMjDDKJ734FCRJKnxiYgLnz59HNBot04VqBPJAIooi2zU5nU50d3cjlUrB7/fPKIep1eoyFz61Ws3uSWUWwnEcjEYjDh8+3FAAAUozIZOTk1UPD6rV6rrLV2+88QYjINBmJZfLwWg0YuXKlez6e71e+Hw+RCIRJJPJWedD6N/KvVsudey1bo6sVisGBgbgcDjg8XhmFXmkbHbbtm1Ip9M19z7MZnPVz93OnTuxdu1aaLVaBAIBNjuz2MrQRAZZv34DThw7BrfHjUx6BeLxBEwmE5Pt+bA8qILR4gTPcchmMwiLBYyMebB8lQsnT56FTqdmz8xixVUdQDKZzBWfgfA8D71ej2PHjmFoaAhGo7FsoaHAIQgC/H4/JicnMT4+XsbtbwZmmw1JpVIYGRlBS0sLWltb0dbWxsQdqVFPvQ+aqyFtLqvVivb29hkLvEajwcmTJ3Hy5ElWgqoHXV1dCIVCiEQil6TVUvmqnmt19uxZRs9UqVRMhysej+Ps2bNsPsdut8PhcDD5EmKGVS6S1bDF5JAkqebAFwwG4Xa7WfAnOZVgMMjuczwexx133IGbbrqpKvdG+fGo1eqamFf/9E//hJaWFvYc6XQ6ZDKZMuHJxRJMDAZDiclYLGJgYAlWrVqNeDzOMssDBw7gzTffhM1mA8dxyOXybIPS1d2Lhx56EPFkGjtffxE8r7vs53MpXLUBBFi8aXC1IN+OU6dOYWhoCAaDgc1o0EAelV9GR0cxPT1dppFVz/nPNTxYLBZZGYZq9lqtFhqNhh1POp1mTdBIJILp6WkAKCuT0DFNTEygvb19VkovqfQ2EkAAoK2tjTlTXkwgUBTFuum3zzzzDPx+P3K5HJv4r8woDAYD0uk0Jicn2ZzJwMAAisUiYrEYy9zqyRTrCSCCIDBdNhJ5tNvt6O/vZyw/vV6PBx98kJ1XLcdjt9urfvZ27NjBav+hUAiBQACCIDAGoNVqZczAi+l0LQRImNPr9WLr1q0wm81sCp3jOFitVixZsgSZTAavvfYaVq9ejampKWi1WqTTafT09GD79gfx3//+78uGDBczrtoAQi8jLaYL6XfeDMiDx4EDB5jEAZU+Ojo6cO211+KDDz7Ajh072GBYpZVtJeSLtTwAUUmMFjz6fio9GQwGpFIpJJNJNmkfDAYZ40v+2TqdDna7He3t7UgkEkin02UvvCAICAaDiMfjMBqNc1J6Q6FQQ6q0LS0t0Ov1TB9sNkiSxFRy68Frr73GZEkuVo6gsqMkSZiYmGDXqbW1FUuXLoUkSfB4PKwHIm+0Xwz1TKKPjY1BEASm/ksKC+SaWCgU8PDDD+OWW25BOByuOnuvJ/t4/vnnYTKZ2P2h9zaVSjGRQZPJBJPJhIGBASZ9E4/Ha2K8NQOSJKGtrQ1btmyB1WpFMplk156+X6fT4fd///dZxhkKhTA+Po4PPvgADz74IIaHh/Hsc88tyMxYM3BVB5Dz589jZGSk6mbeYgD1NLRaLU6dOoU9e/aw+YulS5di48aNWLlyJfOquO222+DxeDA4OIi2tjao1WqmwzSb1wRlKADKBgiNRiNbtMg7hKRI4vF4mQBc5Q67cmJfFEX4fD44HA42OEiSJvSy53I5TExMYN26dTO8L4jS+9577+G+++6r+1ryPI/W1laMjY3NGUBEUWxIeXd0dJRlUtXcW7pm1CcZHx9n4o0dHR2MxjufJddoNIqVK1eyuYNMJgOPx8N8QtLpNB577DFmkVwtas0+nnzyyRlzH/SzdL+KxSKSySTi8TgAsOe1vb0dOp2OZSbyvtp8lbrIarizs5Mx1OR/R4O8Go0GDz30ECKRCCYmJnD33Xejvb0dBw4cwNDQEDweT0P2BQuJqyKAzFafJ9ZPrUNvlxNEr83lcti7dy8OHToEq9WKrVu34tprr0VXV9eMn9FqtfjBD36A73znO/jNb36DNWvWMAoozX6YzWbWzJbvfEiWgrIJ0tCqDBLVzAwQ5D9HDKSWlhY4nU64XC4Eg0HEYjHwPI+xsTH09fVBp9PN8ArR6/U4fPgw7rnnnob48a2trZiYmGDPghz0rDTiPFgvw60ymJDUC9no0p/PByKRCM6ePcsmvuWZoSRJePDBB3HHHXfUpHlF2Ue1Q6CHDx9m2celtMLk1ymVSiGRSMDj8TBNupaWFthsNsZkC4VCZazEaoM7Ya7rzvM8E5bs6uqaVV9NLmlkt9uZnt4999wDn8/Heijvvfce7HY7y14XK35rAkhlPb7yF9Xn9Xo91OoSuyEajcJkMl3uQ68ahUIBJ0+eRCAQgMFgwDe+8Q0sX778kj+n1Wrx7W9/G/F4HKOjo+js7ERbWxubQCdjqUAgwBR652IANWuYiQIPx3EskDgcDlitVlitVkSjUfh8Pni9XixdunRG81itVmN6ehqDg4O48cYb6z4Oo9EIm82GaDQ6Y6En5d2LCUvOhVQqhffee48tCM26Vvl8Hn6/vyn3YC6k02n2jshBlPB77rmnLsXdWjL9X/7yl3NqXs1WZpVvDC0WCzQaDQvearWa/b3NZkN7ezsjbVysb8LzPNLpNFOm9vv9bC6nckZJPlf1ox/9CN/5znfYfavsF9Jxi6KIJUuWIJVK4fXXX8ftt9+OLVu24NFHH8XTTz+NH/3oRygUCtDr9YtyiBC4ggLIxR4aGo6jB0QURSbuR/V5GqQjcT9icCSTyZrr6LXq+zdyzsTIAUqBYN26dVi2bFnNgnwulwvf/va38V/+y3/B4OAgDAYDXC4Xe0Hdbjej+TaTnXUpyBdH2h1aLBbY7XYYjUb4/X50dXXN2HGTSu/BgwcbCiBAKQsJBAIzMqlCoYDe3t66PvONN95AJBJpWilitl3vfLEHLzb3sXXrVtx8880IhUJVf16tvQ9yGyTChXwCP5fLldRsLyz2BoOB6ZMRswkAm50ht035BoT6dw6HAwMDA+B5HpFIBNFolA138jyPVCqF6elp9Pf3g+M4TE1NIRaLlemxUW/L7/djeHgYhUIBbW1trLcnSRJSqRTLJqjfR/2wYDCI5557DkNDQ3C5XGzN+uIXvwiXy4Wf//znGBsbY434xZaNLLoAcrEsgnYSlE1QE5dSa/KZyOfzzJ+AdkqzyXJEo1GcO3eupho3DUGRiFzl7qWZ5TCVSgWn0wmz2cwsUBvBkiVL8Pu///sYGhpifiHFYhFdXV3M26Eer/hmnSsFkkQigWg0CrPZzMpX1LyVo1mU3ra2NoyNjZU106mkVW/z/PXXXy+bHK8F9A7QMy1//rVaLaP6LuQ9onfo3nvvrWvuo5bexxNPPIFCocDIGGSD0NraioGBAWzcuBGtra1IJBLYu3cv/H4/G0LN5/MzsonZ+nDZbJYZc5G/S3d3N7RaLSKRCHN+NBqNSKfTsNvtcDqdCAaD0Gg0iEQibFGPx+M4duwY8vk8HnroIXz7299GKpWCKIqIxWKMRi9nR9IYgSRJeOCBB/DpT3+aZVwcx8Hv96O7uxtbtmyBRqOB2+1m9gyLKRu5LAHkUn4SdBEdDgdbVMiIiOO4MoE/4qDT7xqNhu1cqJY+lwQAMTZquSFk6tPa2opCocBUXROJBFOkBT50dWvkJac02WazNe3a33bbbfjmN7+Jv/mbv4HL5YIgCJiamoLBYGAlpPHxcdbrmM/+0Fxy8WS6Q4vA5OQkli9fPiel99ChQw0FEArUExMTZQHE4XDUVb4KBoPYv39/VaZclUw3Oh5iQTmdTmYJAIBtiOazBzLbMaZSKdx5553YsmVLTW6DtWYfu3btwuOPP4729nYsW7YMq1evxrXXXotVq1axWRo5Pv/5z2Pv3r145ZVXsH//fgQCAZjNZuj1eraOVKKyb5JOp5FMJlkPgthv+Xwera2tMBqNGBkZYZayJpOJ6aepVCpMT08jn89DEARks1l897vfZe6RXV1d6OnpYWxCnU7HgrGcTk8bFirNPvXUU9i3bx/sdjuWL1+OQqEAs9mMQ4cOLarJ9HkNIHMtEOSSRrQ2kgynhQMAG7jKZrMIh8Pwer1MdmI2TwIqxRSLRcTjcbS2tqKzsxMej2fO46vHE4S4+a2trRAEARaLpezlSKVSbAcTi8Uu6UB2MahUKvh8PuRyOcbBbwY+97nPYWRkBE8++SQL0plMBhMTE+jq6mJlF7fbXXad5uM5MJvNLKOk5wAAM+3KZrOYnJyEy+WCzWYrq7sTpXdoaAi333573T4dANDR0QG3281eZPIdrwevvfYaIpEIG5ysbMDKMwsy39LpdMxfhZ5lYjwRVZYyXrVajTVr1lR1T4gs0ghoV3///fczB8tqIUkSWlpaqn5+uru78cwzz2DTpk1VZdwWiwX33Xcf7rvvPqTTabz99tvYtWsX9uzZg6mpKZhMJhZMZnuOZ2O+kcVzKpVCZ2cnBgYGoNfr0dbWhvHxcdjtdng8nrJNltFoxLZt23DbbbdhcHAQIyMjLNBrtVoWTB544AEYDAZkMpkZPaZisYhz587h5z//OXbv3g2n04muri4sWbIEhUIBt912G6anp2u24p5PNBRALpZJ0I0xm82MdkqRk0pRoiiyOmUsFmNBgx5YusG0AFcz1k/RfHp6mu0C/H7/rEwhemjo86vZ0ZFUx1wwGAwwGAzo7OxktrnhcLguEyDaiUYiEYyMjDDf8Gbgy1/+MoaHh3Hq1CnmOgeUgoZKpUJvby/6+voQCoUYvfZSxz/XcyDfMOj1epYh0v0k06JIJIJcLseCBD1D+XweExMTzFSnktKbSqUwNDTUUAChDCwQCABAQ8q7H3zwAXOVI/kKeu6NRmOZDhRpXqXTaUQiEcTjcVbvryzFUBmPMqNqLHhFUay5jyMvk1D28dGPfpQp7lYLSZKg1WprIqosW7asrmsOlIzN7r33Xtx7771IJBJ4++238fbbb+Pdd99FKBSCXq+/qKd4ZYCxWq2wWCwIh8NMuaBQKMBgMKCnp4f1Unt7e2GxWLB9+3aYTCYcPHiQLfAkce92u+H1erFt2zao1Wq2xmUyGWY4l81mMTQ0hH379uG+++7DHXfcgf7+fuj1etx1111ob2/H+++/j1//+tdXTgC5WJCgqWdagIjlpNPp2DQrlXmI5UN8bVqEZ5tCblT/hT7T5/Ohvb2dBZHKRZDnebZTmA/YbDbYbDZMT0/D6/UyR8BaIA8iHo+noUVSjra2NvzxH/8xvvSlLyGTyZS9WDS5bjabYbPZ4HQ6y8patIjP9jzQ0BlZ2RKbhwgM2WwWfr+/7DmYbaGU338qEyxZsgQGg2HGYKFOp8PQ0BC2bdvW0DVpb2+Hz+dDsVisW3n3xIkTePHFF+FyueBwOLBu3TpotVrkcjn4/X6IosgEJuean7kY261YLLLp/mo2PKIozkrvngvBYBAHDx5kvR8qzdx3332MiFItaAjzcjR+TSYT7r//ftx///1Ip9PYv38//vN//s9MHqYaZLNZNpibTqfZMO7JkyeRzWbhcDjQ1dUFtVqNyclJqFQchoeHy+4LvRP5fJ4ReuT9XLpHVKZ/5JFHcM011zBfdIvFwjJIURSxfv16PPnkkwt+PeeCAFy6J0GCe+R9TCkbPcQOhwOjo6PIZrNIJBJMO+diYnDz3Qii7/J4PGhra0N7ezsrZ8mPwe1213Qs9ZRzyCtjfHwcmUymZllmWlQnJibAcRwbEmwUt9xyC77xjW/g7//+76FWq1nJgBZzygo6OzvhcrkgiiLrlxCPnQKPXq9n0vGUWRIThRZ8+TNQy3NAelkejwfLly+fMUhHKr1Hjx7F+vXr674edrsdJpMJkUik7vLV8PAwli5dyiaRQ6EQBEGAXq9nDVSfz8fOvZYZGkItvY9aJ9F5nofNZmMN30Qiga1bt2LLli01a16Ra+Xlhl6vx5133om///u/rymDEgQBPp8POp0OuVwOHq8HhXyBbaB8Ph/cbjeT7Onv78P09BR7vuWzRZSJyGm9tPmhMiP5zff29iKVSkEQBBQKBbbZJpfDWkqI8w2BKKJGoxEA2M6R6tFUwyWpjHw+j0gkApVKxUb1e3t7kc/nGRVyoamgc4EWQq/XC5fLxYLIbHXQWlCNgmslzGYzli1bhqmpKVbSqjWIEBvDYDCwenmj+PznP49du3bh+PHj7DPlGwij0Yh4PM4UWpcvX8520FQ+ikaj7BmZbdPQaEYpD6BdXV3MaZFAAWzPnj0NBRCVSgWXy4VYLFZ3+erZZ5/FxMQEe0cI5ODY0dGB7u5uaDQa+P3+svLg5X5f6FrS4B0xoO6+++66NK8W24wVlcirBZVcg8EgQr4QHC0OWBwWWC2lOaV8Ps+m9XO5HCKRCCRJmiG7QiVJ6nVRL1dOmqCAQ2sLvTNyKRT6mcXSQAcAgWYK6GDJ/vRiPQk6YaKzut1utLe3o7Ozk+2uFsPLIL9BHo8HLS0tsNvtTJzOZDLBbDaXlWUuBZLZkEuBVAutVove3l5wHMd2prWA6uVTU1NYunRp1WY8FwPP8/j617+OP/7jP4ZGo4HZbGa7RiIAED/+0KFD7LoBwMjICCu3UKo+X/ed53nE43EEg0H09PTM6ENpNBqcO3cOU1NTNZVsKtHS0lK39/TY2BhOnDgBk8k0a4M0n89jdHQUQGn2hJ7HaDSKWCw2L1TwWlEoFHDmzBk4HA6YTCY89thjLPuYL82rhcDZs2cxNjZW07NB2VssFsP49Dh0Jh3adCU5IKfTCZ7nYbVawfM8RFHEyy+/jHA4XFadoedArVajq6urLOOg7yBQWUtOsqhcl44dO7a4aLwjIyMAPuxJzDaRebGFgf7c7Xajo6MDGo2mLODMNy7VowHA5gl4nseSJUsAlGxfieFCsw/VpvqNsJIEQUB3dzcSiQTbTdQi0c1xHJLJJMbHx7FkyZKmXOcbbrgBX/va1/DjH/8YxWIRgUCAHd9sdN5UKoXe3l4sX74c6XQaHo+nroBaC6gXND09jc7Ozhn3i+71O++8g0cffbTu7yFRvnrw1FNPIZVKsWy+8vjlbB+aXXA4HExVNpfLIRAIXNTIaSHQ3d0Nm80GrVbLegjzOfexEKBZjIuJiMop1UDpXbPZbOjr64Pf72cbKQoKgUAAVqsVbW1tzMvFZDKxYUfqH9EadeDAATzzzDN46KGHWCAhm+lCocACB8/zrNxFx0aVoDNnzjQ8D9bU69qMngS9FPl8Hk6nE5OTk+zPm4XZhqvoz+mG2u12JiduNBoZswH4cDL14MGDrJE1NTXFjnshWQ0kR33o0CFs3LgR6XS66t0dLaShUAgmk6lp/ZDt27fj6aefxtjYGCNF0HDfbMdA/ZjW1lb09PQwt7z51BbjeR5erxderxcdHR1lpUSqJx86dAjbt2+va36DMFsAqAY7d+6syihptul7vV4Pl8uFzs5OFItFRhNd6EBCG8CxsTF85jOfQXt7e12aV4sp+wDKXS/pWlbu9DmOYwoIpC5N4wXt7e2Ix+NMH46qCR/96EexatUq/PSn/x9SqXE4HA7md0OlfLVajUgkApPJhJdffhn79u1DV1cXBgYG0N7eDpvNht7eXrYOkNdJS0vLhxYAALLZXNmow2KA0KwHk+M4BINBdHR0oLe3l9l31tMgnKuZT81baubT5DnwYV+CBNN8Pt+sjXygtIOmha/Enqj+OOXlrkauXS6Xw69+9SvceOONTKKhliBCjWOj0diUWrPVasXXvvY1/OEf/mGZfPZskDcJPR4PrFYrHA4HLBYL8xyZj1IMfa/H40FXV9eslN5IJIJ33nkH99xzT1O/+1IYGhrC2bNna2LJyQMJqQ8DJdJFT08PJElicjsLJfpZKBQwPT2Nnp4ebNu2jU1LV4ta5z4WCjzPo6enB1qtlk2Tm81mJiRKsxlAabMpv+6k2tzf3w+bzca8bGjQcffu3fiHf/ghgBKTr1AowOVyQa1Ws+qHSqXC17/+dZw/P4LBwYMYHR3FoUOHkM1mYTQa8Rd/8Rew2+0z1AdKE+wixienodeHwakWT/kKaOIgIS0YVGIggbrZFiJ59iCnI9JFs1gszGmPWD6UflLjnspPNGw4V49mtgeZpALsdjs6OjpqnujN5XJIJpMNLdwGg4GZyvzBH/wBYzBVCxp2m56exooVK5pyD++66y7ce++9ePvtt8t0hS52DDTHEYlE0N7eju7ubgBgi2Ezds/y5wMApqam0N3dzXZoBNJGGhoaWvAA8uabb9ZtDyx/ZiVJgtvtZjLyTqcTTqeTabfNt5Q7Ue63bduG/v7+uqbOF1vzHAAGBwchSRLWr1+PfD4PvV6PUCiE6elphEIhFijlhAZ56V6tViOXyyEajTIzqy9+8YvYuHEj/uzP/gxAibZPnzM+Pl6m3/WpT30K1113HXK5HAb6l+DlV14AoGJ0dlLdJZq20+kEzwkIRsIYHxmDNxjAujWroeJQljVdbjS1mEYvTzgchsvlKnv4ZutNkGomMb6oGVssFpFIJJDNZpk5DIBZpcTrYfnQzi8YDDIdrFpefJVK1TCVThAEmEwm7NixA8uWLcPNN98MURRrplySfHSzSllf+cpX8O677yKXy1VV1pPvon0+H1QqFXp6etDW1sZS/mrLMJUbCXlNmCQkSGWVatGzUXrHx8fx/vvv44YbbmjKNakGb7/9NrMTbgRyz3Ny4DMYDGhtbYXZbGYbqGqeE+ph1fJMHThwgM1QkJ5TtViMvQ8CncuxY8eQSqVgMBhgsVhgMplgNBoRi8XYXA4w+8ZHpSot+NFoFMuWLcOaNauRTCYxODhYNkcl3/BSP+Qb3/gGOjo64PP5kM6kEY8nGINryZIlaGlpYUxX+oyhw4ex//0DUAsCli9biu7OLuj1JcWG2eboLgcaDiCzZROJRAJarRatra0IBoNMm4YkK+SNqnA4jGg0CuBDPSv5YFWtMwPVgha+4eFhnDx5subFptEbJkkS2tvbYbfbsX//fqxfv555PddTyqIXoVGsWbMGn/70p/HjH/8YarW66mtO11OSJIyNjTEXP0mS2BClnKp6KcFAmmCWM1oo8wsEApiammJlgkpKr9FoxOHDhxcsgLz++us4c+bMvCnvkrteadagnzEHq/kci8VSEylgamoK999/P1asWFGTbPximvuYDdFolLEvASCRSCAWi0GlUjFjM6Juk2zSbD0orVaLQCCA6667DkajCW+9tQuhUGjW86YebGdnJ6677jrE43GsWLECH3wwxGY8stks2wDTO0Bls0wmDa1WA5PRAI7DBXHGOHp7e2E2m9mcViqVYtlTZbl+vlF1ALlYb4JSd5IspkWns7MT6XQabrcb+XwewWCQDZkBMzWtap2NaBQktAjUnoE047tpUpt2fV/5yldYylstqJTl8XiwdOnSplyXL33pS3j55ZeRSCRqbkbTQ5xKpRCPx9HR0cFqu16vd4Z+mdlshsPhYBIRAJgeUTKZRDgcZhRXuvZUtpyYmGCDhXKQSu/58+cZ624+8fzzzzNl1lox13ul0WiYFzm9X3JdrGqCldwDo1q0tbVh5cqViMViNWcfzZpNmg/QoKx8Q0TVDvKjoetKzp3ZbBZer5epAcvvL0nRvP/+fvZnFHCIVEQZyJ133gmNRsNIO+Pjo4z4Q4OblX4hAKBSAcuWDECjUSObLSCZimN4eBjxeJyNIJCjJxnEJRKJGSy++VxTywLIbNmE/M/kKpf0UNMCTOmXPBU8deoUurq6mDxELZpWC4V6uPfUi2lkt9XV1cUmXTmOw7PPPovu7m5s376dUfqqBc/zbBdUr/y4HBaLBZ/61Kfwwx/+sGxDcCnM9vxMTk6y2rPT6YQgCIjFYqzmS6rKcsHAyo3FbL0sGqpctmzZnJTewcHBeQ8guVwOBw4cqMo4aq73i2xYDQYDy8AAMH2sVCrFXOwymUxNz12t9XLyViH2YjWg7GOxMa/kIEZVJShzpmBCzo9AyUOntbWVzciFw2FEIhHo9Xqm/iwXHJVfD/nzeN1117F/EwwGEQwGYbfbkUwmIYoi2traZlBzRVGEWqPFwEA/otE4YrEEG0UgV1Kfz4dUKgW1Wo2BgQEMDAwgFAoxbUFic82nL7xA8gr0kFVqGWk0GjYwyHEcE76jHaZ80HCuF7+jowPT09OXfUhqNvA8j+npaZb9VDtMSFlUI6AbS+WaV155BVu2bIHJZKq5lCUIArxeL+srNYpPfOITePrppxGNRmet7c+VjfI8P0MwECixe4jbnsvlMD09jUwmUybnUcvmgud5hMNh1lCvpPRqtVocP34csVhsXhe2t99+m5leVV4f4MMSHdFH6f0iUUli2lC/iOZA5L4WcgMiURTntc9gs9mY+Gi1WIxT56FQCO+++y7effddHD9+HGNjY5fMpmcLJpIkQRAEtLW1obOzk90zEqg8duz4DMUB+izC9ddfz3TEJicnmbCqPNusJBOJYhFmg5FJmrhcDrz11lvI5XJwuVyw2+3MrTAajeL06dNMKZk07FwuF9Ofi0QiLJOSz/o1CqGtrY31J8gyk/w2aFyf6G2VwneEuV56juMYZ78Rau98gYLiyZMna9rxN+sc5A+bVqvF6Ogonn32WXzxi19ki0i1IPtNolI3CqfTia9+9av4j//xP0Kj0ZSZdlFjmyTY9Xo9TCYTywTy+TySyST8fj/ra1E5pFgsorOzEx0dHaz0Vk+qTUHT4/Ggv7+feSwQiNL73nvv4e677274esyF119/nQkGUkOfFp1isQir1QqdTger1creL5olmJqaKvOZv5igJKEyYDcb1Yo0yv/95c4+isUiRkZGsGvXLuzbtw8nTpxgpRzSIZMrTlcDOTmkWCwyerooihgYGIDRaEQikcDQ0BCbRJdT/OXzJlarlTG/IpEImzjX6XTM84V+njSxjAYDEqkULGoLrCYDHv/JTzE6eh7d3d1Ip9NMBkduaEfBL5vNwu12s41xS0sLent7mctiMBhkw6GNlrqEfD6PRCIBAKyp1CwBRLmgocvlgsViYbMZC/2A0e+VpTm5qcvlBM/zMJvNeOaZZ7B69WrceOONTHyvWsizkGY01D/+8Y/jN7/5DU6ePMkWQqJWE0UxnU6zjKLy+ZmNACFJEmNrUb2ZZNxrvQ90vl6vFw6Hoyzgkrrp4cOH5y2ApFIp7Nq1i2Wv1M+hF5mYeuFwGJOTk2W9HHnpdDFJU9QKUuNeyPcnmUzi2LFj2L17N4aGhnD69GlWQqdNjXwYtlEdNrmCQD6fRz6fZwQT6mWQJzr1TorFIhNGXLNmDZMuoqoNbYDUajVcLleZ5pUoihA0GqxbtwaTExP4m+99D88//zzWrl3Lqjr0bs016CvPcHw+H7xeL4CSVA8ZyVH5OBKJzOrkWA0EotrOVWtuFLQrjUQicLlcjHE1X6WsuZqSNJluNpvLhCPJE70er45GIYpiWaOSpM9ff/11bNy4ERqNpqZaNDXUvV5v02r/X/nKV/DXf/3XMJvNKBZLZlper5fppF2qVzHbMQJgQ4gtLS1obW1lDctaelK025uYmGDNxEpK79jYGAYHB3H99dc35XrIMTQ0BLPZzGZfCoUCa2RSCbKauaTFhFqOb6HmPhKJBA4cOIBXX30V58+fx+nTpxGPx9lmhryG5ru6QZ+fSqXYcxcOh7F27Vqo1Wo2O0WlVTKDkyQJmUwGuVyOlZEoUy8Wi6z3Jc9iWl0uHDhwAH/7t3+LF154Ae3t7UzavZbStvxdqiQMmM1mJqMjV9AmUdRqgomwELsfeZ+knunvSsw1L0AnbTKZGBWUmsCCIDA7UBp8oyE4Kt8tdA9k7dq12Lt3b9nn6nQ67Nu3D6+++ioeeeSRMjnnakC9gUgk0hQr3FtuuQUtLS04fvw422k2gwhB15tmHdrb2zEwMIBcLse8qi/1jNAujkybdDpd2XwOqfQODQ3NSwB56aWXYLFYkMlkGFmAso+FZhQ2C7TAVYP5mjo/e/YsDh06hF27duH06dPI5XLMTlYUReh0OqaWsNAlcZVKxVwOz549C7vdjra2NqTTaaTTaQwODqKlpYX1S+LxONRqNTKZDJOEkZuIORwOJglPMjijo6P4m7/5G/zqV79CIpGAw+FgmU4jpcvKHk8qlcLo6Chj0NntdlgsFtbGoL4JHfNsFYIFUeWimzwxMYHu7m60tbXB5/NdMnW/2GAZACZDIGew0I0hBoLf72ceFXQs8guh1WoxNjaGYDBYk5xJLYv6XOjv78fbb79dfkMEAWazGS+99BLWr1+Pnp6esgGjao6N4zi43e6meal/+tOfxje+8Q2mENAszDaE2NXVhc7OToRCIWSz2UtKeJBXyPj4ONasWTNjwFOj0eD48eM4e/ZsQ253lfD5fHjppZegVquZeyPHcZicnJwx83IlgeSBqEQ514JVj9vgXJ9z5MgRvPvuu3j77bfh9XoxNTXFgj9tAPP5PNsxt7W1QRRFNh5QT+mlXpB+WSaTQXd3N9auXVvqWRiNGB8fRzabxfT0NLLZLNavX89k8CmItLW1MQ8ikrD5D//hP+DMmTNlvUav1wur1Qq73c4a7c3se9G7R/ecfOHpu+x2OwYGBsBxHBKJBILB4KzzJgsm60iLwPT0NNrb21kaR7U6YOZQGQDWBKM01Ww2MwVLoFQPjcfjTMxPrlMlT+HmWvjkype1NtIbxVwTxVqtFm63G7t27cJXvvKVmr0Y5De9XmMkOR588EH86le/wrFjx6oeYqsF8iHEiYkJ2Gw2tLW1sU3HxRZkyobcbjdWrFgxK6WX53kcOnSoqQHkueeeQyaTYba1RA7o7OwEUJJ2p0XicgUSavrW4sL3yiuvoLe3Fxs2bGC04dl6cbRrrfXcgsEgPvjgA+zfvx+nTp3CuXPn4Pf7WX9No9Ggo6NjxnWjRW58fBwqlYqxooiF5Pf7WVN4Pq85z/Pw+/14/PHHcdttt0MQBPj9flit1hkkDqvVCqvVyp7RTCaDvr4+uN1u5uBKlrmBQIBlViXWlYvds0KhwCi8jfrbz4bKPo8oivD5fIzg4nQ60dbWxjZr5AFUKBQWLoDQgdJEcUtLC/PfJg0jlaoklEhKlsSNJlYY6QHN5XZYb9mAfmax7Bhpmvq1117D+vXrcd111zF59WrPRxAEBAKBpgQQAPjkJz+J/fv3w2AwzJucNL340WiU+VBTg5Ey1tl2mTzPIxaLYXJyEn19fWV9IyoLHjx4ELfffjuTrmkUr7/+OoxGYxk5gDSsenp60NvbW3Kx83jYcS80hV2SJGa5Wi3efPNNJJNJrFu3Dh/5yEewfv16mM1mNotCm55qmVcnT57EsWPHsG/fPoyMjGB0dBTRaJSZK2k0GnR3d1elYEzXUK5uYDQaYbfb0dfXh0KhwJ6d+brmtBl97rnnmHQ7ldXoWodCIabeS8ej1+sRj8eh0WgYYSSVSjHNQAqec8kHzSfzbq7rTN9LZWYiirS0tLCAOW8BpLKJTdmFRqNBIpHAkiVL0NvbyywjyeeCGu7EDKMBqlqbtbVcsEoHsWp/rh6Pczkqud/0O1Hz4vE4XnvtNdxwww3MY75a0MxOs3SyHnjgATz11FPMuXC+gi3dD5VKxVL97u5u9PX1IRQKlQ1GyZ8tlUqF8+fPs+y2cjcYjUabJrIYDAZx6tSpsvKNfFKe6JPt7e2MYjw1NdW0Ra3aUg01uWsBGSWNjIzg1KlTcDgc2LBhA7Zu3crmClKpVNmMD6FYLOLAgQM4ceIEdu/ejampKZZBUhWB3DQbuQZyJhuVjEiHi35lMhl4vV7k8/mGspLK9Yuaz319ffB6vUilUtDr9ey+2u12OJ1OFlx/93d/F8ePH4fNZmPKE/S5s9G3Zxv6pFmhhQgglajsmyQSCcTjcUiSBKvV2lgAmcvMSZ5V0GQtSbBTg8br9cLpdCISiTC3s9myivmeWiea8blz56pWtVWpVKxp1kgNmDwAcrkcK3eYzWZoNBr2AAYCAbzzzju49dZbEYvFajK9UqvV8Hq9aGlpaUrW8NnPfhZf//rX5zULIVCAkCQJIyMjsFqtsFgssFgsGB8fB1AKDOTdoNFo2ItYGWxVqpI16aFDh3D33Xc3/Dw999xzyGazs/aY5GWAiYkJJiM+MDCAfD7fsNy9vOSq0WguqlpQz641FAphcHAQBoOBzTqcOnUKb731FtasWYPt27dj06ZNAErl47179+LYsWPYs2cPAoEA/H4/K89otVo4nc55KylVll6IHENqtgMDA4xUQsyjS/VK5AGDSBFUWrJarYzUYrPZMDIywp4D+veSJEGn0yEcDuPjH/84/uRP/gTnzp1j2fThw4cZ3VdOtacgJy/py1E5bHg5qiWVfZNEIlFdALnYHIVc/I4eOjo5URSRyWSQTqcxOTnJ6G8UafP5PEwmE2KxGJvHuFwXpZY6Mf1cozfx2muvxZIlS9DX18euKVFBfT4fE9HbsWMHrrnmGsYxrxbUpPP7/U0ZLty6dStuuOEGxsiaD8xGnCBb0VQqhRUrVjC7VcpQyBKW/s2NN944K6V3YmIChw4dYgtgvXjmmWfY8OBskG+AisUiRkdHwfM8k7uXJKnuQMJxHI4dO4bJyUn09vaivb2dNbybVR+n4VBRFBGJRJh0xt69e1lWMjk5iampKUQiESaSqtFo0Nraeln6PnJCBjXYAUCv18PhcKCvrw8A4PF4ZihEV2YZgiCUTZ3TdfB4POydXLJkCSwWCyujkaugWq1mfZnNmzcze2S52yR9F0kQURXmYiCKcCKRuCxGY3NhRgCZa46CdGScTieTBCDJDLJvTKfTiEajrF5/sR5FsVhkXO7u7m5MTU1d9guy0N9N5bzJycmyASN5499oNOLMmTPYs2cP7r//fuTz+ZoWCmryOZ3Opniof/azn8Uf/dEfNS0Lma3MSUNaDoeDybcDJYopeTfY7XZks1mEw2GkUilWHgoGg4jFYjAajbNSeg8ePNhQADlw4ADOnDlTVW+pMpAQu6ijowPd3d3Mz6WW0hY1Ur1eL9xuN9ra2tDV1YWOjg72d42UOqicLD92SZKYBa9Go2ESNA6Hg1nFLhbWWWVWks1mMTU1BUmS0NraitbWVoiiiGw2i0AgwGwL7HY7M3+iKe3x8XHE4/Gy2SQa/qMsQxAEGAwGFpRo1qOjowPXX389YrEY65VQ6YcUCWhSnnb1s40RyEtdLS0tcDgcbDgwmUw2XZrkYpBv6IrFIux2OwSi6snLTzRHQTU7ChT04JBKKoBZxe+qaWbTjsHn86GjowMtLS0IhUKX5UGsp0bajGBHkgSkNzbb5/E8D4PBgDfffBMf+chH6spC8vk8AoFA07KQW2+9FUePHq05C5ltY0KTzPJBLAqsZN3rdrvLemHU2CM/cRrqonOdmJjAunXrZtBQNRoNhoaGMDIyUrfv+VtvvVXz9HhlA5j6Id3d3ejt7a0qkFQGWQBMM42mnEkHjaigtTyfyWQSw8PDGB8fL9sYVC7I0WiU1b9bW1vhdDoRj8cRCATmVbSvHlRKdHi9XhQKBeYuuHz5cgBgpcVAIMBmxehcZnsveZ7HqVOn2CBsMBjEyMgIVCoVVqxYgXQ6jVtvvRVqtRrDw8OspKbX69l1omxJfp/kfyaHXq9nbFNRFJnJWGtrKxN5jEajTb/+sz1zLpcLJpMJarW65Plut9uh1+sZTYx+MJlMIplMIpvNsgxDzlZqhrIufY7X60VXVxd7OBf64SMtnfXr19d07MlksiHvbfmDdLFzJmHAXbt24aGHHqpruLCZWcgnP/lJ7Nmz56JZyFxii/Ss6fV6Vu7kOA7RaJT1w5gPtGzxqnzOaDELhUJMiTSdTmN6ehrj4+Po7+8vM96h66DVanHw4MG6Awidd73PqHxglai+PT09WLp0KTKZDNxud1nQk187ChA0G0DkgHg8zprV5K/d3d0NrVY7p7Cmx+PB3r17ceLECRw9ehRnzpwBALajng3yMhExjAwGA9ra2mC1Whnr7HKXWGbrY7S0tMBms6FQKDCafDQaZYGXGKBywcHZjp/m0ILBILPxPn/+PNLpNCRJYhsC2sCQZ02xWERHRwfefPNNts7q9XqMjo4il/vQ63yu7JGuO026B4NBCIIAp9PJxBVFUUQoFEI6nS571mq5B5UBw2g0Mi2xkkdJiZxAowUCZRQkG13ZCJ/vZjbVLFOpFFwuF6anp9mfLwTopRgfH695V0k3ql6QQi095HOB53lYLBa89NJL2LBhA5t8rRbNzkLuv/9+PPnkkzhx4gSTOJlt2JNcBHU6HWPeSJLE3CbD4fAM457ZgsXF7ptKpWILMU2zT0xMYGpqCitWrCgLIETpfffdd3HXXXfVPGg5ODiIsbGxhk2TKktbIyMjrLRFIpM+nw9Wq5XV8Kl2Ho1GMT09zRYsedYvCAISiQSOHDmCyclJtLW1Mdnx06dP46233sKxY8dw+vRpZjksCAIbxKXKQbXXnlhQ1ONxuVzo6upiA5W0EZjPqsJsM2Qcx7FxAPLaIHFPKiPReZJJGcdxcDqd6OvrYz03shioPAe6XiMjIzh//jxTxU0kEvB6vejr68OKFSuQSqXYFPnIyAijQwOlsr9Wq2XSTvJzmet5oWORizx6vV52zi6XC93d3axEFwqF2LnNFUwq31si8litVhbUiCJPitfycp5ALl0LVUebDRTJaec0n/2Q2XbGxIqoBc04tpUrV6Krq6uqmrVWq8H4+Bh27nwD/+7ffYHxz6sFz/OM+dasLOTrX/86q+ESc4yIFECpvEnqoiS2WFlfb1RMUL6jn5qagt1uZ8N8VHKVlwRI9O7QoUO44447avquZ555hl3LejHb86dSldSYM5kMjEYjBgYG2GT7yZMncfbsWaTT6bIS11zXjf6cKNyTk5N4/PHH2SJP8wYtLS1ltfd6UBkIaTZDPlBJmWUzDY4qa/HUxLfb7czumLKkkZERptt2setGfR6PxwOr1YqWlhamPVVpakZlZI/Hg0wmw7xtqN94xx13YNmyZYw1SUOQJGBIIwDU75PTkiuvL8nAp9Ppso1V5bwGHT/pybW0tKCjowNqtRqJRILpcsm/g54/tVqNzs5OlikBJf0xYjvK39PKeyfMNx2z2geR4zhMTEygra2NeT8340GrZI4Vi8WyXTEAVlekC7RQfGt6eErNXqLnAUARKlURKpUElUoEUIBKJcJiUWH37rewdeutcDq7kExWH0CanYVs374db721E+fPn4PT6UQ+X2pYh0Ih+P3+usUW64H8OyKRCILBIJOBcDqdM7xC9Ho99uzZg9tvv73q48nn89izZ0/NvuezPYOVfinUmKZBOJJD6erqgtFohFarZbIu1TTb5QslaRl1dHTM26ZM/rkqlQperxeSJMFms8Fut8NqtSKTyTBH0kvJ01zqGkqSBKfTyTJBun6RSASBQACpVKoqafzKa0a/y2cd7HY7WlpamP8GqdqGQiGmPk3NetKX2rRpE2N20mdSz5j6K8TWkjfCKwM6Bd8/+ZM/gd/vZ14iFzv+SmMstVoNu93O2Ho0RU4eJ/KyGWW28gzjUtft8kcP2QWg1JGovfILczHMlsbSz5pMJmadKi+PkPIkUT9FUcRDDz1UdQAhdkrj550Hz+chCBIkSUCxqEKxCKTThgsqnu0QxXaoVBwyGQc8HjV+8Ys8/uN/5JHJFCCK1Qc76oW0trY2RdNq+/aH8MUvfh0dHZ4LDJ0CikUePC9AqxUAcCgWOQALk9XK0/tIJIIzZ84wSQj5vVKr1fD5fDh8+DA2btxY1Wfv3LkTk5OTTHl3LszV7CZPECp3UFOUFha5EivtZomm3NnZiYGBARQKBUxOTlZN/611oW4G5AtxLBZDNBqFWq1Ga2srenp62M690oviUteQ+j9UWslkMuzzaVFuRrm9ctZBfg5dXV2w2WyMOUm+L7Rzz+fz6OrqwubNm8tGFlSqkpgsBSaSBCE2XeU9kiQJ/guU3+9///v4sz/7Mzz00EM1KVHQ9cjn83C73SxgrFmzBjqdDqlUCqFQCOfPn2eEFZKnr+XaLZoAQieeTqdhNptnNaC6mLgi1e7I3Iiah9lslr2oZLVbOQHKcRyjKVZ78SgINYpQqA3JpBpqtRH5vAaFggYqlYhcjoNK1QqVqh8qlRGACJVKhMGQxzPP+PCxj7Wip0ePZLI2jaxcLgev18tKDI3gzjvvQG/vIzh4cAoORxu0WjXU6ij0eg+0Wh84Lg21Oo5iUQVAQLEooFjkL/z//Mpuq9Vq+P1++P1+tLS0lAUQovS+8847VQeQt956a8YEdWXvhz7bYrGwDLdQKECj0bDGp3wYtHLRm+08iGFGzXaabG90IHG+QQsxvW+ksEx9Klo8STqczrVyeI92/jzPIxKJMKFCuajffPVnK4PJ8PAwK2V5vV4mt0Skllwuh/vuuw9r1qxhG2CgtDkwGAzs3xgMBjY8XDl5ns1m4fX5sGr1Gnzm4Yfx53/+55iYmKiq91ZJHqCpf8rCo9EoBgcHkUwmWQbc39/P5lHC4TBjO1bbgF90AYRuTltbG1paWthkq7xeR7IIJpOJ3RgapKIhPHl6WXlBKnff8inQWtAMRV6vtxOiqILBoEapdCUCEKHROAF0A+AAJEAlLp1OhUBAwjPPTOEv/3ItMhkJoljbXEggEGDskEbxe7/3CHbvfhsmkxWiyEOSOIRCKghCGhyXh1odhlYbuBBU/OD5ODguD5WqlJ1I0vwEE7qfNCtRKQio0WgwNjZWVVaRzWaxf/9+6HS6sto7PVd2u51NxFOtOxqNwuv1soXkUjX42TDbQKJKVbKI7unpYQuzfMJ6saGSwkzlLYvFgtbWVgBAJBJBOp0u6zuIoohoNIqpqSkma1TPNWwm0uk0DAYDDAYDywQlSUKhUEAmk8GSJUuYm6hc/ZskmuiZoSAZCAQQDofZ35OK+O//u3+H+7fcBN7rQRFA/IL2X+X6VLmBocBLsuzkKjs6OlrWTNdqtWVlLr1eD6vVio6ODmi1WqTTaZYlXqo3vigCyGw1TmLRkIwz7RqpsUSZhd/vZ5mA/GGtRVhR/mASK2yhsHRpC06dmkbp2ZAA5AAsA9CDUtAQL/yuAsCD41SwWKaxY8cxPPywEz09LUgm65tOb0YW8vDDS/Bf/ssHCIdTMJk0Fx5yDoAakqRGJqNFOm1HKNQPjguB573Q60MwmaLQ6yPg+QJ4HpCkUkAprfHNWQgFQcDk5CQGBgZgMBjKBgupub5r1y489thjF/2cN954AxMTE+jo6IDRaITRaGRSHTTYGY1GEQgEZgx3NcMXpHIRJhFSGiKkobj5VqKtF7O935lMBuFwGE6nE2vWrGHSGGQWRSWVZl3DRkAbWLVaDavVikQiAb1ej3Q6zcpBHMfhk5/8JDZu3Ai/31+2WeF5Hm1tbWzOhAaEb7rpJng8Hhw/fhwA0Nraik996lP41re+hRf/1/9ELJGECkCsgqklzzIoU6MyKfl4kA7YXMxG+WxPPp9nFRiDwcCIKBzHIRQKlQ1AVj5fCxpA5pJEoeFFeWOb53l0dHTAbDZjYmIC8XgcwOyDi42msCqVigWjaimazWpILl3aiuPHJ1AKFFoAS1DKPMQL/RA1AP5C6SeGYnEaKpUPfn8czz57BP/hP2xHOl37dDp5pzd6DlarFl/4wnr8+Z/vgl6vA89nACQBpKFSJaFSZQCIKG0YeRSLAhIJB2KxFvB8HhpNChZLBHp9GGp1DjxfuHCufMP9E6KZBgIBLFu2jJVT6P7pdDqcOHECmUzmolISBw4cwNq1a9Ha2opkMsnICORt3qy5qGrPCfhQ/ddkMsHpdMJoNCKZTC6KQDKXACFp4lFAoJmCkZERFItFtLe3o6urC6IoIhgMlilaXE7Qbj2TycDv97NRA51Oh2QygfXrN+BrX/satm3bhmg0ykrk8p/v7u7GwYMH2b2Lx+P43Oc+h9/7vd9jGQsxylLZLDQrVmLghhtRBDA6OopUKsUo82azmWkLkqsqEVcA1LR5ka9jleKUVqsVNpsN7e3tyOVyzF+J/i3HcfMTQC7Wq5BPupvN5rLpS/L1oInL4eFh5g2Qy+VYw6rZDxQpAYfD4VlVRucC3fRGjqdQKEIUAVG0oVhcgWKxBcWiBI0mDECAWh2GIGSgVruh1Z6EJImQJA4tLSkMDo5hfPwaWK0tjG1T7fnSDtDhcDR8/f7wD5fh8cd/hkAgAJOJymKUiZT6HyUUoVLlwfM58HwRxaIKuZwaPl8/VKpuqNV5mEx5GAxhGI3jADhIkhrFIo96Agk1o8+ePctk1uVZgyAIiEQi2L1795wqvR6PB2+++SYAlM0F1DKzMh+gAEHNeKPRiJaWFvT09LD3aKECiZzEQu861d+tVitTBY5EIvD7/Yy0Uknt9Xg8AEpGce3t7QBKTCS5lP9C93uoL0vPDxkv9fX14U//9E9hNluxfPlSrF69GtFoFNlsFoVCgfU6iEzQ1taGRCLBZHoKhQIzsUskEtDpdKxUyQsC1m/axJrz0WiU6XlRCSoWi2FiYqJsan42mm2t5yrPTKjpD5SGHltbW2Eymdg5BYPBxgPIbAwoSvcoQppMJhiNxrIUlkxgEolEmaG8vE+h0+kY7VSv18/gMTfzIan1ZaMhpEwmA71e38B3i9BqczCbM9BoTkCnm4BKlYNa7UWxCKhUSQAiBMEArVYHk8kKjUYHg6EDPl8Q7703iI997ONlrovVQBAEeL3epgQQs9mIL3zhNnz727+AXq+9kG2IKJXkJAAalIIID8B64c+MUKmMUKmK4DgLABUKBSAcNiEQAEymM7DZjsFgOA9ByECStJAkAbUGEnKzO3r0KNxuNzo7O9Hb28tolgaDAR988MGcAWTv3r3weDyzmhxdbshZZ5lMBhMTEzAYDMyvQT6/0Mxjn+2dJwMlKqfk83lWSqm2DyRfuMhq2uVyYfny5UilUkyKZCGn3FUqFZM/MZlMjNobCoUQCoXR0dEJUSzNiqjVajbVTrYDPF/a/FqtVhw9ehTJZJLp/1HJia4pbU7EC+dYyOdRlCTmL0ImcfJruVAEgmw2i7GxMQBgG4O+vr7aAshcQotEr9PpdNDpdOykcrkcstks0uk0e5grh8gu1hCjC0M3wOfzsVpccyGB44rgOAm13ItmPMRO5yi6ug7C4TBAkoBiEdBo9OA4NWy2Fmi1Omg0WgCl65lOpxEMxuF2BxGNRvH00ztwzTUb0dHRUZP1LfHdm+Va+IUv3I3HH38ZXq8DWm0bOE4Ax2mgUhVQKs2pUQocJbIAkQI+/O/ihT5QAjzPIZPpx9TUMmi1AVgsx2G1HoVGk4Qoai6wueaW46bf5Qsc6bqFQiE2a0TPqdfrxcGDB3HttdfO+LxXX3216Va+zYb8nSJ7X4vFwuYwyIitXofE2fTLSH2bfC7kw3s+n4+VmuvpR9JxFgoFTE1NQaPRwOFwoLu7m90vEi+c76Au153L5/NIJpOwWq0wGo144olfIhaLwWq1oKWlJNTY3dWJgSVLYbfb0N7egSVLBpBOZ3D27Dm8//4gVKrSHFBPTw8TbqzUwKJGO53bsWPHMD4+DrPZfFn6QXNlJpIkzR1A5hrCI4qi0WhkYmPUiKFhnkQi0TQjKJVKhVAohK6uLvT09DBLy8YvogSOE6FS5QHkIElWeL05LF++sKYtLS0OaDRGWK3dFx6Q0hwFEQMikdis15PjSq6FkUgEb7zxBr70pS8xWZBqr2szXQutVj2++c21+MEPfgSz+UZkMkuQSvUhn9deCM7iBYaZvFdTycBSAcijFEzy4LgCCgU7AoG7EA6vhMVyBmbzKej1sQszMzPtkKlcQv00YuzRMKHP58OuXbvA8zyWLl2K/v5+mEwmDA4OzgggpBdF7muLKfuYDfLng3bxJpMJra2tMJvNLJBUs/BWvv9Ucjabzax5S+rbHo+nbNCRnq1mlFMoAyDJjpaWFrhcLqhUKqRSKcbSnM9Asnz5coyMjCCRSECr1bLgptVq4XA4LljAujExMYbBQQkqFcd019rbO5BMJqDX6eH1uqHX6+Hz+dDZ2Qmyb8hkMrNqlsk3eXKtwsuJysxEmEv0Tj6ER76+9FDQw0lNLmokzkdtmD5vcnISXV1dTLW33otZmvAWwXE55HJ2JJO9SCT6MDrqwsGDZtxxR20BpNGp9dtvvx379u2DRqNhxvXVXk+VSgWj0Yi3334bd999d10aWbFYDIFAAE6ns6HzAIBHHvksXnrpVUxMvIO2tiEUiybkcq2Ix5cimey4EEwkcJwEIAYgjZkBJApALsNOO58swmEtYrE+tLRMw2IJQJKKkCQeGo2WsaMo06Ds1+12o1AolDW7Sa325MmTCIfD6OnpwdjYGCYmJtDT08O+e9++fcwQSe63vdgh38WnUimcP38eBoMBTqcTPT09SCaTTPlaLgUz1/CezWZjkhjUo5QLXs53KUU+B0b2qkajkZ1PJpNBIBC48Lw0Xt6ihZ2saru7u9m8SrFYZNUUOufSM6WDTqef0Q+amppk82XUF0omk1i2bBnrWdC/le/ygVL5NZ1OIxQKMTuNxQSVSgWBUiX58BO9JPl8nkk1U7CYzYZxoZgnfr8f7e3tCIVCNZeyVCrpQolKQiplRiSyBInEdRDFngtN3SQkKQ2erz4gkHRBIz0Ql8uFYDDIjHtqnQZVq9UIh8N488038aUvfakmjSy5fk8zAojVasfnP/8V/OAH/xUcp0ahkIVePw6DYQSiqEYk0oJo1IV83gCOEy+UrOTXW4WZWQlQLBZQLKqgUuUhSVoEgyuhUnVh2bIM7HYJ+TyHRCKNbDYLv9/PZj4uxo6ixdPv97MA+v7777MA4na78bOf/QwajYbteCcmJsqE+BY75IEkm81iYmICOp0OTqcTJpMJoVAIkUiEPQdGoxEmkwk2mw3ZbJbNs0xNTbEFlLFvLlMpRd7zGR8fv7DLb4fJZIIoivB6vSwbqrdcl0wmodPpcNNNN+Hll1/Gc889B51Oh76+PsRiMVbSJCLG5OQkkyVSq9Vl/ihqtXqGOOGZM2eYGVWxWGQNdAAzFBPOnDmDaDQKp9NZRjxYLBCWL1/O0vt4PM5E7yp3wHMN4S0UKJXNZDJoa2uDx+Op4kUuaUrxvAhJAhIJ24VfDkgSwHFeqNUtACTwvHih1FL9MdGL2QiI897d3c2kvGsJjFTKeuONN3DnnXeio6Oj5iykmb2Qu+66Cy+//DLOnz8Pm81xgUGjBc8X0dISgsWSQCzWgmjUeSEjKYDjKOMovTwfZsOAIPAQBB46nR6CUGJjiWIRkYgeR4/y4PkRWK0kB6EBwFfNRqEXXpIkTE5O4n//7/+NPXv2YHh4mDFqjEYjxsfHmSUpsWfoOxbTyzwX5DTNdDqNkZER2O12dHd3Y/369cjn8wgGg4wJWWlwdjnZZnOdj1wiZGxsjMmlEzWdpv5rDSSSJMFsNuO//bf/hs2bN2PNmjU4ffo0Nm/ejLvuuouVRFOpFNvEnjx5EiMjI0z4MhAIIJvNMiMpjUaDSCSCSCQCoLQ50Wg0LCum0n5lNUOr1eL8+fNYsmQJbDYbc95spjBloxBOnjzJDoIelvkSvWsEcsmRrq4utLW1wefzzfFwFC8EgwLyeQ3icSvicSficRt4HuA4ETwvAvABMAPoA8+r4PPlIQiqWW/mfEE+Ld3Z2Ynp6emaHwyiSL711lt1ZyE+n68pAUSn02H79u346le/ik2bNqG9vf1CYOTBcWoIggSn0w2r1Y9YrB/B4Hrk8wDHZQFIUKs1zMSMdpu5XB65XBapVP7CSweUSAU8RLEf2WwELS3HYTBMQxRro/zSpshoNCKXy2H//v1s50g7Q5q5EAQBXV1dMBgMzHdhsUqJzCXiqNPpWGkqkUggmUwysUYyOJPvohczZptyF0URDocDLS0taGlpQTQaZd4d1Za37HY7XC4XAOCLX/wiADAHQa/XC41Gw4ZwJUnCNddcg2uuuQYajQa5XI7NjYyMjGDPnj04efIkzp07h2QyyRwQV6xYUTbYWrne0MjCnj17mGwKiTqSMKW8rHq51mthMe0sLgV6WKamptDV1VUWxUsoQqUqQKXKQxTVCIXaEIu1IZ/XQaUCNJoPVW9Li4wapSDiBM8LGB5OIpEoQKUCFih+MBYa+Za3traW8d6r/Qyj0Yi33noLd999N1wu12XNQrZu3YpbbrkFR44cwdKlS9Hd3c3IFaVzUoHj8rBaj8Ju1yCRuAHx+EpotTlwXAG5XJ4N6UlSESoVZBlw+XfxPId0egn8fifa2nZCp/NCFHUozaDUdh/mMl+iurQoihgZGYHD4YDNZoPVai3LGi/ne3QpEUcKitRIJ34/wWg0oq2tDSaTCel0GoFAYFGcV7WQizhGo1GEw2HWJ7Farcjn85c0u6Lrd+LECaxatQpdXV14+OGHcfPNN+P+++9HoVDAr371K/zpn/4pNm3ahDvvvBO33nIrbrjxBmg0GhYQyJRr48aNuPnmm1EoFJi454EDB0Cb9kqvGrpvdGx+vx8nTpxgcx/RaJT53ixbtoxJldQaIJsJfmBg4K8u872vCXShiRUSjUYvBBYJPF8qJ4VCN8Ln24hEQnthgLEkjV6JYhEoFtOQpBxE0QWzmcNnP9uBTEaqKoBQ/bIRgyGv14t9+/YBKGnwW61WNl1K51sNSDJap9Ph5ptvRiaTqUm9kyRiaOfVKARBwK9+9Suma0Q7QpLO7+joRmtrJyyWOLTao4jFQvD77Uilksjlshd6DQDHEfGhiA/nSuQzJgVwXB75vB2ZjAtabQBqdazu4cNLXSMqA8ViMdjtdthsNmbkJM/k5xvygEELkVarhd1uR1dXF5NRJ2kLn88Hn8/HhnRJCFBOmSUxPTovAIwavhjKJdVA3qehhTsej0Ov17PzymQyZeZItJjncjm4XC5ce+216O/vh8fjwQsvvICnnnoKn/rUp2C329Hb24ulS5eitbUVb+x8A6/veh0rlq9AT3cP61/QZiOXyyGVSiGbzTI13y1btuCGG25gnjkU0OQDqkApkx8ZGcHPfvYzmEymMqsJGuLL5/NwOBzMeCyfz8+wLpj3631HrbSjRQC6QV1dXVCpinC7RyEIBUSjGxCPr0YisRw8XwDHuQGcBZCVqcACpUyFg1aakjL4AABFxklEQVSrgVotQKMRkEyuR0eHFU88sRqBQAKSdOnLQiyN1atX13wOExMTePLJJ/Hyyy8jGo3CZDKxBaG9vR1qtZqpsFb7IGSzWeh0Ovz1X/812tvba5oLIebJqlWr2MPdKL785S9jZGSEmVjZbDZWs/7Qia0IQSgF/3B4Ffz+peB5A1QqAaVsUQPAgg/nRWgokf6f/lsFUdTBbD6B9vYXAajqGjysFsScISoniePRPESzyz9z0ZWtVivMZjN0Oh3y+Tyi0ShyudyM4b1qAoA8KNFAIgDEYjFEIpErqu9TeU60ZrS2tsJgMLCFOBwOQxRFJJNJbNiwAXq9Hjt37oTFYsGWLVvQ09MDr9eLP/qjP8KKFSsAlN4zYkWFI2HotDokEgnWFKd7P9u1qsw8EokEe9/kGxCbzYaf/vSn+OEPf8hIHJXnJVf4IGtyQRCQyWTg8XjKMsj5umd8f3//X13um1wrShcEiMWCMJsBUezA5ORmhEK3oVAwg+NSAHIoFo2QJCMEQYJanYPRaIZWq4PZXKoBC4IGmUwB8XgeknQCbW3j+PjHb0QmI1WtLUVWntXivffew09+8hP84Ac/YPV2vV5fViqIx+MwGAwXtHaSVT8AlIVoNBrcdNNNrB5b7TWlh7IWOZeLweVy4eWXX0YqlYLP52MKpmq1mrm6lXbAagBqGAwBCEIciQSgUoWhUgUBeAG4AUwBmEap5Oi78GdelOjAcQAhqFQpZDLdyOc5GI1u1iuZD8h3rvF4nOk8mc1m1ixt5MWtzDBEUYRGo2GlJmIeUXljbGyMqdqS/Ll8cLCa46icvYhGo+x5ID9xOWnkSggklUPLqVSKMc+IGVUoFLBt2zZ8+9vfxoMPPoh169aB53ns3bsXP//5z/Hee+/hqaeewttvvw232w2nywme41nQoPdMPgND6htms5lRzI1GI2Ov8TyPbDaLVCpV5kEv33i89dZbGBwcZDN3leclp2DTeeXzeSaDTz71ZHY1H/ftisxASpTcHPJ5DtHodZCkm+DzAYKQg1bLQxA4qNUa8LwAQdABSCKXOw9RnEQ6LUKl4pHPSygWBXBcHg6HB1brJPL5HP77f/9H9PYOsHkM2lXMhpKJkgZr1qy55DG///77eOKJJ/DKK68wyqRGo5l1p0q72/b2dpBVaLW72kazkGw2i6VLlzalFwIA3/3ud/HrX/8aDoeDNaRJ7kKlUmF6elq2s5XA83n4/T0IBDohCIULpUf5Az/7FDv9KhY1KBT0cLnOo6XFB1GcvyxEft1ooe/r62MT4dT8rHYBr7RqJVo9GVHR8F4oFGILQz0yPLWcF+3cbTYbzGYzVCoVmzS/HDX3ZoDuVTKZRGdnJ77xjW/g9ttvRz5fImmQogYABAIBHDlyBG+88QbefONNiLyI737nu9hywxZGF5e/lzQ/d+DAAfz85z/HxMQEK5nl83lMTk7iP/2n/4THHnuM2cySbzvdRxqfMBqN+Ku/+iscOnSoKifMSm8aknWn8nQwGGyI4jwbrogAIpenAERwXB7xeCdisZuRy21ASwsPnQ5IJGLMxlOSJBYAJImDSsVBpRoFMIZiUQ9RFGC1BmG1+mAwxCFJPGKxFDZu3IgNGzbgxhtvZGlhPp9nU97yYUsqYVyshLVjxw689NJL2L9/P9tBVkNcoIXE5XKB53l4PJ6qgogkSYhEIvj4xz+OL3zhC4hEIjVpZDVSlpsNx48fx6c+9SnW25E/5DR7Ip8mLs3hiPD5+hGNdoHnkwCy+LApLhdpBGYLDpLEQ6tNoKfn1IVp9YVhE9E9U6vV6OjoYKyd2WxcZ5NcIVM0i8XCdp3hcBiZTIZlA/IdNbBw/RY6N6fTCb2+NDBHdNXFHkgqCQa0yAPAo48+is9+9rOIx+PI5XJlZl80k0XS/WQJy3M8kskkCmJhxj0gCfRvfvObePnll2c9nmeeeQZ33303IypQOYyYhx988AGmpqZw991346WXXsL/+l//q2Y5Hfn5qlQl6X8KikSkoONt5N4tuhJW5SQnpe88z0GvV6Ojw45UagmSyX5wHA+NJoN0upRN5HI5RCJhFAr5MqXcUiOWg0rlgiQZodH44HSOw+WahFotMlkMQRAwPT2NwcFB7Ny5E7t374bb7YbZbIbJZGISyvLJXVEU0dbWNuMG/PrXv8Z3vvMd/OIXv0A4HIbFYoHBYKh6AEsuSaHX62GxWMq4+Rf7OY7jMDo6io0bN8JutyOfz1d9/VWqkvooaR01itbWVkxOTuLo0aPQ6XRlD2wymWSMJtq1AyrwvASe1yMa3QqOawfQAsAGQIcSc44ahSXq74eeKR/6ymezRmg0Gej1yYZl4Wu5dpRlhcNh1kew2WwIhUIzSlI8z0Ov18PpdDJ6MEmOTE5Owuv1IplMskWaSlILvWBXloCi0Sh0Oh3T2komk2WU1MUQSORBj8p/ra2t7Drr9XrE43F85jOfgVarRSaTKSvh0TpEEk2pVIpVJXK5HKSiNCP7oHN3uVzo6+vD0NAQ81CnRvnatWvxwx/+kCkS03AhCc8eOXIE//zP/wyDwYD169dj48aNeP3115mPSD33DCgFjVAoBOBDMUSLxcLOqfJnq8VlNZSaS/iOdurkHaDTacFxIjIZCdPTZpw9a0axGAMQhEp1DoAJmUwrrNYV4Hk9SgJ+8lIHUCyqIIoa6PVFtLaOQa+PQhTVZbtTnudZ70GSJAQCATz77LN4+eWXYTKZcO2112L9+vVYuXIlOjo6wPM8m9AFStpJTzzxBN544w2cPHkSdrsdbW1tEIT6LjPVSmkC3+l0MlG8i91kmgvZuXMnvvKVr9SlkdWs6XSgxKUfHBxELBZjQUkuUUMmNmRDC3DQ6aah1bqRz7eC48woNdJbUVL0zaMUNNIAMig5NtJ/5wFkwfMiolELzGYfVKrinOKLzYZ8EfL5fCgUCujq6kJHRwcymQxjpNFGolAoMGnuhMx57nK57l3q3CiIBQIBiKKIzs5ONrzn8XgYiWChM5JKscdisQi73Q6z2QyDwYBsNotkMsmGJHO5HNra2rBixQokk0nmaErT5SS5Tu+uXC2XMFf5OZ1O4yMf+Qj++Z//GV/72tcwODjIMpt77rmHSZTQoCrpCb744ot46qmnEIvFsGrVKnbNSQWkXszmUw+U7IXp3pVEWqufLaHrvKAlrNmGm8iiVq/Xl11M0tWPx6PI55NIJAC/vw/JpANqdVE2D1CidxaLOej1TqhU7UgmzeA4HWhnWizyEEU9rNaDsNsPQasNQhS1qGZWQG5bScNWJpMJ69evx7p167Bq1Sps3LgRv/71r/GLX/wCoVCIZSrNWgDowe7s7EShUGADlBcrZ9Gu9fvf/37N0+nFYhG5XA5LlixpWi/k//yf/4P/+T//J9ra2squi/yZaG1tZYOVWm0aodDNCATuhCCkUMo0ZpM9oZIW/V0pgABpZLMc+vt3Qq/3Q5Iat++t5rpVOu9Rv4dozCS7TpIrlRnFYti9Vws6T6JmGwwGNr+wEIGk8nqT3SwpLefzeTbwSVYQ8ux3w4YN+Nd//Vf4fD72mSThkk6nEY/HwXEc21SSP4dcrwqYfcdO0u4HDx7EH/3RH2FwcBCrV6/GM888g87OTuYtQ9PqP/rRj/DOO+/AbDbjgQceQHd3NzZs2ACO4/CJT3yCSeY3+95RGZ5KXPl8HuFwmPnJVGZl8szOarXOXwZSeXPpAGgKVi7QSBa1Xq+XNZtKO7EiBKGAVMqGUKgT2awdWm0B5ferZPWqUumQSkVgNmdgMtmRTJqhUrlQLGpRKGjQ0vIOXK5dKBa1VQcPejiI0UKzJ4VCAUePHsX7778PjuPQ0tICr9cLs9nMFsFmgj5venoara2tbGJd/neVNE8ACIVCeP/99/GZz3zmsk6nA6Va82uvvYapqSlWf6bvku/Yya8jFvNBrz8BlaofJQ8RNUoUXqnil/ycKKjoARjBcSZIkgHlCsDNw8WG9+x2O3t2YrEYTp06hWw2i/b2duj1enR0dGBycvKyTxI3AvnONhwOIxgMwul0orW1FaIozkuPRL6AkZioXq9n1z2RSLB1RB6gK0vHhUIBbW1tyOfzZQKyOp2Ouf7RAGIul2PrklyBnLIVCijyDCWfzyMWi+H666/HP/zDP+Dv/u7v8PnPfx5Lly5lisi0rrz99ts4ePAgbr/9dlx77bXIZrN4/PHHsX37djaAS06t83HvCoUC03kzm81wuVyw2+2M2UVmdbR+EyGG4zg0nIFczH2QZBNMJhOLnpSyE1ddfuHlL5JKVYQgpBGL9cLv70WhUHKyKy38cw2JFS9cBANyuQyyWTMkqQ8OxyhcrjdRLNZnSnSxc5fvROZb+kG+26N+jVyplITbaAGjYcQvf/nLdWchS5cubYrpFFBqHv77f//v0dnZOetuip6dkoChDaJYxN69TqjVHFQqDUp9EBtKAUWPDwMDBZPyRzmfN6On52kYjWMXptMbv/6VzVh6xkkcjyahqWZe2UCnz+jp6UGxWEQ8Hkc0Gl30jehqrw8t7q2trUz6XC73XmuwnO2a2+12RkahsgwtdPT5lyIZBINBfPWrX8WXvvQlpgMmf5flQYU+g8pcJKSYTCbLngPKrOXfLdfLa21tRSwWY14m1AN7//33MTY2BqPRCJ/PB7fbjb1792L9+vUIhUJ1yRs1ev8EQYDNZoNGo4HJZGLBuFAoIJlMsmtWcwYyW62RGstkKmUwGFjzivwC6GWq5GXPflGK4Pkckslu+P33QhSt4PkogBCAAErcfwmlQEIlDABQQaXikMuJUKuNSCbjsNnehMs13vTgQQ/IQk4d0y+324329nZ0d3cjk8mwtJ0CRDwex+joKOLxOGKxWENKveS7PZfMRy14+OGHsWPHDpw8eZLReOWgnVw+n4fbPQ21uhcmUweyWT+KxRxUKi9KsyBqAEYAJgB2AAaUAgqHD6fUG6/MzmakpNFo2KAnpfyRSATT09MzBAjn6mNIkoSJiQmmfGu32zE5OVmmdH0lorJHIkkS2traWL9wenq6qtLWbGXuzs5OVkICStk1bUDrEXzUaDQYHR3F8PAwlixZwgZp6ddsFhf0TlAQoSoKnVNlNkr90XA4DL1ej2QyyY5REEqkH4/Hg3w+D4vFAo/Hg6NHjyKVSuHcuXPYsGEDnE4npqamLsvGgrTgVCoVY3ARiYJIIBfNQGbrWQBgomxWq5VR3cjCMRqNIpPJMKG5WiZhCRyXhyQJmJ6+B+n0MiZRUgoY1DwNX/gVvfBn/IVfgCQBer0ZJpMInW4/NJoiisXLyheoCbNdd4PBwJzZiL3hcDiQy+Vw7tw5ZLNZZjolv96kBvq9732v5rkQoOQG2dnZycTjGsUzzzyDb3/722htbb1oUOL5LEIhB2KxddBoRBSLpYeX4+gZkkua8AAcKAlj0i/1hQzklzAaRy+ULWu/7pQ92+32MmMqYkjV+4xXTkdTsJmamrqiy1qV50gbSfkEOPneyM+x8tpTKYVAYom0e6+sWNR6XLlcDv39/XA6nVixYgVWrVrFPOVpcyOKIhNRpJ05/bz8s4DyrKNYLOLcuXOMYUcjBfTzNDE+NTXFaPOHDh3CmTNnmO2tIAhYu3Ytstksjhw5Mm/Pgzzr4DgOVqsVNpuN/Rl52NO/bWtrYxTzWCxWMpSSN0gq+xbyngUAtsMgU5pkMjnDAImE2+o5YZWqAI7LIBC4HanUCghCGh/WuUV8WOM2AegGkAQQRCmYxC/8GzVisQR6exOwWi3weqPguMXrKHcpITxJkhjtUE7HO3XqFDo6OmCz2eDz+VidV36ecr+QL3zhCzUxsgAw10KXywW1uvFG9MMPP4wDBw7gxRdfvMgzUrywiWhDNquGJEVhMOhhMumRSKQuvKwfbhhKQSSM0nMAlHolRhSLXSgWpYsysOQvEFDadZlMJlb/NhgMSCQS8Pv9yGazrA7eqMS5/F0JBAJQqVTo6elhnhPUxLxSsxE6R1ovgsEg/H4/HA4H87bw+Xxso6lWq8s0uKhEFAqFmHlVM2Xl1Wo1jEYj0uk0PvjgAwwODjK72vb2dvT19aGjowPd3d1oa2uD3W5n7w0FFPodQFmpkkr0/f39LIOiki0FAiJYOBwOtLa2Yt++fRgeHsYrr7yCjRs34rbbbmPf0WxUPvMul4vNmZA5l1wKXy43T4Zeer2+xCakXSs1iUkeQR6FybVuNlOp5roPSuD5DILBLQgGb4MgJFDeJAVKpQkR5cGkH0AvgBSAICQpBZfrKCTJDY1m4IJZlLQoAkjlnAv1iyhgUPTneZ41JmOx2KxGXlqtFoFAAA6HAyaTCZlMhtVb6VxJqffNN9/EnXfeic7Ozpq90/P5PAKBADo6OppyDR555BH8+te/Rj6fn8PKs4BczohE4kZwnB2SFEA87oPRmIbRqEEqlQFQGg4tZ2IBH7Ly4uC4k1CrvaBAU0k0oPp1S0sLs7+lGQ667nKnuEY2RnOB3j1JkjA2Nsa0tcxmM9uhXunZCJ2jSlWyp/b5fMxNkLKSRCKBRCIBn8+HZDJZ5gk+H+ZVJKejVqtZYDAajRBFEZOTk8xjRKUqOQk6HA60tbWht7cXq1evhl6vR3t7OwCUBZNisYhoNIq+vj7mNUPXgMpk5JjZ0tICg8GA8fFxnD17FufPny81/3M5REIhWGQzNo2WkOWbVGo3OBwOliG63W5WAr+YA+qHFgs5TE1NQejo6IDdbmd1v2QyiXg8znZc9IPyl2i++OkcJyIeX4Jw+FrwfB4lQT0O5U1SecWtMpjoUCwOgOdF2O3vQxR5xONJtLW1YXJykl2chcRsZRFBEJgIHslnU/nP4/HMEMKbq5ZO9yUcDjPtHUqX6e+BD+dC3nzzzZrnQoBS1unz+diEdKPYtGkTtm3bhtdeew0Oh6PinhShUmURjW5ANmuHIGQAmKFSWZBM5mAypWA2hyFJ/gvZiIByUkWJiVUsCjAaI1CrMygUBIhinu0GTSYTY9kQ0SAYDCIajZZJSizkLAa9W/l8HtPT0+jq6kJvby/S6XSZCsGVFEgqqxo0Z0XT7DSgx/M8W3hzuRxTCp7Pc02lUvB6vejv7wfwoRMgNeblQ6E0EzY9PY333nsPJpMJ2WwWnZ2d6O7uxpIlS9Db2wu1Ws2IA52dnYy5JS9zUYM6kUjAZrNheHgYO3fuRDAYhNvtBgBEpqcR7+uDw+VqaANRSSk3m81wOBzMBsPv9zNZf3rWaxly5jgOqnvvvbdYKBRYw+dySCVcOF1wXA5u91IkEh0X5jx0KA2QGfHhFLKAchqnXBcJkCQttFofurufQrHIo1Aooq+vD7lcDm63uyZ123puWOUvohrSbIhWq2X1UOoXNVJLl3+vwWCAyWRCOBwuKysCYLpJ3//+99HZ2VkTIwsope02mw1LlixpyrU6ffo0vvzlLyOdTpdZAnNcAaKoweTkJ5HPWy8YTQEfBgbuAjc/D1EMIp0eg0qVwoclLRUkCchmBbS3n0FbWwIajQU2m43de5L5zuVyrHfXSE292ZC/9G1tbcwBT+77sFhRuWHS6/XsudTpdMhkMizbkNNDid6sUpWsg+XN8fm6xiqVCl1dXTAajaxERT0PYO61Tz4bRhRfo9GITCYDq9WK3t5eLF++HB0dHXA6nWhvb4coimyzCJR6aMePH8fPf/5zJln0//7f/0M6ncaq3l7ccNttyIoifDIpnHquP/nW0LoTi8VYCbwZz7yg1WoRj8cvu2UlxxVRKOiQTNrAcdT3iAHwoLR4CCgFERNKTVIDSoGFjKGodKGBwTAOns+iUDCB44oYHx9He3s7bDYbs+ttBuYajLTZbNDr9cxZjwaZAoEAM0pqZlmEfpZKU2azmUlg0N9TFrJr166aGVkAWEktkUiUzXHUixUrVuBjH/sY/umf/olpAJVEMvMIhZYhm3VAEER8mIGWsk+VSoIkqRCPq2AwDMBk6kU0On6BoRUFx4nQaMxobzdh9WobtNoOxOMpxGIxVpuez5JUMyDn6Pv9fibDoVar4fP5Fh1bSx7wqAFusVjYjpycDtPpNMvw5NeedLUkSUJLS0sZTZ1KWc0+V/re48ePw+v1oqenB6tWrWL9Xso8ZmucV86G0d/TzM/x48cxNDTEtN8sFgskScKSJUuQTCaZXXIqlWLZMA0qm8xmrL/xRqRyObhlQqMXQ+WAn3zDShUKKoXVkmlUdR0fe+yx4sjIyLynjJeCIOQRDrvg9Q5AEOTOgUC54qo889ChFFgsKAUVE/J5G7q6XoHZfIpx/2nakhzkqI5XC2bzYyAGGunKCILAUvFsNstUOCvpy8D8ZHaVzCGSS6Dvpinb733vezXPhQClLMThcLC0v1EEg0H8wR/8Afx+P/R6LXg+j2CwFV5vD9RqPVSqDgBtKGdclb8wJpMFBoMZxSIgijEUiwGk0yHYbKdgsZxHNksOiFfmtLf8XFtaWlgJcWJi4rKdz2yzGU6nk83CkMQ8SblUm1nLmZ6dnZ2sN0Q2APMRSHi+JMt+5swZtjO//vrrsXLlSjakSMGmko06G+QlOPnPkLCrXM5d3hKIRCLYsWMH1q1bh66uLuZKOtf5zjZKYbPZGOU+HA4jFAqVbVaB5q87/IYNG/5KkiQ26HM5UHKck+D3d0MUtZjpHiiXreBRCho8SkGkgJIWUgCAG5IUgN1+Bmq1hJIrXQn5fB5Go7EsC6nmYa4UvyOt/e7ubrS0tMBisSCTySAWi2Fqaoox07LZ7P/f3pc0R5Kk1z2PPXJPZGJPANWNrt6HI7Ilk03LWtUy8kyjLjrRdOBBB/4L3sSfMKY58SLR2oy8kTIjrU+ykRmHHIkzQ46GXVWNwg4kct9jcx0iPodHIBNrJpBA1WeWlt0oIDPC3cM//5b3ngiT74sEjz7XcRxomgbbtuF5nog0qM5i2zZ+9KMfXdAJuM7nd7tdWJYVSzvd1lKpFL777ju8evUdTBPodPKo1ysAtEjTpQqgi5BRNy2uNdQwT0VU1QDnHhjjCAINZ2cmGPNQLP4KqupCUbTYw/qYnAeNOb2oBz+bzQopAEoD0e/OwsYRnCbJCVVVRb1ex8nJiWi4kU/q1xl7mTKDxJ6orTSTyaDT6cQwGdO6N8uysL6+jmfPnmF1dRW2bYtuI6JCoZM78WRNuh/SYkmCCemwqet6bD0C5/Uv27axtbUlOrb6/f6F51Pek1RVxdLSElZWVsQ+dHJyInB39NmzXPvs93//93kul8POzs5UuVZuYoriYzTSsLv7CRTFj6hKmPTCmPfx5nkqVldfIZdrRloQ5wNP/ehEmzGJk0kmdczn88KrExJVVn1L5s/nYYO6rCZCuJA/+ZM/wfr6+o1xIb7vI5VK4aOPPrrTNf7N3/wN/uzP/gw///nPsLiYw3BYxunpM3ieCUXxEKYjA3DuwTRTSKXeRxCsQdPSCAIHo9EAvu+LNB3nQDpdiABe/wOW9QpBYIOx+SIkvKvJWiFLS0sIgkDoSkwzrZUsgJOGDbFKE9ar3+8Lzqhp15Fkri1iL6AaSTKin4bJ151MC1HzC4mG2baNbDYrCuO0N1BnITlC+fNc1x2bMtU0TRxAe72eAJdSyml/f180xlCkkUqlxHcTVuMhomz24sULvrGxgdevXz9YPlhRXPR6i9jf/w/Q9VBNMMR00AR0cK4B4Uj/ffHl+zoKhSOsrOzBdeOtb7QYNzc3RaGOfi6TpmWzWZimKVrzKPdPD+m8OYxxJjuRVCqFTqcjNttms4k/+IM/wB//8R+j0WjEkLfX+dy7UJzs7e3hL//yL/GTn/w3GAZDJqNgOHwfJycFuG4KihKI3C0pNXqeA84d9HoKfH8RjK1Hh4wAoVY6EAQaPE/D8+f/hErlH+C6KRwensy0aeKhbBwIkTEWaxK5bddOMpdOLAemaWI0GsXICe/rOZAPdaGMddgdJVN83AeNUBI/QYdLUh4kunvaR5NO5GLDiCKkkI+OjkQWSE6RUzdXqVQCZYpkp/HQe5FGnrNYLKLdbj8IhTRjARizEOI5egidARVQOULkOUOYA28jnrpyon/rgTaU4dCE5/lgLIjSH+eT73kehsMhVlZWhBY51Qx83xdhYJzUcbp4l/sZ03hhnRTNhsMh0uk0fvrTn+KLL77A9vZ2TK5U7mef9LmapuH4+FjUfa5r33zzDX7yk59gb+8NCgULuq6iXv8Rut1/D12vIpfbixoRLIxGw5jONDkMVX2J8ECxhpDGxAfnDEFgo1T6X1DVb7G3l0a5bGNpaenGqoCPwZIgxCAIsLGxgc3NTXHYuW69YBw5ITkOmZxQLoCPIyecpdF9yE6DSDc559jf348RJ85yzGVOs263K+hUSD+H2sOz2axIHdMaJiyHnNY6Pj7GwcGBKMInwcT0d6Td0Wg0BFMwETk+ZDMF++qrr3gul0OxWMTOzs6DnNgUZYRebxP7+/8Jui5HHuPSV3I9hJwMQ6gFQepzDayv/0/o+hk8T4einBM72rYtcofD4VBwRtEp/CKp4+PedMYV1uXieqFQwG//9m/jiy++wAcffCDoI+QGgHHOxHEcVCoVAaa6zH7xi1/gxz/+Mf76r/8KxWIWpZIFYBvd7r9Dr/cZFMWJUN4v4br/HNHOTNr06fCgAlgB55vw/SLy+Z9jcfFbKEoA3w8PA5VKRaBnZQ6mp2bkACitYtu2iLCT93wbcsJ5i7blTbZSqUDTNHieN9Ni+2WWjE5IS6TfDxVOK5WKOJjJaPbT01O8efMmhk5PUrhQ2y21Fi8sLGBhYUFwdp2cnMTm+b7niL148YJ7noetrS3hCe/boymKA8cpYmfnP0fAsZvTb3NOLwYgjXz+O/zwh/8Ay0ohCDRB7Ei4C+J4InGZp7q5hGNzns6ybRv9fl8A6CjycBwH+Xwen3/+OT788EN88skn+MEPfiDoDYgem8J3yos/f/5ctDImbTgc4sc//jG++eYbBIGPjY0lFAopVKufYmfnPTQaKXheG4oSIESWG2BsF8ArhK3ZlykJBuDch+8XkMlwLC//HVR1hCAwEGJBAhFZp1Ip8bA99IltViantTY2NgCEjSMEQqTfSRJCXkZOOE9OY5zJ9Qnq2mKMiX3sIVqd5UaPX//616hWq8hmsyLC29zcxNLSEjzPE8X5dDot2rRl5g85+5HsBNN1HUtLSwKEeXR0dKHj7T6Mff3115xkWYkx877TWIx54Jzh9ev/AkUhwsQk6lxMEcI5Oi/yUXfDOZ5Ax2BgYHHxW6TT36LTIc0QFpsMatOrVqtz1Vc/C0sW1hVFEXNNpx8CRg2HQ+i6js8++wzb29v4+OOP8cMf/hDFYlFotxCAalJb79/+7d/im2++wfffv0a5XICuB6hWHbx58ynOzr6ArjtQVQ/xIVcQdtjtAThAKA41nro/BIkqKBYPsLBwCl134Pt67HfpgQNC9TV60J5aSku2JAiRWkTp/4lNdprkhA9tcrG9UqmI5/s+ayRJo43fdV2hABh2D6bheZ4QGaO0Vb8fYpWuQ3svNzj4vo/19XWh2d5oNGI8VrOeT/b1119zmoCNjQ3s7u7eexqLsQC+r2Nn5z8CUKMuHAYgA8qehJ49dB6maUBVDViWHjk7BY4T4i5c10MQ+ODcgKIMsLr6V8hkThAEeoxUjx4yKsrt7e09yYKrbPKiW1tbE4R2yVM5/Y7jOKLVd21tDR9++CE+++wzfPHFF6L+0ev18OGHH4r87qtXr/Dtt9/iz//8v8P3XTDmod830G4votstgPOPoaqbYGyA8QcEBWH0UUcYifQROpXzNGYQqODcR6l0hFLpEJyrCILJ0QptmCsrK6JoOe2upYe2campfD6PSqWCQqGA0WiEnZ0dnJ6eijTLY4gybmJysb1SqQAI6w/Hx8cPktoio2tSVRWFQkFoh4xGI4GVuW0HlXxgoO4tckhnZ2cAMNva0NcRnbvnedjc3ES320Wj0bjnKIRDVQc4OdlCvb4ITXMA+GAsFfVeE+rThqYxeB7HaDTAcDhCEPgiPIwPPoPvm7CsOkqlQ2QyHfi+BlkDnXKSJBVLeuNP3WhDXV9fFw/YpEUmO5PQQbsoFovY2trC7/3e7+Hzzz/H9vY2SqUS/uIv/gJ/+qf/Fb1eG7mcDaCAXm8RrdYifN+CqjoRv9lnCEGgk5hGiV2gAdmJhI5Cg2m2UCodIZNpIgjic3rVPRcKBVHgPDw8fLQprXHAViriUo680+kI5DPRqQOIHZaeivOQTWYTX11dFS34cl1olnMu10M0TUOpVBJtub1eD81mMxb5TWMe5O8kiVpVVQU55Lj67jRMOBD64rW1Nbx8+XLmXRZxzqgQaazrNg4OPgVjGRjGOUup73vwPB/D4SDGqnv1wCvwfQ2q6qBUOkI+HzKzyqdVokpYW1t7MMLFhzD5VE7pLHqwkiRsJJ5EbYv9fh+e5wl6inw+j+XlMv7+7/83SqUsgBLa7RV0OiV4ng5V5RE4NECYlloF8ByhA5nUOiw7ke/B+QCeZyKXO0OpdAjLGkYHgptxhlFKi/BAjymlNQ6bEao3LiKVSsFxHKGG2Ov1xiohrq+vC6CezAM27/d+G5NrJJVKRdQL6DmfNm5G1tUganrP84TomDwnsxrzZCRKTQZUniDHNS1HIhwIAV0++eQTvHr1SgzErG6M8vFEYa5pKgwjwO5uHt99lwfQh+MME84CuJ6ioLwpMQQBg+8zFIvHKJf3oKpMnFzpmsrlsmire+qpLDJa8MQ9RBrdlKslMRzbtjEajdBsNjEajSTyRw7GfABDKIqPweAZRqMVtFoKPC8DVfUjxyHPR4DQcfwQIQXNZXoHCkIlyTaC4CUWF1+hWDwGY8qlKavr3jeltKhLax5TWpeRE9q2jcFgIMgJqbNu0gZF953LheSSVCeQKeufoo0DJALA/v7+nWokSaDhwsICCoUCdF3HYDAQLdUP1ZQg3/fKykpMVZCA1Hed95giIQnNk47xXdI5yYVPC9c0TSFeYhgGut2uEEryvBEUhePw8DlGoyJUlWohMuPuJI4s+XeS3PkcnKfh+xay2Rry+QNkMvvg3EIQaAgCRQwy51zUBZ6qE0m2HXqeh48++giWZaHT6SCVSqHf78N1XdRqtVi9QFEYFCWAonhgzIHjFNDrPUOvt41O5zkUZQhF+WmUqppkLkKOq48R4njG10KCwEAQKMhkvkcu93Nks7sIAuNaKaurjO59YWFBABcPr0leN2u7DjlhrVYTjvwmqRB53ldXV0XEKUegD33/sx5XuUbCORcpvevce/LZIQ4wkqhtNBpC435eorskOJQYDDzPw+HhIQDc+lpjDoQGeGtr69rIdBnNLS96VVWFmmGxWBRUAPV6Hd1uN6aRfj7YgKr6aLcLODz8FJo2AmOU5mAIGXiTTi2LUFRKXBFCxl4j8TMTnCsIgpBDK5f7J2Szv0Im8z04N+D7GlyXY3NzC2dnZw/KDTZtG9enbpomstksstmsoFjIZDI4PT2NRSLh/FC04YGxEYLARr+/hm73Y3Q6H8D3TahqEAFCPQB/F33z5Bbc8PUDXIxCFASBDt/XYdsHKBT+D/L5XwHQp+Y8kuNCXYiE8L3vjXRW5ISXmVwn2NzchOd5aLVagpbkqaz9y+4dADY3NwUljtxQMgk7A4SStAsLCyIlRuj8pPjYvJl8HzTvJG9wcnJygSX8OnZBE93zPDx79gzNZhOtVutCFJIs3pFjIO55ypXTBtxoNNDv9wUi+qrFT5Tep6dfotX6AiGTqoNww7ERx4iQY0n+bFwLsMxLo0Z4AQ/p9A4ymVfI5f4ZnPvI5ZZgWWns7x/cirV3HiyZK6dor1AoIJfLRfQgHhqNhuD0ot+lNsjj40NoGoOqcgQBB+cMrptGq/Vb6HY/gOOUokjEidJYHOfMAX+HOI/ZOHMBrAD4EFQL4VyD79uwrDfI5/8Z2eyvoWkufN+MHMfsyALlFlCSUp1VNJJ8hgDAMAxBzkmbUavVuiAuNu0TLR0qSF5VURTs7u4+GI7iPo3uXcZU9Pt9cYgAzp8l0gxJpVJibur1+tw7javuHQjrgZZlgaSHkxx/l9kFB0LCJ6VSCUTzntyQDMNAKpUS8qtUwAuCAM1mE67r3kkkKdRFH6DT+RTHx78LwI6EhZL59Gt9WuL9XAaV87C11/dtpFK/Qj7/j7Cs77G1VQEQYG/vKFK8u2ozfFhLzg/RH5AuiW3bcBxH5MvHkUAqCsC5D8DDykoZjKl4/boHx8liOMxhODTg+88QBB9BVSkyTAI+SbvjZ9L/T7IAYfrqU3C+Dt9XoWlN5PO/RqHw91DVPjg3ETIqz37s6YFKpVIoFotwHCcWjUx7joicMJ/Pi/np9XozJSe86tp83xeyxYqi4ODg4MmntZL72uLiIoIgwGAwQL1ex8bGhqDvabfbaLVaMdqUxz4ucmaCxKeI5TmZ1hx74E86EGKU3Nrawu7uroDXU2RBRVVCJ9dqNVGAHPe6rTHmQ1X7aLU+R73+r+E4S1DVSSj1SVQndCp2o/dh9N9DhNxZo+hdRRB48H1AVYfQ9T6ePzfB2BEGgwZUNfycIFCirp+Hz2kmHUY6nRZzRBPu+36Mx4jSUYpCFPpU5AY41+C6Jvr9FLrdLFKpVXS7Fnq9AVQ1gKKMwNhvIUw5uZNmLXr/Oc5BgBNnGJwH8P0yNG0T+XyYUjTNmqhN3fc4y2NKJ9K71AauIiccDAYiykieZB9iY5LTWhsbG6Jbq9lsPum0lsyTZ5omyuUytre3AYSUPT/72c8Effq81DVmNQbUjbuysiLSW8fHx7Fyg3zv7MWLF1wu2hEL6nvvvYdcLoeTkxPYti3aAzudTkwudaZc88yHqg4xGCzh9PRrDAbPotNvSH0Rjyo8hAh2DyH54ggh2WIQvbvRy8P5yZghyezLuQLfB4JARTarw3GqyOfrsO0uDKMHXR+Bcy1Cb6vRCXn2jiWZhyUhK4oCTdMUOeywzdaFogCKwqI22lA7njEfnpcBwDAaLcHzChgMVPT7gOtaCALqdvORy6Xh+x4Ggy4URQfwb3Au6jV2xgCYAH4BoIlxDiSsQ4Uv0+winT5DPt+Fbdfg+2bkOB52o0p27DSbzRi696q/TZIT2raNTCaDVCqFdruNWq12gZxwnjakZDQGAAcHB48yVTPJkvNULpeFY280GqhWq6LtGQgdiUyF8xTGYNK4yKnvxcVFQdpIDQIxR/rVV1/xfD4Py7IEipGIwAqFAn75y1/Gwun710oPoKojjEZl1Gr/Fu32c6hqH4rSwTntu4vQYZB+NlG+Axep34HxGz0X30daFJZlQ1GyCJkICjBNHaY5hKY1YZrHMIwWTLMBRRlFJ3RqD9bE94YpbnrHJd8fn0QgXmdSFEVoMWSzGXAeoN0OlQ87nRaCwI85DOKK8rw8fN/AcLgI1y1jNFrCcLgIQIvqGDUw9i9grCvRioQ1pCDgEU21h1YrBUX5RBrjSSY7EC26HyYaGBTFRTrdQjZbRzodStBehSR/CJNTgbSJjgNcTiInTKVSMAxDOKB5JiccZ0luLSLilMdgnq9/0j3JUVapVBLyzBSty3MkUyURbuiyYvtTsjhOL2xRJi69Vqsl1gH7wz/8Q05Kdf1+X/Qt+76P7e1toeP9sAjtsLDOmItGYw3d7gJ6PRuqGmqph3YdJxEbIpyfpn2cA9d0hJ1dBQSBhWx2BYpioNVqgjE12gzVaEPk0DQHmtaDpg1gmjVoWh2W9T00rY/QcTBY1iAGeFOUIHIo5/K8MlVLmI/VYZphSiqVSsF1wxCyVutG1+JjNLLBmAJFAYbDDDxPB2M+XFfBcPg5gDJGozIADt9PRa23QRSNMDA2AvD/ALQQpws5H6Mw9WKB848xGNjR315mJoB/BNAC50YUpXHYdhfpdAvpdAOm2RdYjnlICU5cIZJzWF5ehmEYAoQm/7uu61hZWRE8U4qioNlsotFoAJhdAfw+TD7E0D12Op1Yq+o8WxJKUCwWxYGAiuGNRmOiY5fXAKW3GGMYDAY4Ozt78o5EHkOKShcWFs7LFF9++SUfl47yfR/FYhGZTAa7u7sPplYoG2MBVNWH5wHt9iI6nTL6/VyUo6dOoLFDgLieOqXAUgg7u/IInUYK4UaqgTS4g8BDLpdDr9eVUPBxeV3OXXA+AOcdcN4FcBrhIEJSN8vqSQ7Eh2l2oWkjcJ4C50UAKlRVgWGYApOQz+fBOUez2cZw6KHfP4XvD+C6BhhToSjAaGSDpH3D1FOAkDRyDYxtSGmrAPHONCIt/A7AIUKnOekB8MC5gXT6q6i42JXG4MIMRYXvlwiCEygKkM02kck0kE43oCiIHIqCmyDIH9ooKl9dXUUQBOj1eqL1V9aqOD09jSnDPaWNJdmt5TgOjo+PH4ys8DKb5DSo+1B2GtedJ9mRWJaFxcVFkL6ODD6ep3GYxbjKTSBra2thDWTc4FH4+uzZM7x582aOBoeDMQ5V9REEDM1mCZ3OYsKRBIkXR8i9ZANIIywEZxA6DCq0y78bl6K07fCk3+sNpK4sF2Gapo6QboNSO2r0edQGGAIhw8F3o+ilAM5XYVkr0PUMNC3EXDiOC9d1ozZODkADYz4U5RCMHYExGZnPpXceXU8GwDpCqhBqfU4aOY9dAC8RRgyXzasDYAOcP4Nth7nQXo+cCKXp1AiQqUJVXRjGvyCb/b/IZlswjKFIUU0TwzFrG5eaKhQKQn+ac45Xr16NbeV8Kk5j0piQEqJlWfA8D0dHRw9+78nGErmjCAhVOEn35y5RQ7Jrq1KpCBwJAVGf0sHhqjG40IUlm+d5gnCPlN3mx0JHEubQGdrtElqtMvr9NBRFizqNcggdRhqh8zARj0YmYUbIqN1XQTqdBdBHr7cDxpo47+KiSOTiqZw0vTl3oSg5qOoSTLMC01yA7wdQlCDqZhtGCooMjClR9KIipDQ/ReigJuljEDVIDsAHCCOpcS22dD86gDOE0YePyzulSLzpdwDY4NyDbYdRWrc7AucGGPOh621Y1j5SqWOk06+g6wMwxhEEOoJgflNU8bk6rztRGorAlkROSJQh7XYby8vLABDTbXjKm0ZyrOgUWi6X4fs+Op1OjGfpvq5DTq8QLZJlWaLttlarifmcZv123GmcJGffhhoJ2aUOhCrxq6urePPmzb3KWF7fZEcCtNtr6HT+FRxnFa67EP3bCIy5ONcZmTgciKenOML6wBmCoIV0msH3+xiNfDB20Wmc1zGCKN3GkEqtwzBWACzD9zUMhz34voPRKN76HH6OGr3OABwDOEG44U/CQhCWooIw8rBxOUGhhtDxfRe9X5WW9AGkwPnviCI45z4yGQ3pdBWu+4/IZA5hWY0It6GBcz1C+8+/45hETri8vAzTNIWWwzhyQuLS0jQNruvGpHPfBpPHbWFhQURlOzs7M908x2HSlpeXkU6nMRgMRKdosmHhPsZhEiDxKTuSSx2I3IXRbrcfTDP9ekaOxAVjPnxfR7e7hcHgGXq99+C6eTAGMOZK+AdCstPmzRBuwA2E2utthF1eHJwrUBQVqVQa3W6o5scYLSAACKBpKmxbB2M6NG0VQZCH6xYwGjlw3UGEvQDCArZc7CeHFdZPgP3ENV281/PCfwXAlvSzSdNJqbXf4NwxJT+bRfPOopcPzj8BY6swjD3Y9hFsexeGcYRKxUAQcJyeNsGYccm1zpcl8+OpVGosOSE9/JNSU3Jqa2VlBa7rjtVWeeomRwDLy8sgcTKZrG9aJ36ZiqdcLsO2Qwqj4XAY63KbFkX6Ta8vWSPhnGM4HE6NuHAe7VIHAoTtbaSZTsj0+femPKodeFCUETwvhX6/gn5/E/1+BY5TRig4xaNNvYfQUTSi1yD6HNp0z6nf0+k0GGNotVowTQO6rsE0w+6nILARBMsYDFJRsTsQjmr8mFGtxENYzD5EWMu4DAtBaSUbYdRRweR6h/w9GoAdAN9DrnucOwsFQRBykQEMhjGAYXRh2yosqwXTPIaqehFPlQrfZ1haCvXQ510qNklOSCdmABPJCW9aWC2XyzAMQ6jgPeVT56SxoChuZSVcF/V6Hf1+fypst4qiCKoXXdfR7XZxenoaI/qch/pTMjpaW1sD5xyj0ehRSQdc1650IETzvr29jb29vanTvM/eZGfiIggUjEZltNufwXFyGA77CIIOPI9FDkWNIpXz+gj1jTPGola+EoLAx2DQjaRdU3DdEjgvRKdxX/r7scOO8/TRMULH0Yl+dlmER/WOLMJ6BxERXuU8dHB+DOAlONcirAqgaSGi3DD6MM0+bLsP0+xCVf2oSywcEyqAy3xUFJ0S0Eh+OB7aJpETFgoFuG54zzItxV03IJmQ0bIsDIfDty6lReNA455Op5FOp2GaJvb29m7U7ZTEahSLRVGortfr96KrMc2x0DQNq6urogNM7tSbx2u/iV3pQICwmF6pVESYPr9prKuMIg4PgAtF4fA8A0FgwHUtDIc2BgMTg4EF3zcA5GCaCnTdgq4rAHwMh10EwRCGkUevZ4PzIhQlH9VELtNyB87TVRrC7q19ADWcRxyXLSaqd6xHrzSIxTbs9FKkd+qOUsCYD877UJRfQtPaMM0BDMOBZfVgWaGOh6Y5UbFbEREJYVguHU3JiQBAtVp9kE3zMnLCQqEgpHllcsJppzpkJodyuQwAMVmAx75R3HQsZAErAKK4PO4EPo4pmpoUZDEm4Pa04w89FrIaJgA0Go0Y8/FjuZ+kXcuByJ0GjyeNdZWdqyGSIqJl6bBtC/l8CYZhotVS0WqN0GwytNscjmPD9xfguhuwrFUYRgHtdg2MGVAUSlWdp63oFUYjLHIyPYQRRxWAK1Drl2/WFAk9A7AVkUD6YMwF5wpUdQjDaIJzFarahWWdRPUZH5ZVhaa1oGlNaBqDongIgnDBEh6D0PK3GkVJsMb3/XtzItclJyRql/vCZtBGSG2uh4eH8H3/UW8SdxkLiiSWlpag63osrSWPV6lUEpx7juOIFNW8RxrXNdlJLiwsRAwPcfbbx7RGrtXGK/+y53nY2gq1MqhY9dgsWUA1DAPZbFaQRFL6odNpo9frwHUdqCoQBlwhXsTzLHheDkHgYHGxCMZyeP3ag6IQP1YKw+ESONejbw3gOCX4voYwXXWEsFgeOg7GFFhWD1fTm5RhGGmY5jE4BwyjCcOoRk6DHIgSORQvFo2E3VFK9P+48rtuarLCHzmRWTz048gJbdsWQmWDwUCcVqelm3Hb6ySnSkXltzGlRUbzRawKBELMZrMoFovQdR2KoqBerwtpgce2oV7XxjkSAGi1Wmg2m3NfI0mqHF7LgQBhMb1UKsG2bezt7c0FMv0qG5cLJ11v0zQFLcNwOBT5cAATe8bDSCKMMEImWR8bG+sYjfqo1c6gqiEa3PdVwXILBPC8QrRxD5EszHPOYJrDKyMQzhlCQScuOQM25l1c7b2OtdyJo6oqarVajHTzLnMoaxdQtxSJldGDlyQnTM7dfZt8+n7bU1qy8qVpmvj4449h2zYMw8DLly9RrVZjWI23YWzkdU2OFICQwZ2ndZLcRzc3NwEgdHbXdSAyMn1nZ2fuTlPJPDjlUy3LQi6XQz6fx3A4BAB0u100m82xp9Sb3BP1fhcKBUFnoCjxv48X08fTf4TXf1UKC5d8xnwYjXs+n4eqqmi32yJ9c5PPGOf0C4UCVFWFqqqCFfQxkBPSJkG1gGq1KtbdPF7vNCyZXqRW50wmE/G51VCv17G8vAzf99Fut4UA3WPMbExjrHzfF+uccy66Ah/SqSb1hUgrJggC7O/vhwek6zoQICymb2xsiLbHhy6mJzcbTdNg2zaKxaJQ2BqNRmKBykI90yig0nevrKxcEOB5W43GJJfLwbIsgQS+bKyTUYZMTkin+GaziXq9HuNeeiybMN0bYQOCIEC9Xn9ya0WeR13XUSqVBLcbyaY6jiPmjlRMc7kcGGPY29sTh4bHMK+zGruHrJGMo4Sh+SHeL7oWRVFwIwdCdYP19XW8fPny3ovpSYfBeUg3TqdTEroioZ7BYDDzDUcumiqKIjARb9sDIFvSidTrdSFIQxtHci5JA1we16dETihHxevr608GFyBvfPI80jyfnJxcaFule5X/liiT6G8e+7hMYzwJr8QYQ6PRiAl7TXtc5O8lCQM6hJ+dnU3sGLuRAyFMyPPnz7G/vw/XdWd6gkpuMgAEcjifzwMIo6LRaIRGoxFTRrzPE6qM2D86OnqEWJnZjAk5Eao1OY4j/k3TNBSLRUGBQep308JmzKMlpWNVVcXZ2VkMDPcYLPlMLiwsoFAoAAjbbs/Ozm6E1ZDrRZubmyJCo1rAYxmXaZq8oVMKngDMJOo0jWcjKWlbLBYFFcvp6elEJUKyGzkQAIKJ0zTNqdO8j8udEqEdLVDq1hgOh+h2u+L3HoK+IDkuhEbe398XrJxvq8mbZTabha7rGI1GSKVSKJVKgpyQNGjmZR7vw5Ibg+/7MencebRkB1yxWEQ+n4emafA8TxR/5RTUTedQLioTk67ItT8iBztNSxbbFxYWAIQknrcFJCbVTZeWlpDNZgX322X6KEm7sQOh08LGxgZ2d3fvVEwfp7yn6zoWFhZgWRZM04Tv+2i1WnAcR4DA5vF0Kkchvu/HKK7fFhtXkyKCuYWFBSiKgr29vRg2Y97m8T7HSn6AFUURdODzMh5Jp5HJZFAsFmGaJoIgEEqLAKaWYpS/b21tDaqqCsr4eRqb+zb5QCbXJWq1WixSu2xs5GeTnks62LVarVsV7W/sQAAITEiv17tRMX1c7tuyrBgN83A4RCik1ESr1XpURdMgCER6Qqa3fsqWrElRE4Ou64KcsNPp4PT0VOAAms3mlYX1t8VkDI2qqmg2m3fij7qrJZ/PVColWrPpMNftdkUxfFaHJPkQQnKy1Wr10aX7pm3JGgml8i8rtsudqblcDqVSCUEQSknUarUY0PWmc3krB0KFlsXFRZHGmiRKlVyQhmEgn88jn8/D8zzYto1eryc4YuQWx8d4gidAYiqVQq1We5KL/TJyQlJ9S5ITUlGVyPA6nc5UcCJPweQNgbqW5Ghk1jZOV4M6qEIVygEajYaoed4Xzka+rsXFRZGRODg4eCuEm64aG7l2kc1mRY2EHAmAWDRnGIaoNVJB/q4p41s5EEKmv/fee7HWO0pJyTenaRoKhYIQZCf9dQLvURg/LwCwuxrd+/r6OjjnYrE/9nuaBjmh3Bqoquo7JyKZnKJYXl5GEARCc3sW45OcU0ody8Xa09PTuahN0XX6vo+trS0wFmqST5sy/jHaOECi7/s4Pj6G7/uoVCrigL+/v3/h+byr3cqBAOfFdDot0QlT13UYhoFCoRAjsut2u2i1WrFw6ameIGRUNhBHID8GmyU5oRxK67ou1sTbvAkkx4cefALZycXSaXy+fLijg8BgMMBoNBKofrnXf15MJlxcXV2Foig4Pj6OpdPeViMH67ou3n//fWxubkJRFLx+/Rq7u7tQFEU4kmk+Zzd2IPJpgDGG7e1tHB8fC2ei6zocx0Gz2YzlSp+ywxhnFFlVKhUcHh7OfWvvOHLCVCqFQqEQIyfsdrui2HbbOU3iRKgb6ymm+25jcmrCsqwYv9g0dDWom4cxJlrgHwNFOt2LHKkZhgHGGN68efPWpbWSUeTa2ppYH+12G6ZpwjRN4WgpBTnN+b2WHkiy7zufz4uc9wcffIDj42OcnZ2h2WzGilxPISV1F6MoTVGUudLLILuMnJC6MxqNRqw2Na0FKDsR0zShqupcjtFDmbxRrq2tAcCNurSSrZrlchmZTAaGYYj08U3aNefNkmktwqgRpdBju5/b3Dspai4uLoq69P7+PkajUYzteGVlRdQ/KLU1rTm/4EDGOQyZwE7TNAyHQ/T7fdTrddi2jUKhgDdv3ojTwFOduJsabQBLS0vgnMdy2g95TVeRE1JDA4BYVDCrPDylbN5WWdjLjOaKNslarTYxWks6jXQ6jWKxCE3TEAQBqtUqBoNQbfOpZARofEKht7IQbZJ50p6KyUy4lHr0PA+O4+Dk5GQsBkd2tFRIl2skd3Uk7MWLFzxZILUsS3RK0WKktlrP82JfHAQB3nvvPezu7oq/f2fnRg0Hm5ubqNfr997a+xjICWkTWF1dFTW1p/bw38XkCJHov4mTiGqP9Jzato1yuQxd18EYQ7vdxtnZ2Z0AfvNu8hovlUpIp9PgnIvc/2N2lElg9dLSEmzbhuu6F5h7L3te5Fb7lZUV0e23t7d3tzbeL7/8khM6mNhrZS9OLWGT0hee5wndAwof31ncCI2dTqdFGmLWFDAyP1E6nUapVIqxBswbOaHMKaZp2jsnkjA5WiOiyd3dXQAQ/HS6ros2zWq1CgDX2lyeismn7UqlAs45HMfB2dnZo0tryc+waZpYXV0VabparYbRaHSre5KjmPX1dRiGASBMj96mRsL+6I/+iPf7fXDOhd7wTTYVAoRtbGzg9evX4uTzzs5NnjBCY08z138VOWEQBOLEMs/khHLKj5zIu5rIudGG4jgOnj9/jmw2K0C3AHB0dCROk/M2t/c9TgRSLpfLguSUagPz6kyTNcmlpSVkMhn4vo/BYICzs7OpMYnLjoTUMykIuIkjYS9evOB3KZDKmBBZVeudxU0+GXmed2dt+eRiI12SfD7/qMkJ5cIxnR7f5khEBm0qiiIAdaZpCiJRz/NwfHwMTdPeaschW1JnwzAMGIYhIAfzNE7ys6yqKlZWVqDroaLp6enpTHVBkjUSklC4bo2EvXjxIhQ5vcOF+b4veHLevHnzRDTTp2+0CSwsLKBard7oNDSJaFLuiCPMwGMnJ0xSfMsaBG+DJdtuKZqkPv9qtSrE0QAI0Gq1WhXEg49pvmdp8nOzubkJzjm63a7QY3nIsZLn2bZtIbDlOM6dKUZuanKNhCISIExteZ438TpuDSRMDoTrutje3sbe3t7cYx4eyuRCn67rgnBx0liNIyfM5/PIZrOwLAuu66LdbqPRaMD3fQB48IdiWpbkiHrqYl1JTrFSqSQOBlST7HQ6AOJzLI8T8RvJnEjvLLQkeFLXdZyensZwavdh41iNiRix3+8LvM9DHfzkdbi6uio6aw8ODsamtqbiQIBwkcv96o9BM/0hTNaDMAxDAKCSbXfjyAlpQ2i1WrHUzmOMMq5jci74KeJE5LlOUqQHQYBarYZWq3VlzUrO+ZMk6tsWtV3HktxalmXBcZxYR9usxkuea1VVsba2Jg6FsxaLuo3JNRLCkYytkUzLgRCQZWNjA7/5zW/eFdMvsSAIRGsvMYzSz69LTjgvC23WJjtc3/dj/EeP0ZInUFmMCYDAeVDa4LrznMTUBEGA4+PjJ3u4uIslC9W2bcPzvBhv3TQbXGT9F9LCIfr+aXNTzWqsZEci10im5kComL61tYVqtYrRaPTu9DPBZF5/TdNwcnKC5eVlQc1MHEiPrQA+K5NrIo8RbJh0GpTvlmknGo3GBeGk28x1MvXX6/Vip9t3dm5yPZGaNprNpti7bjteyVolHQhJRK1erwN4XOlmef3KFDJTcyBAuPERkIeK6e9sPDkhdU19+umn6PV6ODg4EAjwJOjrMSywWZvsRGbRCj1tS9avKBWZz+eF8psM8JvmCVSWTlhYWIiltN6tp7jJ80S06ABiYnnXHa9kmqpSqYAxJlroZ9lNdZ/jRfe4srKCqToQKqa///772NnZmesHfNZ2HXJCYihOp9MAgEaj8a6D7RKTT9eu68Y6aebBknNOqm9EiNjpdNDtdmMn3Fldu3wddA2Hh4exzp53dm7yCZvSpUSpfxXwV65jpVIprK6uCooRGRD7lJw33fP/B/44ceBVmvyKAAAAJXRFWHRkYXRlOmNyZWF0ZQAyMDE4LTA2LTE4VDEwOjI1OjU3KzAyOjAwrldNQgAAACV0RVh0ZGF0ZTptb2RpZnkAMjAxOC0wNi0xOFQxMDoyNTo1NyswMjowMN8K9f4AAAAASUVORK5CYII=;" vertex="1" parent="1">
          <mxGeometry x="1020" y="2160" width="215.38" height="140" as="geometry" />
        </mxCell>
        <mxCell id="j-AlwjU4qzb6VtaVWcLo-146" value="" style="rounded=0;whiteSpace=wrap;html=1;shadow=0;labelBackgroundColor=none;fontSize=14;strokeWidth=2;align=center;verticalAlign=middle;opacity=60;fillColor=none;dashed=1;strokeColor=#808080;" vertex="1" parent="1">
          <mxGeometry x="1339.5" y="2160" width="481" height="420" as="geometry" />
        </mxCell>
        <mxCell id="j-AlwjU4qzb6VtaVWcLo-175" value="" style="shape=image;aspect=fixed;image=data:image/png,iVBORw0KGgoAAAANSUhEUgAAAMgAAADICAYAAACtWK6eAAA6T0lEQVR4nOy9DbxcVXnv/30mp8eUxjSGGA+IcEK9XP7ceGakKUWMOUelvqDFN3zXnCgq2mv1z+VSLlrKh+ZSpLSlWq2vYBKpL8gfEZWLiHoSYqDc3PTMgfKnKdIEIyZpGuMxTcPxMM/9rJeZs2fP3jN7Zvac2RPmFw4zs/fae631rPWs9TzPWut5BkgB+dFxVDUnIjmF4wSGUBYjDKDMkuMgyn6Fo6JaUpHS1OaNaWTdkyiMrkO1ZL7mEBlQWCqwDFhkLiocFjiAchCYBS2Ry1Gc2NDtoncN+TXjhjI5T7OFwHKUpeU+psK0wF6UI0BJhVT6mLT64MiacfOwYbDnIrwMeJFpe+Ak3PVcIJeSZRTYBexQ2CxwF+geRWafKsySHx3PoRyHsBp4KXAWsBJYXEUvB8NB08CDwP3A94BtwJHi5o2lLlVhXjEyOo4oA4jtU6aPjQJnAsM1fczRy/SxPcCkwj2uj/GI6XvFLa31saYZxDPGIoQ3ARcCqyqFFTv6xWagKIKgSklgRtGtIJ8XuF2Uo5MtViLLcCOfpc1pwAeANym6XJCcyhx9yrSp/Y7pJOZaSRAzC9+M8mmBneQoFSeOUZoJC1HOR3ivoqsFGSz3sSBqaOWvYfuYGIbZDtyAcjPC4WKTg3FiBvFi1ICIvAe4DDg5qsBNQy3nPwx6FcgtZiRothJZhR0B4VTgSsMYwMIU6GVwFMcoV6nw6LEyA7s+Rk6ECzzNTk+xjz0GXAt8wcw0SftYoqzzY+Mmk1WgnwZZZVtJmi21xmen5Q+9W1T+K8LOXmYSTy8z4n0IuAqsWNUE6tAqkETRw6hcJcInEJ0pTmxqs+Tdg6fZaaCfAjnXXrQkaESLBLQqJ3Nzy3ZRuQhhR5I+tqBRgpHRtQMgHxTYBDJsy9I0c1C/EuL+BDkV4e2gu4aGC///vt3FsMSWeZhZw+hhYkZ4eB/CYPMjYIIHHL0GRTCd6WyQiaHh/PS+3cXWCt5FWN0M3gh8A+S/lPuDQyNaJCSu77eCnOj6GP8+NJz/P/t2F+vqc7Fv91aDQRX5uJiGbmKqS8jT9V4wi3Ilwp8XN2+cbedV84n86DozRhWAr4szXkSibfqE32VnEx4R18kme2n2NQOwIH/kZ9qB1AgTAQ1OSk6p/wxwMaozxS3Rs2/YchJ83SBiFej3I83JgSnU0RBqPbDejy6Zh5GfUR0R+E495iBF5qi8yyn7zwW+Y/rcyOjaFHPoHEzbioptZ2uu7SBzEJ6UxPb9PwA+jzMARCJSxLJcLfLXwHuaL3SS8XHO3hC041S+S+X/5wBPDK0obNu3K7viVmF0nSn/qYh8H/TEaBE0WPw0NPUQ3dzQ+HSQ14DcNrTi+T/ft2uyzXw6Bzfw6R8h8idOOonqC/X6UtJ5OKaPVfRozSNy/NDw8+/at3uyRtyqYZC8tbzIB4E/rtjPmkKSRyQirdQmcfmPKUwNDT//4X27s9fghTXjqLAE5NvAafH6mQT+2kUM3cQyytP9mtTNJ5zy/KN7M0izvNPTDCN/GmFBZRqsIKp/hJGUjnF9rDwY28/fBg4+a7jw92Edrkp8KYxZvWMVcLWfgrKAAYHPKnqyK1+2oKJmJLzGLmB1WERICoEzBa5RKWWlDSvwfexk4LNWrMoGDJ2uNnQrrFlXc6MCVR3wXL1ovksYC9fplgtcr5oZprUouJHwXETenRXmsHBleTfwEj9aZwaqZkCR6+1WkazATeymz39WRauYttLhvHny3X4G6RBaVCNcg58PvCxLDa4wCHIt9rNrZYiG2LJd182yhTFiLaPyCtuWNSvinUeCPEzff3ewj1UYRNRwkFze2hpHUrT17gG7uqrtN3h+bNwtTLUBaylS3mK+tluedtCAoqZsb8mKVUscs14RJVrNxwTcMA+X4PLyplHKDJI3BHR7q07ubBHbgCv8KhXWpDCLrATekR8bHyiMrWuxOJJDuLi+qbzLcHrkxarS9TL6NlvjR+ksw/DAm9xs5xtX3ej8rjQau52pMvxsxLuMwn6htl/OpcAXgR8Cq/Nj47kWGOUsu3s5YlhKUI+m7tdLX+9Zf68gYsvabZgB5UIvCVg0WY9Eaes9mygPIafou/C6SM5dk+faBk9hnmvnFeFna97lLpwnbnt4Oyj5uq9W1DDJlxQdTsokXl97a9z9hvVo8n699EkMoQJvzYDuZtrsvCqrNNHfw2iWnnFpk+YhyFmilifIjYzZrcUvy5DJrREW+am6HVQWhAQx9X4b8ICiV+XHxpc0YhRxtHpFm2WYH7iWf0Vw5O4S1gRl+4xjwPCEGQhz4k5pvSjTsnQQTq5+USGlEVHnJlfTeH8C/IOia/Nj44OxjKLWjj9cHna0hWm/01ab0PuH0e7plyNj1kgw2kof64p1y/WxFwrkcpQkh9qTgL2EM7U90tXbwTlc1k8UjdFPZCQ4Ije7Pp7WenqjPAIwI2LXrG2itjQtLaR20bp1Jmguh+hx/phsDDK5Beq0NEol8f9yfh9YRT8pm4WdLK+n9cyM65AzZX5el/QQN5jpc7uSeeswPHHcAMhQffk0S0vEFQyp24E5U77gO/DLKicdHXIx31d4JoiF34Y2oOjb/CLlX+fHxq9DOQzy7GySJQZ2T548u1tF9sdlh7qUfasYUGTIMMaSrIyGZbEpfMY4AgM5ZxU5UL5gz3ijHw4oz5F1smfifT5R58DDZfCfixT9Y+Ad/tzCspTqUfVMS3tDk2OJuK063XD4sDgDRoJmkRNl8QCqA51dPU+G6i6F/1UntUatxtonEjN7MLcQQ0SmNaIW8DfA/uRvTrr5P502qDeouC3lXYDtYzQljaR5qKz1PHQwh8yJKd1Ec4qr3dZdVe7grBC8Fv4X90zU94j33gm8ENjaqC7NIPUDVNGY6Zq4LM3nnZGtJ0fNKHwwsHDWNTQpYswoMh28EBSP/PtK3vtKuX6lwPWTFV1v6hzFDOHfiu407ypObLwt7/Y1HSTos6f1eiRGW+911TjUJfEKRKZRnQUZmAdRMq02KIEcMorIXnHKbldlxHIHD1asTkUfF7TmrHr5Hb5jm87w5eLExsfD6fJj4wV7zLMO/DtMp7oO+IQgh+11p/D+JP5YVFP1SIz2G1x3d82wYJ0GimmHkzvNHKQnrs6A7s155tiVxhvbRbhidSq6M+Z60lmw0UhqmO/LwPOBPytObDw86d1+Tk1sMqV6uN47mqjHfMGMhju77Bbo4W5m3gIMT8wMKNbL4Q6UM7rfjgngxIXtbigPXp4Tj8LiVgRKddLuAC4BthQnol18KjrpvfZl5qxFA5iydvHsraWvabOX9VAf2wHuSGZJYXNz8qmG/mrf3jhd1DMa870Kppw/DPtaDS7zBX/XQ+j+fuAi4HcFmYhjDv/kfoWH5ooXRYN69YiqVxIaNbsvWMuXHmpseescips3GSHT97EW61H3d9TzbeVhymnLm7NuK1Xv9u4sE0LqOCEIGziTOCuQUPrw9yocRK0T5yrEWbFiUAqsf5h6fxJ4niCfK05snJ1s6EVdZ1HuqC0/CesRVa8kNGp2X3Dl9x3qZpHuQXWrM5i0VY+Y31HPt5XHUVW5q7h5o9/uLrLHmi5TMpN3zNruXnwbIkfCtyKsWNSZFUuKmr+7vdn2w4Lsb8wYDlObNyHC11q1CqVJnwTvMmX8Srf994prs9viCpyRI7dlbBXBGncG/JOz1oGWc2PZtrm3g2KmGblviKpqcCU8wUbGQ8BbBbnNvDMpY4QwZcMRKKubrfA8rXuUyWTK+GCKWbYEERvl5AaEdVEW00yse2BpVrK84HjCMYOV54VvUyVXdwbNnByrval3I2yPivXQpKVoL3DL5MSGVpnDiAzmf9dGzSIt1zF9mLJdW8qAZjzpwjRst22Yyf2vFRh97dvlPhZ02nDU7zMqJZTjvSoUNZrXfi9/RjXVnEoVvYrtMQNylYhEytLBmaORgl6c2Ei7cTWsL1eVO4EtWqMD1auH1qiQ1aYMraFr7X0N0FUDaTTwvMUWgTsf2JKNyFQidj1kvbrYMInrEUUrUqaV/bNhv/RKkTl9vMIgk24WuRW4W7R2j1JkhWPuR+1DSqJ+hju2BE8kwQbQ+xuM+JX6tHleJBEkZ6fhy0Q5EraeRdajcr+eKUNq6Fp7XwJ0lUCauXviQpFdWiJ6QOkGJp0edJ/ABtPHEtUjhlakSStHL/PrbpDbJgODZ0jfsNsw/qu3FGUJj6pyuZBLtDgXYI6Obq2YExv4Ky+7ZgOuLH+B6o6pzdmYPcoQkZJpS9OmGetjB33fr2rHKgaxK63KI6AXeYU4ZTT5Qjf3mZHwnQgHJ+s0dllJjxrBOwkfL/BqM/N2o8FrsnQX7gauKW7ZlB2m9TASgIgetG0KR8oV6KoVyynkps8/Eg4dUWOxMsqJILeiXJH+CNxEp3W1mVFTcGVbIzNlExas1GH1N9W324Cb85x9FUVd1KkphbeXRJpY15pfFDfbLS/bUNsp7a7srlix3ABcUvioIrdGxVWJNOlOmlFR9C9AP9YV0cEzB6ofRvlykgil4cNP88koLvioHFDl99VZQeYfzspn8n6NiB54IOMho31n/LKCaeP5P3LhukcJ1Y8J/NXU5g2R/Tx2zaO4edMsyBXWFaM2twrblnjjCn7ER9D93NSWZCGPo5Tk+dwkaJlYdRfoK1Hum9eZxOV1H8grRWVXr8QqLJq2VT5n21qduDUvu30dvUyfvlzginpRzOouClr5Wvlz4A0o+5M2esujt3vsUdDfQ7mpWRk64jzHvM5+U/dsIqfyGKovB260s28nGUUrCvmNwMtReazVeODdgh8AbwJ+zxljOr8Qp24d7A3An0826GMNV80dwfV21AYZucXHD0wXrqFnQM1o8jsisq2Vhg5vN+nGNnMjbhW3bJr2o+IbbfjhTrS5e6d59xtVubC4eeN0MSPrHc3CiFsidn/d7xipwfaFztBs1vdhk8/tSWI5JtpWUnR7j/YAbwZ+3ytY7TOKVgp9p3cs9gGBg5MtLuLFHZvtBnyj3+rPlPypn4FLfgRrrXTlGUPtztw/VftuvXWqx2aNKJg2F2dq/QDoqO0Tto+12Y7lPqZsU9d334ywJ9U46UGMrBk3DT8IutrpCfJq75UweaBPZzk4IOhtIDegbBeRUj0zbiMUxtblFP2uDWjjYBjvhOLExgMtvzQl2IjBOV2G8jaQcR+WIHnQSi8zK0wJuhGVLwMHek2cSorC6DjOQbmNVXOhIq8V50kmWR/zCrjCYYFvg96AylaFmWYHk5ZlkMLYO/Fu9ReBjHn3pWfaOH1wItalqZRzMRy8x58q2+Edsm1DOCJzC25twTAI8F1Fz/WiVmYYpAzb8M6LzKmekV/gQzGcal3jBFtDmXb6mN1oeC/K3QqPijDbS2Ge20FhbK3pY6B6HCLnAC/2fex079gtuOnR6BKP+9OmO1S5R4QJyySipVYNF6kJ6XaUNHVxkv8gWlqMyIAqM5JjuiySmfp2Yut1mUHKM0gWGSSMvI9BgTAo8DNEluLK/jBKHhW7Z+lYEKHSwMjoeDAY7gBqB5VBVGc1J9OiUtFd0tLHUnPUEJruZ4JO3eYDUQ7f5tuK1SzKNHNeIaWqrO2KnMciQgPrrN8e0lFkwqNimui2FasVJDhD30eX0GvuIGMRXEUvo9c6XaC8uV4r+7GKY2oG6dVO1eB4cB9dxDHDIN3ci9Uu5ntbTB/JccwwCI4xerY+IYbO9RkmGzhmdBANnTTz6CWxpaqsvTQDHsvo2RE3DAmZeXsJEWfpj5l26XWkPoP4eH6D4XfHOXQO6w7Ba/XuRbwn1+Mdq5dmu6cMOiJiKfo3gqwjNDqGR0qNiOoUxSREzAxR7/Uh0yIZqRcQV9c+uoeOMIgPhzYY40gh8jc1rnOae6bee3oNZjbsM0k20FGRJK6DtrKY18sLgI3gmaEvYmUQqc8gUWKCog/6Y7TziVm67bA5IcI062Vz9bGGTolYYR1iXJApIhb0ovSMOL2ljHrpQ3n0BIOUcazNjMcCOroOEui4pcmJDT3VWdNGfmx8EXB2aBGwvOfKtMPCQPLjFH11YWzdrE8TnFHM83dNTmw4PK8VeIoidQaJM8X2Yf29rhfkrODFILMELi8D/r9QmjIzbVF7ErOP+UDqsm6U5alvkbEws8ElPi5JLrBuU1m/Ce4hC9736cvvuFRCZ0f66BxSZ5DgGkevm1vThPcmfx/w1fC98ObKOnS7CWjkwLuPFNGxGaRbDtwyDjPyXwEcqvX4Hv2PORHrEHBln5bzi46YE5Ms8D0VUbSubWQXcF0zx4F92usEeaw/e8wvOiZildHXQarhO/gngJ1RA0mMePWIeabPHPOPjohYvXZgqQs4DHy0HM2rng7iZ48rBOmbdbuArmw1earDK+y3+TgejbAFuLU/e3QHHWGQsJLZZ5RImJnhEmCmjiHDpLm013YEHEvoiA7Si6535ht+FnkQ+Ns6lr8bBdnebsDRPlpHR3SQMFP0mSQavuNf7V1mVkHRg4Jc1ZWC9VFBR2aQMPoiVjwEOQCsD5l9S94UvKeve3QXHVsH6a+iJ4NngA3W4fKcResR4JN90ar76OherD5zJENxYuNRQS7xynjJhQbrm3WzgE5td69hvPzYWnoldt58wtAFFVR1G3AzMATcrlKy7v8n+zSrQX50LT6UgI0XYsO2iZREKnpdamhbe86PjpsSGkY7GaSA8Fwf13xlINlNKP+gyk5BJ1Vkr6CzPhzwUwqWXmYAsTEvWInKShVW+AAxw/5cyMOgB1D5F4QHQR9E5YgIpcmnSGyQIBzNdAA1g4ftY6cBzwGWeA86M2DjqfzUx/mfVOQxkfb7WEsMMjK6FnHBc85GeDPoK8AGhclVHA4E3mwtW1oJRzAL8rAodwBfQZgyI2ivxtdLCjPqKSwWlQsQXge62v4OnPUQqSIa5ZV2QUzjbwW+oegtINOdiLGSJTxvdJ0ZRQwdRoC3InoeyOle6nESSqj3mplEkJLrZ/KoKHcifM1GHRZKrQQeaopBfCMPCrwFuNhyc9mnYSWyiUa8NnjNR9FxKNlIU3AdhmGOsehJeRtKzDbaMOjFwDqQxZYG0uTYpOrd4+m0IGY0uR7VXZLLcSxZulwgJiORyHlukVTPAQkxRFm3jaNhuY9V0k2iXI/oVwWZaWYWTtRK+TXrUNGcqJ6LyHU2bJikpOCXA7rDVkUvRWV70tjoWYaN5YguRuRy4IM2VJ00atiEcK8xSvwnFb1GSjJdvKf3B5aRNeM5QVf5Pra6A33MiKumj90NWipuaSx+NWypESczLxG4Bni3lfk6te7ngsn/FaJXC7mjvRphaWTUNvTZIJ8HzuggvQweUuW9Itxn49r3IHz4voV+A+d/A47rIM1mXFx5vRzkUCOJpW4xRsaMAm4DTH5d4Mx6qY0sveg3fp1TnjPE8uOXsGzZEhYd9+scPPRL/vXAz9n/b4fY9djPmJ2tEz16jtN/ALwd2N9rIld+zXhO4X0iXGdI0vEM52aTS4HP9RqT5NcYsV2Wi/B3CC+ZF/exjmY7FN4o8Gi9Phbb5QtGrEILCN+xUWsjUhqmGFq+lLEXPp815xQ4c+Q/M/hr0ZZjU6ZfTB/mR3//ABPb/oFt9z/Akf84Wq8CDwK/Lyq7JntEgTfMgbAe+B9NhcVOA2oHlo8BV/QKkxRG1xnFetj3sc7NtFFwfexx4FXAZByTRBbJzBzirAf/C/TEKIXymccvYfwt53HBq0d52tMGmy7bvv0H+cJN3+Lbd/2IJ2Z+VbW8KM7GjRcfXik5eayYcUU0Pzqec1tG+B9Odg76/wqaKOZ+BdXIWlQ/H7xe/XzZt5hV5Eui8jEVrpjKOJPknXRysutjnKESqIdFtbEnTKvq3y3QqvycyuOmj4FOTUXoJDU9Pz+2Dkp6EsL3bczzUIpcLsfbXv97XPj2V7PkN9uTIFSVH+/6Kdf89U3seOCfIhLY/98P/F5x88bptjLrIPKj6wxDvA/4VGqKZStQdzxXkA8ofCHLTJJfM74Y4XsIZ3W1IK6P7VR4qQh7wguNC8Lph07JGyX8ZuB3wsyx8GmDXHHJOsbf8kp+feHT2i6biLD0GYt5+UvO4sDBX7Dzxz8JJbD/fzZwwtBw4Vv7dhczt3fFyNAILwA2IbRPlHYglqaGai8WmHjWivxP9u0qdrVIUciPrs0h8mkr3nR7o7fL/3jBSkxf27e7+GTwdhWD+FXei4H3hbflPuM3n87fXHMxo+cU7Cxi2iGtv4EFC+x7Fz7tady/46GoCpjC/+OzVuQfylKDGxka0cUg37SM3IXGjlp1AgYVXiBw0wkrCk/szRDN7NYaeCPI+mAfi6lHqojNw10cBn45NFzYtm/3HL1y1QXXU4Erw2LC0wZ/jas/8j4KK/9T9WpvSjDvNEw3/uZX8I43vjxqy7wpz1+KyrLUM28Ddg8QXIbMs4IZQFyDi1F6kcs0a3OubUO5LtzH5oN8dfNw5bnSMMqIY2KLuUKWJAdypV3QCiAnwofe+0bOXrWyI8xRVUYR/vA9F/DC331euPC4vV582NrM24RREH0krHYxDPLBNF6UOhzNPuhHxkzAWvngw74tswjT96/y26gsglx8GvCmMJuteUGBt7zuXGvI8iOm/Yz7a3S/0bO/NrCAP73sPSz9zcVRFTCi3/IUCLFK0ZPaYRIrjooVRyMLmhGYsl1s9aQ2YOhkBhVreWoPRgJ4f7sv6Rhc33+T5wULyyDWRClcpGjAw7gyMLCAP3zvBeRyyWeOckdPMtvEpXnGkqez7q2vjCi8LlN4m9eV2sFqo9Mo+pH82PiilhhFbedb5yzS4TMwYbkmzpFeM4fKNOJd8e6V7HVXtnXaJhP7PEzHHml19s1bfY23gS71bRnKoVGwpWTpq9O2lMdCRS8acbNdZQY5bm720Io687rz1nDqKSfWKUgtyp1eEwi/cWnMOy44/8U859nVk4U6OfGdms45lsX+PHhR0bflx8YHkja8NYULF4Aujjo5qSFGmSN/+KSlVDFJ+N/cm6qfqm3oqOcq6RaL8PqR0bZFylHgf1tTNgw1P5vYIxHj6teIWqhHLD1TpJXddCvwJhHLE+R8pzjHVNopx+5vYMEC3nHByyOrWrY+dRK/vvBpvPk1L6XWhy0jgj1z0g5KgXeeCnwJ+J6iZ+XHxnONG996Xn+dhryQhH2TUO1bt0LbapdI9fzyhtOHfR3XXo/5/TrRVKJWDQJ/oGgR+FBhbN1xTTCKabOVrdaDED07Qau5PGQI5RwzEOb8VPzSsFXhtN96Died+MzImiaZHaIYKHytEZO96Ow8CxbULNWYkeglDQtQr2y1sUtM3ceAe4DPAyfVbXi1o8vqcPGlgaUk6n7HrTcug9V+M2CLr7AvCS46mqn9ekXvBV5tBpUEr3lJpwM2pYic5QlVe7Ith9rIRxUYgpjOGbXeQaBjR61p1LsfvtboHc8+4Zn8p1NPiqrAC9yxy9YQdE0UHGUEGfQ7lh8APlIYW7cwRuw6I2ztyzgW2yMKKULcGY0R4JvAt/Jj46fH6Se+rV6QZv4dhesOZwvkciADvsErMEr57/72f+m4GNUICxbkOHvVGdUXnZ400uarS2H/XSGGWeL1E6PIvymon/iFrpU6H7tOEyDhMoeR+1cG7fstoCQhscV/z4k73GTEro8ruryWSWz6kXrT5Xws1zSZxxmKDgwguhTXISowjHHCs453RxhFqkSq8u+oz0pBQs9FvSMqbdTnCcuPr93UJzJsKpAfGy9bZ3Khz6rvPm578Np/bkQd3wlOFeQrik4oenlhbN12VS2BrhCRTDBIoiFMyKmyopO90M++HwLepOg1+bHxzwly1J52dOJ73fWYri8U1mKJwtIBVJaHt2YbBf0ZS54en1Gog9ctVCBtMzNSOe2y45fU3lQr3nxKRFYH3XYSYbWQkKIcYpQkMCPkSxS9R9ENwHqQNNZi5hWCGB3rQyF9oTKwyJzL2PBgUx5cViYMZTEkiNFP3mUGlfzY+F1eZ1vU9X1XTcCFwJNlA97EW4Wlz1jMwILmB8jwTBJ3LXw9bnbBb6sPz0C+8QbNFCiBcG9RzBDFMBoIPy2hUNNRDOe/D9qFSng98GjTxOk2hNVC9YCSxIdZmE5R6cK08vEVC8B3BPm2otfNy0GoFOHrtCgXJZlViBga/RvNAEksV+Hrjd4btewWVdbw90bpo9cvohf0fMOXfIzB1/mANi2XoVnEdcxm00eVs9oU2l4Zw3n42ed8ZxnU1OqR5jP106s1ux0p//BeMzj482lmnywxkMAoV69ztypeBXHg3w55jx7BYtszD9/0pw4JmCArn77S9nc5KmzA/61R8s+tl2+IaHsUvQrYIO7d77ReM0SrFq2ing2P1EGU57t6s1y9csXNguEnAtJ3KfxsVD4xDBM7A9TpkAetxxp7BpyfBd/Raj3CM2AnaBV47rBhgf2OcE7pNA89+aTy80O/tIp6t3Hg335B+PyYd8v5F4HfUY+WItY7ynh/IwbxMIPHZ4Br7fn4iY1lk+X+ujmH0ChV1P0oC1tU2rBYWZumcjrzdoRvlZkkMFiUArSJG2BM+ov8WlESzPqIvFcCjznGkMMS2PLSUj1i7qdKq+p1nwMDIAd9BNXKVnLVEj/b92/2vPnctZh9LE1er4eoZ362/0DUCLXLVKBVN5P5sfG6ndbnd6d3hPBQcWLuZJ7btCn/4mexmhExPGPEjVhJ0jSLKN0q0NjfFNEbJ3/YvKdBv2j68qj6UWsAuV+QSxTrSrXkBpXxkm+zROb5OvWout8OGuXheeJgznN71SmlJ0sl7vs//+gq38IBKBosJtZ7Jvj35JMl7tv+j9VaiPs61Y7lvF4gfkUfBl7jD/M/GGQOrDd228EerF5Z1oAsr8SsF4RnwZg08SVr9L16hKxqcOsTqhXmCKAULmv5nxfV9gDvAl4IbDV0Cw1gU66obdXDX2+ENvNwyQxPzOY88e4L97et9xUplVo70hxmklbx05/9K//86J5akig/StOvr2/gg4peBvy2EUciGjiIB3HuQD1qp+lotEOPuDzi3ll1fVrn9LXU4Ol2xIu7zzM6WnFi42zY06P3GHJv/bInqkeDtI3e20we1iBTGjAyg5b0+yL8d7/iah/Y+eOfsOfxf+Xkk541LyvqUebhLfdNMvvkk+Gks95vVsvw4lFZJJgBvuojySaKQ66qRxHZiur5zuOLBvQkCSvGgZFLAr8l4npc2vjfTjSIuu+vOZelWwVifCwlQ4Q53LTDHd7Z20PhmTYMdW02K5X9WE3Woyp9HP3apNVc+lkUwxPkim6l08iLe4MvMx3zplu+617ThXOb/3H0Cb7+zR9WXyyLV9L+OoRXUu8HXirIu5oJ0m9ENIFvzBE67pPA76iRLHw9Lm38b4m9X1WWb3i/WS0jGAHLi6GvA94QJYbG4BGxonE79Yiic9q0st/3A9smN2/EW67sNHlzWMy67Y57eHS3C5/X6inBVv9uuf2H/OSn+8NELqF8yXJ4ezCVutDIy4JsnZzYUGrGAXRxixUZbvUu97MOU8ZbfZnbgZl1D3rDxfOBbxtxKqmhRNzM/6V2GbXjcDxwc3n5wzJIcfMmU+jPEpqGfzU7y998/hZKpfmdQX5+6Jd88St3UHWkxRXhgAo3Fdv32XtHnLzcBKZBNxgRZm4xM7guUo3g/ajFT418KhrVaqdGXg9cuFGr9KXm4RXYbyr6PEH+ojix8WizFkSjhyjcpHAgqrx169EGms9DDQ98tugdqAcXf3ZGzSJb7i3y1W/cHV6r6xh+Nfskf3LtFzj0CxeBLDQpfkZ0jsCtwjRuu5GIrOKpXG+UdQlb0GMEp+AkH3c/CaqFBIm87mEY4+NTKTgBF8QMKo+3E2pBVA8IfK7cx5qoR+t5NpOHLZd81fOCRXDHa8kv7FTFxitpiU98/uvct90ZQVo12Sb5M6LVJ79wi/XfqzWmXX3MNHYKokJ6ENkFfLIDu0vSwif9+kNbMExh/toeVKxrT73eLh5mk2aHrVcTmRMDKwxiQw24Br/KyInBDvrEzK/46J99jskH/zmxd5JmdY5SqcTGr93JTV//btS+nhLIJSJ6cP5olQBuMLjW+RCO3ItUdS1qO0r9vWGN3xG5xcXJcGZEu7bLR3pqIVaPuSS4jhRbjwCCaTRiX1fLtJq7YCcIgV2TgYGg6jzrvl2TDA3nt4OcLchvBeeho0/M8N0f/D3PeuZSexw3Le+K5Xdfff0mNt18Z/XO3rkCfFHhY1mLaejoVXjCjC+CvBkYjNywWSOA1V6LTlOGVi3RBd8R9U5FD4O8WeCRrIWP2LeraGj2EHCKVfYlvh5Bc3nUomoatAqYdr8HenFx86Z416MGJwwXnkSZQHg1cHyQSWaffJLN905y+N//g//ntGHrq7fVNZLyzPHjXT/l8vWfZeJHOyIS2f/fp/COqc0bn2gpow5j3+4iJ5xS+ClG+RTrazaFMTu8jhKltcQ+WhLkQyLcXty8MZOCjKHZ0HB+AuTFwEnxVUtS5zZoVU6vYnSON4jw87Cb1hoG2WsKf0phGnQLIq8Bnh7Mz3TqBx56lO/cvc06VDjt1JMqjhWSMIt6q8++/Qf5+Oe+zsc+8Xfs+VmNObey3K/oaynJ/n2PZce/bBh7dxd1aLjwD94pwer2maTFx52Y8GcKf5Vlz+4GJ5xiZl79HiIvB54ZVeVke67aILXrY48Dr1Hln6MklNi3+1jUI2CDmwS4vJpjh5Yfz4tTDqDjo5VOofoaRXZNZUkxr4P8qI0udZWgH7G7o0OBTWs3xoVHv3hoVQyM0HcXFNUyh5GjeyWATn7NOCoMC3xL0ZWRB+siaNWIcerSqvycY449oK8CmWoqgE4ZI2M23PMw8HWEVfXSmhct+o3jbAi2Zx6/hGdWQrBN868HDlVCsP1qts4anyu0ady7Ud6uogemMqZ3NIIPpPMe4C/jQrAlZQsNbYqIN01a68slWY8JEgXrhE9Ly0D+zh5BaDG+SiJaBRPDdudlXnfV020btpN1GUlpMcg1vuE7E8TTFbq88e0aET3qd872HDyTnOV9bK1Eku26agpz2sWDwHuB+3tl5gjDRgQWXQg2IvB/71gQT0ezGeALwOUiMt1oXSdRMex5gJLl7Jcgep0XvdKJwTc3a2xB9VKQHcVjIQz0qA1jtxjhMu9lfXFqje5oNu3XYK5Vlempe7Idoi4JvPf3MxF7CnFNB/rYlO9jP7BnVRKI7k1l78P1DjoP2HpJ24xiXejIVpTrFO7M5aSdrR+ZQ2Fs3O1AUE72nuDfXfEG3wrN5hjjRhcYn8eM3H6s0axUYkCEV/h9X6uT9LHQoS38DzxjTALXu50iOpMkPvrce1uqxFqTuVFIz8LZ/01lTvVWnFzNm+fKXAoc0LoD9CtWRCjlKB4DI2A9FFzQysWqvB6xO2FXe2bJ1aFZyf8Zptii8E1RbkWYztr6Rtrwfcz8t1KRtwqc5x0cDihq3RSV6VXFHNaSp7MgjwJ3KnxF0O0gpVZo1vYE5kMRDICehMqICqeLiytoGOZsvzHwILDb73GZdNuJdTZrC3/zgZE1axGriMpC1LoDPUOF3xJ0uXPBZJvkiKWR8mOFh0R4UOGomXGjIrEe63A0sx5Al6MUVDhN3ELjEmCViFi3qnZLvvI/Fb6Iskek/T6WuirklHrrF+nzAmsV6xjbjH5MtbmX51iEs+Ko0VdypXIoZLVGYiN+kvXw192A1e+wHOHi0gsfKZ+9V/R1xYmNt6eVV0d26uTHxs8C7vHuKO8HXjA5saFpxTs/Nj7gvRrWmP4aLSD5E28/SHiYp48ehHcmsR74404xSOru6L1ry7/0ng/x5s51hbF1N7agTC5S9Fveq2EV6jkH88Q6Ishvhtz293FMQUO7sNLfWZOqO0jP0W/xCmgQVwFLm31fqzs2onZz9nFso1Ntnba/1HJYszBOUvSyhIFWUkMq+wb7yCx0Hto3tQ7rZ4//V7BbU6L8PP1BMHpoEmjdAGX1/4U8BvZxjKOxX7HWkIoOUhhbZzrzc/1BmJh991afuCY/Nv6GJhTnw8DvRzFygp2es33949iGeB2kk5JCKgzirUzrBWkUbvh84GX5sfE7kxzfLE5sNJ38rjTK2EcfraBtEcuLVmPABeVrUccjA/ldF2WV6qOPVtFJUToNHWTAd/qBegUN3FsJvK/5ONt99BFGtYk3c2ZeH6zx3XYHpkejw/ceVwJDSQP399FHNDpvhGmLQRRdZt2kNG9lMs9dEbVC3kcfyRHvxCEttNxBC2PrzLOXm5kgfC+huxUz8xT6s0gfWUZLDGL0B0VPB94fxbVJ3K0IstD7lEp9u0sffaSFVjunYawPA4cUPRRxf0koeu4Bf9QxjNMVXdNuOIM+npoIxxzsBFpiEEFKin4A+ycVwSngX/bTwPsCB1lepfbQSq1TsHrRnvroox5inOalmkdLDOJ35UZ2bK9TlEK6R2lqYlOfEfroKDJn5o1CMApRpywLffQRhES4bU0LfTNrHz2L+TjWkDqDSCBAPf0zGX10FJ2XTjpqYu0zRx+dRLUTmN44MJVKkPc++sgKUp9Bqp0zVzh7oDC2rr8g2AHMx4CU1Tx83/KBaDNk5q2HcAF9we9NO58+HOZjts5qHuHBuBPoiJLeRx/zhU73t3nVQZJMf+1OkU+lPGjT1PlUy6MVdEQvUPRfgPti7iV5vt38nzJ5cAx14JTyyFag1z76OJbRX0nvo4866DNIH33UQWo6iA2jZb7YwJW5QR+2LYcyS45p+4nb5Z4kss9TAfk1a513JyEn7vzMcf7gwBFBj6DuKECfXg6WXq6TYfuui+A1AFpSkWlRncEFNE2NZi3byHwU3Jwv5JiiLxLkTO89cciFQKhEOJlFbbjdh4EdCj8U1a3AUYTSUyVOyFwsFZ5rw9nBC4CCYiO9Hmdo5vdClyyDILt8PJV7UX6A8Agwe6wHzynDhtJQ67dgIaKrgRc7ByFyOnCij0tj06qj2V5Fdgq6Q5HNomxBdLrV4Dm0wiA28m1JBhEdA3kXLvLPosSh2OYiJx0EblcbR0S3i+SOqfBrQeTXrDW0WabIOwTe6V0fudm7Ec3mDDpmBn5Q0S8JchNwoFeDdjZCYY090j2AyFnAhd7h4NIW+thhH8DpBpQtKjIztbm5PpaYQQqjptBWZ3kFcAXoKpCBZG8IxgsPZOt+zoL+AGQ96LZ2uD1rcDOGLgO5WO0Jy3Ijx9DDInwt8Nt+1ZIiBwU+A3zcM8r8VaqD8PQyksc5oFeAvATHKCG6xNEv4re9JLM+7PN64E4bwDMhzRJ17xEnGpws6PUg59vRL80FzLnwvJucpxQ90Oti18jouNErLvCxUk6yF9ONcmuwR5VLBG7udT0l7wKeLhO4BliberjxymBspBa9WJDHkjBJwyKMrBk309r5Ap9FWJ5OaWPgKmHk7neibO3FRjdys6ouFtGPg6xtNTB+IsyJEptQPozIdLFJESILcHHSbUyZLwHDHd094mi2H7gI5fZGIccX1LtpZGcR+SOBT6vw9FbD2QSnvLiNKDaVkSJEl4gNwiN7hoYLD+zbXeyZQyUj1nBhG/h2kFdJoKrqvZFrlaOBOWjAW3kjVFI5eplsCggvRblraEX+F/t2FdOuWsfgY6O/E+GrIjyzLEmmOdlW9T4rrvEboBcgMjM0XNhWr4/FMkjhReMD5OR/An9i0knLJZaq73GvkaoU8msIrwJ+PnRKYXsvMInR0VAZFuF/CeTD9AqempaIDhDwCNMQNRR1F56N8EqQ7zxruHBo3+7sM4lnjj8Q4ZNiLVXuepoTSGTvsw0gOW9JXDg0XNi8b3cxciaJZJD8qBWrLrXMIQktB2nC5bdA4VxEdw+tyBezPCrm14ybMi9D+K6N5d2NDc0uz2XAuQJfP2FF4cjeLNNs1NLMzByfTF3fSArHMecoHB1aUdi2b1ftQFwjH7v1DS5QdH0r8nOUm9Hw5rPw9UjP3C7O76Agn1aV1S68dEYhLAS+grBSpXayi6JDFA1q0zR+R9Vvl/dKUxZVW6ZMwnnmtDrHpxEGTbkbOT2PCqnRFq0CITkE1qNc4NepqlDFtwVrSdDTQO61dufUuLoNqdIr7gq/k4MDkxkzaeZH1+ZckFL5SOcU8ihzcN3kRlz4M+DKrK2V2Ghkap2e/+/GCnkr/aZJWllTsE170C/c7gxat6oaVNX8lk8haTJHM4WNfXRY4BrN2N6xwhozq8kqkP+W7r628AgapbXUgWNUU6ZVrozZgbqV8WuSWauSrwpWP9NMf6vocEuBT4XbsfLDL9K83siwTbx9fuAqYGS/s7MkapVEy8GDjsvMgFIWH8Tu7bpWXRkzgYJru7NtWyaoYrJzISnQau41Rml/fbCP5QIpF4JcVW2YjH5lOwXRkLRYP4+qZwZd4J1sNLghoqjdZrM6qHdE1y9Oz0hOyzgZPaoTBRw6rwFeUYiQrbsBVdt2V5ZD8DVRjypaNWKcFmkFYmc308cq+ptlEBsOTex+l9ODj0ajNY6Ndg/Z2OhLtSnTcPiqfCZiithR+lKn5NU6US7/Cn5K6HcjWlY3Z3QecYZzTzPTvpdlQQnxCvAq24YVa2vCevhv9dK2Tau5584Azh9Z4wYVN4M4zr6wB86HDKgtZyYiU40A5wRpXm9c05idQ/WeSTKUJMA5vqzdRg6xfawjEkBKtCoPKheKuHLajqbISXY6zrpDEjeRvJYumzBHXADSt4YHlHrki1scnAeS5wTenO++sm7a7LWZ72MOq9Xvn8sZ8UqcYt4roZmX4mzoXYO4UfC8bpahSZxH95X11b7tegELDU+MjI6Ts4E0hRd3dFNdujDlHM2v6Z7iqegQwuk9MRq6Mp6BdnijaR3kx9aiwmjP9DFXzlFRyeXM/1AK3S5TYrgGX0XEivW8FUGlgPZUbEVT1u61sYpprlVdy781nIloLudNWsPdLk2TOH1epPcIjIytNS1+Wg8YNILIIXq6323cLZye5svmwYPnMOjgACLLe0j/cBBOVDcqzs5/1tZS8JzgtTS3Z3cEAqrynC7mP+DPkKeGjofWEAYVGTLi1VK0s6Nh6l4IlQEpsbi9UrUIQyu1UXyrLs59S7/hIjdzNpleYIl0uJ3rFGixabM06pH2M7HplZwoSwdQHZw78zt3pGfOZi+VF0V50649AuUd1wSeq74zt2ymoTC+wbTh8L61eXZn1iuv6ounklZfr/leL0xxkA7V1+O9lke9O5hH7TOV89vd2VJui1Cbd6v1CN6P65Mp5mFErLKYUr3aW2uzj1oJj8okvJYcv5LZKPhig1XieRevmCvTbNWvZM80dT+ObkloGLOaP9tpqSQWtq3i+wVN1CPqftq0qlxTZsyUeygqpHPcXvqk+2A09C/8nnDa8DNR6QMwHXS6bkE6Bi2BHlKtPePSTD2aqGvyksXt+XIfh5Do0N0dh8g0aOIBLbYeofvtIEEeJYRDOZC9UcpumNuThtoNpqsOBa01QaGlzjPV+dYQZC/oTCJKpAx/aPan1VTQiHrWr0d8mjjEbfKsFUOD5Qik+0nXDAlq2sr2sxTqkcQg0n4e3h3VfjODHAH21GaSNjmjNuglzaMm3c6yi8n5hj2wpeysnnWT1qmdMsflEffOquslVB7p3mEzW5adge/U/17zbIJrcfdby0OQx1A5kvMNvWPuVtJt7s1Mc8Ety1HPxW3/jkjvfu7oql1VmHTOyMLlTlqPevSIShv/W2PvV5Vl1pW5q9iBtluPKDqnTauyszkmjUiaUygp/Mgf02yCy5rpocHZo96IkGg7Xwnlnm56E1Q34+6am8XiPgn8jhYuk6WN/y2x98uKpv18NFpKmB+YtlK4B6RUW87yrwb1qPle+462aTX3vYTqj1At5aacyHBXNxbdWsRhhC1dLYHqrKr1+dobUO5U7Xr7blHnK7cXMKvIncUtm/zCkfMafn9nzIDVU1ojAa6uwOG+fLt7FiyHqS2bEOFr1EzS8WcFg/fjBKukYmscRWOeLiF8barLXioFpgXuCBayyXq0hKbzcDfuR+ys6xgkpzqL8sUoc2/7qGf9rk3VQOCw5ZSqqbo7EENEmBQNljHq/Fvwt9RM6uH7CfMOfJfI6xausacEuT/RizsI32Y3BCWVxPVoK9+m8zAi/A3iy2kZZHKLdRR9M/BY1xaTGsFztgpbJjPgf1YdIf+yM4NKarBltDb9LsO2meoW62U9q33M4TEVbinruMG9OYdR647FotXFmHoLgXHX4xbJQtcMR68X5wW+67AEFDuoTKnWX0iNuhe3UBUnBsS9I26Li8cUojdnJzyCzDgfYkbGb6oedRdiSYdWZSPb1bmArlRhEOtJXbjRx1FoeTtx9FaA6DSNFskCS/4GtwnclZ3GNrCLlZeahq+3kFpvi0PcJ1V004DoVv2O6G0Tahrbly0bAwpzYdHusm2pyeoRlSa8yEqbtCp/eLF5w2Sc4zjEcLZ1C5+ytaFtqXI/ysXara0SMfAxTH4g8IV0xYbwy+LM43GP27RfMGXLWpwVESmpcolv00apE7yxTVrNpT2s8AERqbL2VTFIcWKjSb7DBrHRjHRGZ558LyJ7TPmyBrGBNvWj6crWbQwobp1ru5g2lO4bM8KYnNhgmMTouu9ttLSQTMxvb/BVRzBDp8tN3w+HAazx7r5vd5GhUwo7ED3eutWskRm0pUJFb02Oe5fzl+qUS/mIIDdmNTDM3t2TDA3nj6J8D5ELFF0sEq6f+6ylQXJaBukW990zxx7glSKyr5jRmI/7HM3+CXhC4aUiIlFb1uNoFbe9vYxEtCrnoVJS+FtBro7yYxwZ/mDf7mJpaDj/fZCTrU+lqre2p5tEb1esTe08e/IxhKunNm/MtN3DDSr5QwjfF+Q1CE93d6qNvlIjHdenpUasAxOjy/jB9nHQ8xD5p6kMzrZBWJoN5+8VZFDhhSLREWiiDOdRzNEUreYestG5BP3D4uaNv4rKP/aEmYhR7vQi4G/nXdxyYpUREa6c2rwpc2JCFIrWVC5TZvS2mxlDLB1cHJSIa1FIMpRUXuQ2A75SkKmsM0cZRde2Vwp81LZ5G8NgYlqV4fr036J6kTjrWsP3RiI/Oj4AvN975F6U6ipOGI5AB4APALdmzXV/Etj4KionIXZR7NzEoYtbhWvou51nTN2TNaU8CfIuDubrgc+mG3YjAq6PHfbBYj9T3Lyprh5UN0YhZXFrRf5+kO8Cz/ehvtKFK7Rp6O+BIZRuLW7elGmxKg5GdDhhRWEa0ZtBfgG8sCMRlOYa+iOqXCyiP+9F5sDRTIdW5B8CudV7P1nRxkpDPMrbSNRGH/5mcUtj6SRxEWxwd+udT9ZhpkQ4OZXR0Y2AD/oFpNuEUmly85fafGk24B02D3uP5m8hEIevZThF/KjAVw3NBHZlLahQq3DRzWzswNf6/nBGin1sl5WClA0izCalWdNZu9gJushGCUXe5eM9DCSuyNxscRR0C8gNqN2AeLQXwz43wsiLbIjjHKLPtaGHEcMoy5uKNe9oNuvCF+tXrSii8ohCqdubEDsBH6tmIfBqJzrKGj+4JPPKMtfHZhXuE/SLqNxiZtxm+1jLvJkfs7L2AOipIC8DXuS9951cYZg5lPyK7i53cIbNKtwl1urCbLZWxzsHG65NxTT0auClfnAxo+SSCINJyfsLeAi4D/i+wlZBjxZ7xHDRLlxIQAZU9UQR28dGrcdDNysPRvSxWbufECYV7hG4S+FRQWdbFT9TkfK8+GUaP6fCcQJDYP1WDaLMIDb+217/vWT+srjoN18orFnnAm46P1UDNuSdi1C7CDcAHhY4gMpB6+zA0kzI6rrGfMCLqzlDMxUGfR9b6vqYzqjItLg+dsTQS4VSGta8/xsAAP//N5vgVdfd/kQAAAAASUVORK5CYII=;" vertex="1" parent="1">
          <mxGeometry x="1724.4499999999998" y="2481" width="80" height="80" as="geometry" />
        </mxCell>
        <mxCell id="j-AlwjU4qzb6VtaVWcLo-187" value="Joint State Broadcaster" style="rounded=0;whiteSpace=wrap;html=1;shadow=0;strokeColor=default;fillColor=#E6E6E6;align=center;verticalAlign=middle;strokeWidth=2;fontSize=14;fontStyle=1" vertex="1" parent="1">
          <mxGeometry x="1385" y="2260" width="134.5" height="80" as="geometry" />
        </mxCell>
        <mxCell id="j-AlwjU4qzb6VtaVWcLo-198" style="edgeStyle=orthogonalEdgeStyle;rounded=1;orthogonalLoop=1;jettySize=auto;html=1;exitX=1;exitY=0.5;exitDx=0;exitDy=0;entryX=0;entryY=0.5;entryDx=0;entryDy=0;labelBackgroundColor=none;fontSize=21;fontColor=default;startArrow=blockThin;startFill=1;endArrow=none;endFill=0;strokeColor=default;strokeWidth=3;" edge="1" parent="1" source="j-AlwjU4qzb6VtaVWcLo-144" target="j-AlwjU4qzb6VtaVWcLo-187">
          <mxGeometry relative="1" as="geometry">
            <Array as="points">
              <mxPoint x="1270" y="2230" />
              <mxPoint x="1270" y="2300" />
            </Array>
          </mxGeometry>
        </mxCell>
        <mxCell id="j-AlwjU4qzb6VtaVWcLo-199" value="&lt;b&gt;&lt;font style=&quot;font-size: 15px&quot;&gt;joint_states&lt;/font&gt;&lt;/b&gt;" style="edgeLabel;html=1;align=center;verticalAlign=middle;resizable=0;points=[];fontSize=21;fontColor=default;rotation=0;" vertex="1" connectable="0" parent="j-AlwjU4qzb6VtaVWcLo-198">
          <mxGeometry x="0.0912" y="1" relative="1" as="geometry">
            <mxPoint x="40" y="-18" as="offset" />
          </mxGeometry>
        </mxCell>
        <mxCell id="j-AlwjU4qzb6VtaVWcLo-240" value="" style="group;strokeWidth=2;" vertex="1" connectable="0" parent="1">
          <mxGeometry x="1652" y="2311" width="136.50000000000006" height="170" as="geometry" />
        </mxCell>
        <mxCell id="j-AlwjU4qzb6VtaVWcLo-241" value="&lt;div&gt;motion&lt;/div&gt;&lt;div&gt;primitives&lt;/div&gt;&lt;div&gt;kuka driver&lt;/div&gt;" style="rounded=0;whiteSpace=wrap;html=1;shadow=0;strokeColor=default;fillColor=#E6E6E6;align=center;verticalAlign=middle;fontSize=14;fontStyle=1;strokeWidth=2;" vertex="1" parent="j-AlwjU4qzb6VtaVWcLo-240">
          <mxGeometry x="11" y="-40" width="125.5" height="190" as="geometry" />
        </mxCell>
        <mxCell id="j-AlwjU4qzb6VtaVWcLo-243" value="" style="ellipse;whiteSpace=wrap;html=1;aspect=fixed;rounded=0;shadow=0;strokeColor=#000000;fillColor=light-dark(#f6d32d, #4a890c);align=left;verticalAlign=top;fontColor=#ffffff;container=0;strokeWidth=2;" vertex="1" parent="j-AlwjU4qzb6VtaVWcLo-240">
          <mxGeometry y="69.00000000000011" width="20" height="20" as="geometry" />
        </mxCell>
        <mxCell id="j-AlwjU4qzb6VtaVWcLo-253" value="" style="ellipse;shape=cloud;whiteSpace=wrap;html=1;rounded=0;shadow=0;fontSize=21;strokeColor=default;strokeWidth=2;fillColor=#1ba1e2;align=left;verticalAlign=middle;fontColor=#ffffff;" vertex="1" parent="j-AlwjU4qzb6VtaVWcLo-240">
          <mxGeometry x="-1.4300000000000637" y="89" width="21.43" height="25" as="geometry" />
        </mxCell>
        <mxCell id="m8z7bxx03cBJMsp6V6by-4" value="" style="triangle;whiteSpace=wrap;html=1;rounded=0;shadow=0;strokeColor=#000000;fillColor=#6a00ff;align=left;verticalAlign=top;direction=north;fontColor=#ffffff;container=0;strokeWidth=2;" vertex="1" parent="j-AlwjU4qzb6VtaVWcLo-240">
          <mxGeometry x="9.103828801926284e-15" width="20" height="20" as="geometry" />
        </mxCell>
        <mxCell id="yVOtZNcud1BW_O9n6U3Q-3" value="" style="ellipse;whiteSpace=wrap;html=1;aspect=fixed;rounded=0;shadow=0;strokeColor=#000000;fillColor=#60a917;align=left;verticalAlign=top;fontColor=#ffffff;container=0;strokeWidth=2;" vertex="1" parent="j-AlwjU4qzb6VtaVWcLo-240">
          <mxGeometry x="1.9899999999997817" y="-31.003333333333103" width="18.01214394736842" height="18.01214394736842" as="geometry" />
        </mxCell>
        <mxCell id="j-AlwjU4qzb6VtaVWcLo-256" value="&lt;div&gt;motion primitives &lt;br&gt;&lt;/div&gt;&lt;div&gt;forward controller&lt;/div&gt;" style="rounded=0;whiteSpace=wrap;html=1;shadow=0;strokeColor=default;fillColor=#E6E6E6;align=center;verticalAlign=middle;strokeWidth=2;fontSize=14;fontStyle=1" vertex="1" parent="1">
          <mxGeometry x="1385" y="2369.5" width="134.5" height="80" as="geometry" />
        </mxCell>
        <mxCell id="j-AlwjU4qzb6VtaVWcLo-257" style="rounded=1;orthogonalLoop=1;jettySize=auto;html=1;exitX=0.997;exitY=0.563;exitDx=0;exitDy=0;entryX=0.16;entryY=0.55;entryDx=0;entryDy=0;labelBackgroundColor=none;fontSize=21;fontColor=default;startArrow=blockThin;startFill=1;endArrow=none;endFill=0;strokeColor=default;strokeWidth=3;entryPerimeter=0;exitPerimeter=0;" edge="1" parent="1" source="j-AlwjU4qzb6VtaVWcLo-256" target="j-AlwjU4qzb6VtaVWcLo-253">
          <mxGeometry x="1084" y="167.5" as="geometry">
            <mxPoint x="1474" y="2581" as="sourcePoint" />
            <mxPoint x="1609" y="2460" as="targetPoint" />
          </mxGeometry>
        </mxCell>
        <mxCell id="j-AlwjU4qzb6VtaVWcLo-258" style="rounded=1;orthogonalLoop=1;jettySize=auto;html=1;exitX=1;exitY=0.25;exitDx=0;exitDy=0;entryX=0;entryY=0.5;entryDx=0;entryDy=0;labelBackgroundColor=none;fontSize=21;fontColor=default;startArrow=blockThin;startFill=1;endArrow=blockThin;endFill=1;strokeColor=default;strokeWidth=3;" edge="1" parent="1" source="j-AlwjU4qzb6VtaVWcLo-256" target="j-AlwjU4qzb6VtaVWcLo-243">
          <mxGeometry x="1084" y="167.5" as="geometry">
            <mxPoint x="1530" y="2421" as="sourcePoint" />
            <mxPoint x="1667" y="2440" as="targetPoint" />
          </mxGeometry>
        </mxCell>
        <mxCell id="j-AlwjU4qzb6VtaVWcLo-259" value="&lt;div&gt;&amp;nbsp;send_dummy_&lt;/div&gt;&lt;div&gt;motion_primitives.py&lt;/div&gt;" style="rounded=0;whiteSpace=wrap;html=1;shadow=0;strokeColor=default;fillColor=#E6E6E6;align=center;verticalAlign=middle;fontSize=14;fontStyle=1;strokeWidth=2;" vertex="1" parent="1">
          <mxGeometry x="1030" y="2362" width="154.61" height="100" as="geometry" />
        </mxCell>
        <mxCell id="j-AlwjU4qzb6VtaVWcLo-260" style="rounded=1;orthogonalLoop=1;jettySize=auto;html=1;exitX=0;exitY=0.5;exitDx=0;exitDy=0;entryX=1;entryY=0.5;entryDx=0;entryDy=0;labelBackgroundColor=none;fontSize=21;fontColor=default;startArrow=blockThin;startFill=1;endArrow=none;endFill=0;strokeColor=default;strokeWidth=3;" edge="1" parent="1" source="j-AlwjU4qzb6VtaVWcLo-256" target="j-AlwjU4qzb6VtaVWcLo-259">
          <mxGeometry x="1084" y="167.5" as="geometry">
            <mxPoint x="1530" y="2440" as="sourcePoint" />
            <mxPoint x="1664" y="2434" as="targetPoint" />
          </mxGeometry>
        </mxCell>
        <mxCell id="j-AlwjU4qzb6VtaVWcLo-262" value="&lt;div&gt;&lt;font style=&quot;font-size: 14px;&quot;&gt;&lt;b&gt;motion primitives&lt;/b&gt;&lt;/font&gt;&lt;/div&gt;" style="edgeLabel;html=1;align=center;verticalAlign=middle;resizable=0;points=[];fontSize=21;fontColor=default;rotation=0;labelBackgroundColor=none;" vertex="1" connectable="0" parent="1">
          <mxGeometry x="1279.001739130435" y="2401.0039342445216" as="geometry">
            <mxPoint x="-6" y="-8" as="offset" />
          </mxGeometry>
        </mxCell>
        <mxCell id="m8z7bxx03cBJMsp6V6by-9" style="rounded=1;orthogonalLoop=1;jettySize=auto;html=1;labelBackgroundColor=none;fontSize=21;fontColor=default;startArrow=blockThin;startFill=1;endArrow=none;endFill=0;strokeColor=default;strokeWidth=3;entryX=0.5;entryY=0;entryDx=0;entryDy=0;exitX=1;exitY=0.75;exitDx=0;exitDy=0;" edge="1" parent="1" source="j-AlwjU4qzb6VtaVWcLo-187" target="m8z7bxx03cBJMsp6V6by-4">
          <mxGeometry x="1114" y="197.5" as="geometry">
            <mxPoint x="1520" y="2290" as="sourcePoint" />
            <mxPoint x="1661.25" y="2290" as="targetPoint" />
          </mxGeometry>
        </mxCell>
        <mxCell id="CRbJ9JwvQviIftcSwioY-1" value="" style="ellipse;shape=cloud;whiteSpace=wrap;html=1;rounded=0;shadow=0;fontSize=21;strokeColor=default;strokeWidth=2;fillColor=light-dark(#e01b24, #ffa3a3);align=left;verticalAlign=middle;fontColor=#ffffff;" vertex="1" parent="1">
          <mxGeometry x="1652" y="2424.5" width="21.43" height="25" as="geometry" />
        </mxCell>
        <mxCell id="CRbJ9JwvQviIftcSwioY-2" style="rounded=1;orthogonalLoop=1;jettySize=auto;html=1;entryX=0.16;entryY=0.55;entryDx=0;entryDy=0;labelBackgroundColor=none;fontSize=21;fontColor=default;startArrow=blockThin;startFill=1;endArrow=none;endFill=0;strokeColor=default;strokeWidth=3;entryPerimeter=0;" edge="1" parent="1" target="CRbJ9JwvQviIftcSwioY-1">
          <mxGeometry x="1084" y="167.5" as="geometry">
            <mxPoint x="1520" y="2440" as="sourcePoint" />
            <mxPoint x="1664" y="2424" as="targetPoint" />
          </mxGeometry>
        </mxCell>
        <mxCell id="TyROdobQLk16wcPHEc8l-1" value="" style="group" connectable="0" vertex="1" parent="1">
          <mxGeometry x="2097.71" y="2150" width="357.8" height="440" as="geometry" />
        </mxCell>
        <mxCell id="j-AlwjU4qzb6VtaVWcLo-155" value="" style="rounded=1;whiteSpace=wrap;html=1;shadow=0;labelBackgroundColor=none;fontSize=14;strokeColor=none;strokeWidth=2;fillColor=#dae8fc;align=center;verticalAlign=middle;opacity=60;" vertex="1" parent="TyROdobQLk16wcPHEc8l-1">
          <mxGeometry y="-30" width="357.8" height="468.09" as="geometry" />
        </mxCell>
        <mxCell id="j-AlwjU4qzb6VtaVWcLo-160" value="" style="triangle;whiteSpace=wrap;html=1;rounded=0;shadow=0;strokeColor=#000000;fillColor=#6a00ff;align=left;verticalAlign=top;direction=north;fontColor=#ffffff;container=0;strokeWidth=2;" vertex="1" parent="TyROdobQLk16wcPHEc8l-1">
          <mxGeometry x="12.800000000000177" y="29.954291247316355" width="18.01214394736841" height="16.3432937348839" as="geometry" />
        </mxCell>
        <mxCell id="j-AlwjU4qzb6VtaVWcLo-161" value="Velocity" style="text;html=1;align=left;verticalAlign=middle;resizable=0;points=[];autosize=1;strokeColor=none;fillColor=none;fontSize=21;" vertex="1" parent="TyROdobQLk16wcPHEc8l-1">
          <mxGeometry x="42.35821592105274" y="19.99293422065517" width="100" height="40" as="geometry" />
        </mxCell>
        <mxCell id="j-AlwjU4qzb6VtaVWcLo-250" value="&lt;div align=&quot;left&quot;&gt;Motion primitive&lt;/div&gt;&lt;div align=&quot;left&quot;&gt;&lt;p style=&quot;line-height: normal; margin-top: 0pt; margin-bottom: 0pt; border: light-dark(currentcolor, rgb(237, 237, 237));&quot;&gt;&lt;font style=&quot;font-size: 21px;&quot;&gt;&lt;span style=&quot;font-family: &amp;quot;Arial&amp;quot;; color: light-dark(rgb(0, 0, 0), rgb(237, 237, 237));&quot;&gt;– motion_type&lt;/span&gt;&lt;/font&gt;&lt;/p&gt;&lt;p style=&quot;line-height: normal; margin-top: 0pt; margin-bottom: 0pt; border: light-dark(currentcolor, rgb(237, 237, 237));&quot;&gt;&lt;font style=&quot;font-size: 21px;&quot;&gt;&lt;span style=&quot;font-family: &amp;quot;Arial&amp;quot;; color: light-dark(rgb(0, 0, 0), rgb(237, 237, 237));&quot;&gt;– q1 ... q6&lt;/span&gt;&lt;/font&gt;&lt;/p&gt;&lt;p style=&quot;line-height: normal; margin-top: 0pt; margin-bottom: 0pt; border: light-dark(currentcolor, rgb(237, 237, 237));&quot;&gt;&lt;font style=&quot;font-size: 21px;&quot;&gt;&lt;span style=&quot;font-family: &amp;quot;Arial&amp;quot;; color: light-dark(rgb(0, 0, 0), rgb(237, 237, 237));&quot;&gt;– pos_x, _y, _z&lt;/span&gt;&lt;/font&gt;&lt;/p&gt;&lt;p style=&quot;line-height: normal; margin-top: 0pt; margin-bottom: 0pt; border: light-dark(currentcolor, rgb(237, 237, 237));&quot;&gt;&lt;font style=&quot;font-size: 21px;&quot;&gt;&lt;span style=&quot;font-family: &amp;quot;Arial&amp;quot;; color: light-dark(rgb(0, 0, 0), rgb(237, 237, 237));&quot;&gt;– pos_qx, &lt;/span&gt;&lt;/font&gt;&lt;font style=&quot;font-size: 21px;&quot;&gt;&lt;span style=&quot;font-family: &amp;quot;Arial&amp;quot;; color: light-dark(rgb(0, 0, 0), rgb(237, 237, 237));&quot;&gt;_qy,&amp;nbsp;&lt;/span&gt;&lt;/font&gt;&lt;font style=&quot;font-size: 21px;&quot;&gt;&lt;span style=&quot;font-family: &amp;quot;Arial&amp;quot;; color: light-dark(rgb(0, 0, 0), rgb(237, 237, 237));&quot;&gt;_qz, &lt;/span&gt;&lt;/font&gt;&lt;font style=&quot;font-size: 21px;&quot;&gt;&lt;span style=&quot;font-family: &amp;quot;Arial&amp;quot;; color: light-dark(rgb(0, 0, 0), rgb(237, 237, 237));&quot;&gt;_qw&lt;/span&gt;&lt;/font&gt;&lt;font style=&quot;font-size: 21px;&quot;&gt;&lt;span style=&quot;font-family: &amp;quot;Arial&amp;quot;; color: light-dark(rgb(0, 0, 0), rgb(237, 237, 237));&quot;&gt; &lt;br&gt;&lt;/span&gt;&lt;/font&gt;&lt;/p&gt;&lt;p style=&quot;line-height: normal; margin-top: 0pt; margin-bottom: 0pt; border: light-dark(currentcolor, rgb(237, 237, 237));&quot;&gt;&lt;font style=&quot;font-size: 21px;&quot;&gt;&lt;span style=&quot;font-family: &amp;quot;Arial&amp;quot;; color: light-dark(rgb(0, 0, 0), rgb(237, 237, 237));&quot;&gt;– pos_via_x,&lt;/span&gt;&lt;/font&gt;&lt;font style=&quot;font-size: 21px;&quot;&gt;&lt;span style=&quot;font-family: &amp;quot;Arial&amp;quot;; color: light-dark(rgb(0, 0, 0), rgb(237, 237, 237));&quot;&gt; _y, _z&lt;/span&gt;&lt;/font&gt;&lt;font style=&quot;font-size: 21px;&quot;&gt;&lt;span style=&quot;font-family: &amp;quot;Arial&amp;quot;; color: light-dark(rgb(0, 0, 0), rgb(237, 237, 237));&quot;&gt;&lt;br&gt;– pos_via_qx&lt;/span&gt;&lt;/font&gt;&lt;font style=&quot;font-size: 21px;&quot;&gt;&lt;span style=&quot;font-family: &amp;quot;Arial&amp;quot;; color: light-dark(rgb(0, 0, 0), rgb(237, 237, 237));&quot;&gt;, &lt;/span&gt;&lt;/font&gt;&lt;font style=&quot;font-size: 21px;&quot;&gt;&lt;span style=&quot;font-family: &amp;quot;Arial&amp;quot;; color: light-dark(rgb(0, 0, 0), rgb(237, 237, 237));&quot;&gt;_qy,&amp;nbsp;&lt;/span&gt;&lt;/font&gt;&lt;font style=&quot;font-size: 21px;&quot;&gt;&lt;span style=&quot;font-family: &amp;quot;Arial&amp;quot;; color: light-dark(rgb(0, 0, 0), rgb(237, 237, 237));&quot;&gt;_qz, &lt;/span&gt;&lt;/font&gt;&lt;font style=&quot;font-size: 21px;&quot;&gt;&lt;span style=&quot;font-family: &amp;quot;Arial&amp;quot;; color: light-dark(rgb(0, 0, 0), rgb(237, 237, 237));&quot;&gt;_qw&lt;/span&gt;&lt;/font&gt;&lt;/p&gt;&lt;p style=&quot;line-height: normal; margin-top: 0pt; margin-bottom: 0pt; border: light-dark(currentcolor, rgb(237, 237, 237));&quot;&gt;&lt;font style=&quot;font-size: 21px;&quot;&gt;&lt;span style=&quot;font-family: &amp;quot;Arial&amp;quot;; color: light-dark(rgb(0, 0, 0), rgb(237, 237, 237));&quot;&gt;– velocity&lt;/span&gt;&lt;/font&gt;&lt;/p&gt;&lt;p style=&quot;line-height: normal; margin-top: 0pt; margin-bottom: 0pt; border: light-dark(currentcolor, rgb(237, 237, 237));&quot;&gt;&lt;font style=&quot;font-size: 21px;&quot;&gt;&lt;span style=&quot;font-family: &amp;quot;Arial&amp;quot;; color: light-dark(rgb(0, 0, 0), rgb(237, 237, 237));&quot;&gt;– acceleration&lt;/span&gt;&lt;/font&gt;&lt;/p&gt;&lt;p style=&quot;line-height: normal; margin-top: 0pt; margin-bottom: 0pt; border: light-dark(currentcolor, rgb(237, 237, 237));&quot;&gt;&lt;font style=&quot;font-size: 21px;&quot;&gt;&lt;span style=&quot;font-family: &amp;quot;Arial&amp;quot;; color: light-dark(rgb(0, 0, 0), rgb(237, 237, 237));&quot;&gt;– blend_radius&lt;/span&gt;&lt;/font&gt;&lt;/p&gt;&lt;/div&gt;" style="text;html=1;align=left;verticalAlign=top;resizable=0;points=[];autosize=1;strokeColor=none;fillColor=none;fontSize=21;" vertex="1" parent="TyROdobQLk16wcPHEc8l-1">
          <mxGeometry x="42.36250000000016" y="109.00038246326831" width="290" height="260" as="geometry" />
        </mxCell>
        <mxCell id="j-AlwjU4qzb6VtaVWcLo-202" value="" style="ellipse;shape=cloud;whiteSpace=wrap;html=1;rounded=0;shadow=0;fontSize=21;strokeColor=default;strokeWidth=2;fillColor=#1ba1e2;align=left;verticalAlign=middle;fontColor=#ffffff;" vertex="1" parent="TyROdobQLk16wcPHEc8l-1">
          <mxGeometry x="11.130000000000104" y="57.82544395591305" width="21.42999999999999" height="21.88833982350522" as="geometry" />
        </mxCell>
        <mxCell id="j-AlwjU4qzb6VtaVWcLo-249" value="" style="ellipse;whiteSpace=wrap;html=1;aspect=fixed;rounded=0;shadow=0;strokeColor=#000000;fillColor=light-dark(#f6d32d, #4a890c);align=left;verticalAlign=top;fontColor=#ffffff;container=0;strokeWidth=2;rotation=-10;" vertex="1" parent="TyROdobQLk16wcPHEc8l-1">
          <mxGeometry x="12.84000000000014" y="119.0310789930531" width="15.84278036425308" height="15.84278036425308" as="geometry" />
        </mxCell>
        <mxCell id="j-AlwjU4qzb6VtaVWcLo-251" value="Execution status" style="text;html=1;align=left;verticalAlign=middle;resizable=0;points=[];autosize=1;strokeColor=none;fillColor=none;fontSize=21;" vertex="1" parent="TyROdobQLk16wcPHEc8l-1">
          <mxGeometry x="37.36250000000017" y="51.25894200886152" width="180" height="40" as="geometry" />
        </mxCell>
        <mxCell id="CRbJ9JwvQviIftcSwioY-5" value="" style="ellipse;shape=cloud;whiteSpace=wrap;html=1;rounded=0;shadow=0;fontSize=21;strokeColor=default;strokeWidth=2;fillColor=light-dark(#e01b24, #198cc4);align=left;verticalAlign=middle;fontColor=#ffffff;" vertex="1" parent="TyROdobQLk16wcPHEc8l-1">
          <mxGeometry x="10.930000000000286" y="87.1120426397632" width="21.42999999999999" height="21.88833982350522" as="geometry" />
        </mxCell>
        <mxCell id="CRbJ9JwvQviIftcSwioY-6" value="Ready for new primitive" style="text;html=1;align=left;verticalAlign=middle;resizable=0;points=[];autosize=1;strokeColor=none;fillColor=none;fontSize=21;" vertex="1" parent="TyROdobQLk16wcPHEc8l-1">
          <mxGeometry x="39.822500000000204" y="80.54554069271144" width="240" height="40" as="geometry" />
        </mxCell>
        <mxCell id="yVOtZNcud1BW_O9n6U3Q-1" value="" style="ellipse;whiteSpace=wrap;html=1;aspect=fixed;rounded=0;shadow=0;strokeColor=#000000;fillColor=#60a917;align=left;verticalAlign=top;fontColor=#ffffff;container=0;strokeWidth=2;" vertex="1" parent="TyROdobQLk16wcPHEc8l-1">
          <mxGeometry x="12.799999999999727" y="-0.34333333333324845" width="18.01214394736842" height="18.01214394736842" as="geometry" />
        </mxCell>
        <mxCell id="yVOtZNcud1BW_O9n6U3Q-2" value="Position" style="text;html=1;align=left;verticalAlign=middle;resizable=0;points=[];autosize=1;strokeColor=none;fillColor=none;fontSize=21;container=0;" vertex="1" parent="TyROdobQLk16wcPHEc8l-1">
          <mxGeometry x="39.81821592105234" y="-5.010000000000218" width="90" height="30" as="geometry" />
        </mxCell>
        <mxCell id="yVOtZNcud1BW_O9n6U3Q-5" value="&lt;div align=&quot;left&quot;&gt;&lt;p style=&quot;line-height: normal; margin-top: 0pt; margin-bottom: 0pt; border: light-dark(currentcolor, rgb(237, 237, 237));&quot;&gt;&lt;font style=&quot;font-size: 21px;&quot;&gt;&lt;span style=&quot;font-family: &amp;quot;Arial&amp;quot;;&quot;&gt;– move_time&lt;/span&gt;&lt;/font&gt;&lt;/p&gt;&lt;/div&gt;" style="text;html=1;align=left;verticalAlign=top;resizable=0;points=[];autosize=1;strokeColor=none;fillColor=none;fontSize=21;fontColor=light-dark(#7C7C7C,#3C3C3C);" vertex="1" parent="TyROdobQLk16wcPHEc8l-1">
          <mxGeometry x="42.36250000000018" y="360.0003824632681" width="140" height="40" as="geometry" />
        </mxCell>
        <mxCell id="TyROdobQLk16wcPHEc8l-2" value="" style="rounded=0;whiteSpace=wrap;html=1;shadow=0;strokeColor=default;fillColor=#E6E6E6;align=center;verticalAlign=middle;strokeWidth=2;fontSize=14;fontStyle=1" vertex="1" parent="1">
          <mxGeometry x="1921.98" y="2379" width="129.02" height="80" as="geometry" />
        </mxCell>
        <mxCell id="TyROdobQLk16wcPHEc8l-3" style="rounded=1;orthogonalLoop=1;jettySize=auto;html=1;entryX=0;entryY=0.25;entryDx=0;entryDy=0;labelBackgroundColor=none;fontSize=21;fontColor=default;startArrow=blockThin;startFill=1;endArrow=blockThin;endFill=1;strokeColor=default;strokeWidth=3;exitX=1.013;exitY=0.68;exitDx=0;exitDy=0;exitPerimeter=0;" edge="1" parent="1" source="j-AlwjU4qzb6VtaVWcLo-241" target="TyROdobQLk16wcPHEc8l-2">
          <mxGeometry x="1084" y="167.5" as="geometry">
            <mxPoint x="1780" y="2400" as="sourcePoint" />
            <mxPoint x="1920.5" y="2401" as="targetPoint" />
          </mxGeometry>
        </mxCell>
        <mxCell id="TyROdobQLk16wcPHEc8l-4" style="rounded=1;orthogonalLoop=1;jettySize=auto;html=1;exitX=1.013;exitY=0.885;exitDx=0;exitDy=0;entryX=0;entryY=0.75;entryDx=0;entryDy=0;labelBackgroundColor=none;fontSize=21;fontColor=default;startArrow=blockThin;startFill=1;endArrow=blockThin;endFill=1;strokeColor=default;strokeWidth=3;exitPerimeter=0;" edge="1" parent="1" source="j-AlwjU4qzb6VtaVWcLo-241" target="TyROdobQLk16wcPHEc8l-2">
          <mxGeometry x="1084" y="167.5" as="geometry">
            <mxPoint x="1788.5" y="2436.7" as="sourcePoint" />
            <mxPoint x="1920.5" y="2436.7" as="targetPoint" />
          </mxGeometry>
        </mxCell>
        <mxCell id="TyROdobQLk16wcPHEc8l-7" value="" style="rounded=0;whiteSpace=wrap;html=1;rotation=75;fillColor=#e5af00ff;strokeColor=default;" vertex="1" parent="1">
          <mxGeometry x="2055.163934505533" y="2288.814592619219" width="3.3755666781452502" height="5.625761017683599" as="geometry" />
        </mxCell>
        <mxCell id="TyROdobQLk16wcPHEc8l-8" value="" style="group;rotation=-15;" connectable="0" vertex="1" parent="1">
          <mxGeometry x="2063.380061234605" y="2291.9747621615147" width="17.486265473865963" height="27.469217341750795" as="geometry" />
        </mxCell>
        <mxCell id="TyROdobQLk16wcPHEc8l-9" value="" style="rounded=0;whiteSpace=wrap;html=1;rotation=-149;fillColor=#e5af00ff;strokeColor=default;" vertex="1" parent="TyROdobQLk16wcPHEc8l-8">
          <mxGeometry x="-1.8960292451704293" y="5.056271267673137" width="18.00302228344133" height="2.8128805088418" as="geometry" />
        </mxCell>
        <mxCell id="TyROdobQLk16wcPHEc8l-10" value="" style="rounded=0;whiteSpace=wrap;html=1;rotation=-60;fillColor=#e5af00ff;strokeColor=default;" vertex="1" parent="TyROdobQLk16wcPHEc8l-8">
          <mxGeometry x="-0.6320097483901431" y="18.328983345315123" width="18.00302228344133" height="2.8128805088418" as="geometry" />
        </mxCell>
        <mxCell id="TyROdobQLk16wcPHEc8l-11" value="" style="group;rotation=-15;" connectable="0" vertex="1" parent="TyROdobQLk16wcPHEc8l-8">
          <mxGeometry x="10.11215597424229" y="7.584406901509705" width="5.625944463575417" height="5.6257610176836" as="geometry" />
        </mxCell>
        <mxCell id="TyROdobQLk16wcPHEc8l-12" value="" style="ellipse;whiteSpace=wrap;html=1;aspect=fixed;fillColor=#719eb1ff;strokeColor=default;rotation=-15;" vertex="1" parent="TyROdobQLk16wcPHEc8l-11">
          <mxGeometry width="5.625197434385006" height="5.625197434385006" as="geometry" />
        </mxCell>
        <mxCell id="TyROdobQLk16wcPHEc8l-13" value="" style="ellipse;whiteSpace=wrap;html=1;aspect=fixed;fillColor=#7f7f7fff;strokeColor=#333333ff;fontColor=#333333;rotation=-15;" vertex="1" parent="TyROdobQLk16wcPHEc8l-11">
          <mxGeometry x="1.8960292451704295" y="1.8961017253774262" width="1.8750658114616687" height="1.8750658114616687" as="geometry" />
        </mxCell>
        <mxCell id="TyROdobQLk16wcPHEc8l-14" value="" style="rounded=0;whiteSpace=wrap;html=1;rotation=-60;fillColor=#e5af00ff;strokeColor=default;" vertex="1" parent="1">
          <mxGeometry x="2038.7316810473894" y="2303.983406422238" width="18.003022283441332" height="2.8128805088417996" as="geometry" />
        </mxCell>
        <mxCell id="TyROdobQLk16wcPHEc8l-15" value="" style="rounded=0;whiteSpace=wrap;html=1;fillColor=#e5af00ff;strokeColor=default;rotation=-15;" vertex="1" parent="1">
          <mxGeometry x="2050.1078565184116" y="2293.238829978433" width="16.877833390726256" height="5.625761017683599" as="geometry" />
        </mxCell>
        <mxCell id="TyROdobQLk16wcPHEc8l-16" value="" style="rounded=0;whiteSpace=wrap;html=1;rotation=28;fillColor=#e5af00ff;strokeColor=default;" vertex="1" parent="1">
          <mxGeometry x="2045.0517785312904" y="2315.992050682962" width="18.003022283441332" height="2.8128805088417996" as="geometry" />
        </mxCell>
        <mxCell id="TyROdobQLk16wcPHEc8l-17" value="" style="group;rotation=-15;" connectable="0" vertex="1" parent="1">
          <mxGeometry x="2040.6277102925596" y="2309.6717115983706" width="5.625944463575417" height="5.625761017683599" as="geometry" />
        </mxCell>
        <mxCell id="TyROdobQLk16wcPHEc8l-18" value="" style="ellipse;whiteSpace=wrap;html=1;aspect=fixed;fillColor=#719eb1ff;strokeColor=default;rotation=-15;" vertex="1" parent="TyROdobQLk16wcPHEc8l-17">
          <mxGeometry width="5.625197434385008" height="5.625197434385008" as="geometry" />
        </mxCell>
        <mxCell id="TyROdobQLk16wcPHEc8l-19" value="" style="ellipse;whiteSpace=wrap;html=1;aspect=fixed;fillColor=#7f7f7fff;strokeColor=#666666;fontColor=#333333;rotation=-15;" vertex="1" parent="TyROdobQLk16wcPHEc8l-17">
          <mxGeometry x="1.89602924517043" y="1.8961017253774262" width="1.8750658114616687" height="1.8750658114616687" as="geometry" />
        </mxCell>
        <mxCell id="TyROdobQLk16wcPHEc8l-20" value="" style="rounded=0;whiteSpace=wrap;html=1;fillColor=#000000;" vertex="1" parent="1">
          <mxGeometry x="1950.0030350198012" y="2371.76603988604" width="62.38846365494114" height="7.22934472934473" as="geometry" />
        </mxCell>
        <mxCell id="TyROdobQLk16wcPHEc8l-21" value="" style="rounded=0;whiteSpace=wrap;html=1;fillColor=#bdc286ff;strokeColor=default;" vertex="1" parent="1">
          <mxGeometry x="1968.719574116284" y="2350.0780056980057" width="27.728206068862725" height="21.688034188034184" as="geometry" />
        </mxCell>
        <mxCell id="TyROdobQLk16wcPHEc8l-22" value="" style="rounded=0;whiteSpace=wrap;html=1;fillColor=#bdc286ff;strokeColor=default;" vertex="1" parent="1">
          <mxGeometry x="1973.5720101783354" y="2277.7845584045585" width="18.023333944760772" height="72.29344729344729" as="geometry" />
        </mxCell>
        <mxCell id="TyROdobQLk16wcPHEc8l-23" value="" style="rounded=0;whiteSpace=wrap;html=1;rotation=97;fillColor=#bdc286ff;strokeColor=default;" vertex="1" parent="1">
          <mxGeometry x="2008.2322677644133" y="2236.873696581197" width="13.864103034431363" height="79.522792022792" as="geometry" />
        </mxCell>
        <mxCell id="TyROdobQLk16wcPHEc8l-24" value="" style="group" connectable="0" vertex="1" parent="1">
          <mxGeometry x="1972.1855998748915" y="2261.88" width="20.796154551647042" height="21.688034188034184" as="geometry" />
        </mxCell>
        <mxCell id="TyROdobQLk16wcPHEc8l-25" value="" style="ellipse;whiteSpace=wrap;html=1;aspect=fixed;fillColor=#719eb1ff;strokeColor=default;" vertex="1" parent="TyROdobQLk16wcPHEc8l-24">
          <mxGeometry width="20.794737178796463" height="20.794737178796463" as="geometry" />
        </mxCell>
        <mxCell id="TyROdobQLk16wcPHEc8l-26" value="" style="ellipse;whiteSpace=wrap;html=1;aspect=fixed;fillColor=#7f7f7fff;strokeColor=#666666;fontColor=#333333;" vertex="1" parent="TyROdobQLk16wcPHEc8l-24">
          <mxGeometry x="6.932051517215681" y="6.930144841641193" width="6.931579059598819" height="6.931579059598819" as="geometry" />
        </mxCell>
        <mxCell id="TyROdobQLk16wcPHEc8l-27" value="" style="rounded=0;whiteSpace=wrap;html=1;rotation=-15;fillColor=#bdc286ff;strokeColor=default;" vertex="1" parent="1">
          <mxGeometry x="2048.438166564264" y="2282.8450997151" width="13.864103034431363" height="7.22934472934473" as="geometry" />
        </mxCell>
        <mxCell id="TyROdobQLk16wcPHEc8l-28" value="" style="group" connectable="0" vertex="1" parent="1">
          <mxGeometry x="2047.051756260821" y="2274.169886039886" width="13.864103034431363" height="14.45868945868946" as="geometry" />
        </mxCell>
        <mxCell id="TyROdobQLk16wcPHEc8l-29" value="" style="ellipse;whiteSpace=wrap;html=1;aspect=fixed;fillColor=#719eb1ff;strokeColor=default;" vertex="1" parent="TyROdobQLk16wcPHEc8l-28">
          <mxGeometry width="13.86315811919764" height="13.86315811919764" as="geometry" />
        </mxCell>
        <mxCell id="TyROdobQLk16wcPHEc8l-30" value="" style="ellipse;whiteSpace=wrap;html=1;aspect=fixed;fillColor=#7f7f7fff;strokeColor=#666666;fontColor=#333333;" vertex="1" parent="TyROdobQLk16wcPHEc8l-28">
          <mxGeometry x="4.6213676781437885" y="4.819563152896486" width="4.621052706399214" height="4.621052706399214" as="geometry" />
        </mxCell>
        <mxCell id="yVOtZNcud1BW_O9n6U3Q-4" style="rounded=1;orthogonalLoop=1;jettySize=auto;html=1;labelBackgroundColor=none;fontSize=21;fontColor=default;startArrow=blockThin;startFill=1;endArrow=none;endFill=0;strokeColor=default;strokeWidth=3;entryX=0;entryY=0.5;entryDx=0;entryDy=0;" edge="1" parent="1" target="yVOtZNcud1BW_O9n6U3Q-3">
          <mxGeometry x="1114" y="197.5" as="geometry">
            <mxPoint x="1520" y="2290" as="sourcePoint" />
            <mxPoint x="1668" y="2300" as="targetPoint" />
          </mxGeometry>
        </mxCell>
      </root>
    </mxGraphModel>
  </diagram>
</mxfile>
